<svg width="329" height="193" viewBox="0 0 329 193" fill="none" xmlns="http://www.w3.org/2000/svg">
<path d="M187.5 0H106C106 0 84 2.5 80.5 28V112.5C80.5 126.5 93 141 106 141H187.5C199 141 217 130.5 217 112.5V28C217 23.5 212.5 0 187.5 0Z" fill="black"/>
<path d="M138.5 76.5C167.277 80.228 187.277 39.2232 190 37C184.5 109 171 122.5 164 129.5C159 133.25 153.651 134.623 152.5 131.5C152.5 131.5 142.5 100 138.5 76.5Z" fill="white"/>
<path d="M191.5 31C189 28 195 21.5 198.5 18.5C202 18.5 202 24.5 202 24.5C202 24.5 196 33.5 191.5 31Z" fill="#00FF19"/>
<path d="M19.3562 180.984C19.3562 182.112 19.0922 183.084 18.5642 183.9C18.0602 184.692 17.2202 185.424 16.0442 186.096C15.2522 186.576 14.3282 186.936 13.2722 187.176C12.2162 187.416 11.1482 187.536 10.0682 187.536C8.96416 187.536 7.59616 187.176 5.96416 186.456C4.78816 185.88 3.85216 185.196 3.15616 184.404C2.48416 183.612 2.14816 182.748 2.14816 181.812C2.14816 181.164 2.29216 180.696 2.58016 180.408C2.86816 180.096 3.33616 179.94 3.98416 179.94C4.32016 179.94 4.66816 180.084 5.02816 180.372C5.38816 180.636 5.60416 180.9 5.67616 181.164C6.01216 182.148 6.60016 182.904 7.44016 183.432C8.28016 183.936 9.32416 184.188 10.5722 184.188C12.0122 184.188 13.2122 183.924 14.1722 183.396C15.1562 182.868 15.6482 182.16 15.6482 181.272C15.6482 180.408 15.1202 179.64 14.0642 178.968C13.0082 178.296 11.9282 177.828 10.8242 177.564C9.24016 177.132 7.83616 176.616 6.61216 176.016C5.34016 175.392 4.39216 174.624 3.76816 173.712C3.14416 172.8 2.83216 171.84 2.83216 170.832C2.83216 169.896 3.15616 168.948 3.80416 167.988C4.45216 167.004 5.22016 166.296 6.10816 165.864C6.58816 165.624 7.40416 165.372 8.55616 165.108C9.73216 164.82 10.5842 164.676 11.1122 164.676C11.8082 164.676 12.5762 164.76 13.4162 164.928C14.2562 165.096 14.9402 165.336 15.4682 165.648C16.5242 166.248 17.3042 166.788 17.8082 167.268C18.3122 167.748 18.5642 168.348 18.5642 169.068C18.5642 169.5 18.3962 169.884 18.0602 170.22C17.7482 170.556 17.1962 170.724 16.4042 170.724C16.2122 170.724 16.0202 170.64 15.8282 170.472C15.6362 170.304 15.3962 170.052 15.1082 169.716C14.7242 169.212 14.3522 168.876 13.9922 168.708C13.6322 168.588 13.1042 168.456 12.4082 168.312C11.7362 168.168 11.1362 168.096 10.6082 168.096C10.0322 168.096 9.43216 168.216 8.80816 168.456C8.18416 168.696 7.65616 169.044 7.22416 169.5C6.81616 169.932 6.61216 170.436 6.61216 171.012C6.61216 171.492 6.82816 171.912 7.26016 172.272C7.71616 172.608 8.25616 172.884 8.88016 173.1C9.60016 173.388 10.3802 173.64 11.2202 173.856C12.3242 174.192 13.2242 174.504 13.9202 174.792C14.6402 175.056 15.3362 175.392 16.0082 175.8C17.1842 176.496 18.0362 177.216 18.5642 177.96C19.0922 178.68 19.3562 179.688 19.3562 180.984ZM41.227 164.604C42.835 164.604 44.299 164.808 45.619 165.216C46.939 165.6 48.019 166.176 48.859 166.944C50.371 168.312 51.427 169.812 52.027 171.444C52.651 173.052 52.963 175.116 52.963 177.636C52.963 178.164 52.891 178.644 52.747 179.076C52.627 179.508 52.423 180.06 52.135 180.732C51.775 181.476 51.559 182.064 51.487 182.496C51.007 183.336 50.215 184.14 49.111 184.908C48.031 185.676 46.855 186.3 45.583 186.78C44.311 187.26 43.195 187.5 42.235 187.5C37.603 187.5 34.303 185.916 32.335 182.748C31.783 181.86 31.351 180.936 31.039 179.976C30.751 179.016 30.607 178.08 30.607 177.168C30.607 174.72 31.039 172.596 31.903 170.796C32.791 168.972 34.015 167.556 35.575 166.548C36.511 165.996 37.483 165.54 38.491 165.18C39.523 164.796 40.435 164.604 41.227 164.604ZM34.351 177.276C34.351 178.572 34.639 179.64 35.215 180.48C35.815 181.32 36.727 182.232 37.951 183.216C38.959 183.6 39.643 183.852 40.003 183.972C40.363 184.068 40.771 184.116 41.227 184.116C43.651 184.116 45.583 183.456 47.023 182.136C48.463 180.816 49.183 179.004 49.183 176.7C49.183 174.876 48.979 173.436 48.571 172.38C48.163 171.324 47.431 170.376 46.375 169.536C45.823 169.08 45.115 168.744 44.251 168.528C43.411 168.312 42.499 168.204 41.515 168.204C40.027 168.204 38.743 168.648 37.663 169.536C36.583 170.4 35.755 171.528 35.179 172.92C34.627 174.312 34.351 175.764 34.351 177.276ZM82.9009 168.168C83.2609 168.6 83.5129 168.948 83.6569 169.212C83.8009 169.476 83.8729 169.728 83.8729 169.968C83.8729 170.256 83.6809 170.592 83.2969 170.976C82.9369 171.36 82.5769 171.552 82.2169 171.552C81.7369 171.552 81.3529 171.48 81.0649 171.336C80.7769 171.192 80.5369 170.964 80.3449 170.652C79.8889 169.932 79.3609 169.296 78.7609 168.744C78.1609 168.168 77.3569 167.88 76.3489 167.88C75.3649 167.88 74.2609 168.108 73.0369 168.564C71.8129 169.02 70.9129 169.584 70.3369 170.256C69.0409 171.84 68.3929 173.94 68.3929 176.556C68.3929 178.644 69.0409 180.432 70.3369 181.92C71.7049 183.456 73.4329 184.224 75.5209 184.224C76.4809 184.224 77.5249 184.056 78.6529 183.72C79.8049 183.36 80.7169 182.784 81.3889 181.992H81.3529C81.7849 181.536 82.3249 181.308 82.9729 181.308C83.3569 181.308 83.7169 181.476 84.0529 181.812C84.4129 182.148 84.5929 182.484 84.5929 182.82C84.5929 183.18 84.5329 183.504 84.4129 183.792C84.3169 184.056 84.1249 184.356 83.8369 184.692C82.8529 185.772 81.5929 186.528 80.0569 186.96C78.5449 187.368 76.8169 187.572 74.8729 187.572C73.2649 187.572 71.7169 187.188 70.2289 186.42C68.7649 185.652 67.5529 184.68 66.5929 183.504C66.1129 182.808 65.6449 181.812 65.1889 180.516C64.7569 179.196 64.5409 178.128 64.5409 177.312C64.5409 175.224 64.8529 173.244 65.4769 171.372C66.1249 169.476 67.0849 167.964 68.3569 166.836C69.1969 166.068 70.4089 165.492 71.9929 165.108C73.5769 164.724 75.0289 164.532 76.3489 164.532C77.4049 164.532 78.3049 164.688 79.0489 165C79.8169 165.288 80.4769 165.684 81.0289 166.188C81.5809 166.668 82.2049 167.328 82.9009 168.168ZM98.4738 187.608C97.7538 187.608 97.2498 187.392 96.9618 186.96C96.6978 186.528 96.5658 185.916 96.5658 185.124L96.6018 180.444L96.5658 179.724C96.4458 177.444 96.3858 175.56 96.3858 174.072L96.5298 169.788L96.5658 167.628C96.5658 166.908 96.5898 166.356 96.6378 165.972C96.6858 165.588 96.8418 165.276 97.1058 165.036C97.3698 164.796 97.7898 164.676 98.3658 164.676C99.0858 164.676 99.6018 164.856 99.9138 165.216C100.226 165.552 100.382 166.14 100.382 166.98L100.346 167.736C100.25 169.656 100.202 171.108 100.202 172.092C100.202 173.172 100.226 174.444 100.274 175.908C100.322 177.348 100.358 178.368 100.382 178.968C100.502 181.536 100.562 183.744 100.562 185.592C100.562 186.312 100.406 186.828 100.094 187.14C99.8058 187.452 99.2658 187.608 98.4738 187.608ZM130.073 186.96C129.761 186.552 129.509 186.168 129.317 185.808C129.149 185.424 128.933 184.896 128.669 184.224C128.237 183.144 127.853 182.352 127.517 181.848C126.053 182.064 124.781 182.172 123.701 182.172C123.173 182.172 122.573 182.16 121.901 182.136C121.253 182.112 120.749 182.088 120.389 182.064C119.141 181.968 118.145 181.92 117.401 181.92C117.089 182.304 116.837 182.712 116.645 183.144C116.477 183.552 116.285 184.068 116.069 184.692C115.709 185.748 115.361 186.552 115.025 187.104C114.809 187.464 114.389 187.644 113.765 187.644C113.237 187.644 112.745 187.536 112.289 187.32C111.857 187.08 111.641 186.756 111.641 186.348C111.833 185.436 112.133 184.476 112.541 183.468C112.973 182.436 113.585 181.068 114.377 179.364L115.817 175.836C116.609 173.82 117.329 172.092 117.977 170.652C118.649 169.212 119.525 167.508 120.605 165.54C120.749 165.252 120.989 165.012 121.325 164.82C121.661 164.604 122.033 164.496 122.441 164.496C122.897 164.496 123.221 164.532 123.413 164.604C123.629 164.652 123.797 164.748 123.917 164.892C124.037 165.012 124.217 165.276 124.457 165.684C125.273 166.956 125.969 168.264 126.545 169.608C127.145 170.952 127.901 172.812 128.813 175.188L129.569 177.096C130.241 178.824 130.817 180.276 131.297 181.452C131.801 182.604 132.353 183.66 132.953 184.62C133.337 185.244 133.529 185.676 133.529 185.916C133.529 186.492 133.349 186.936 132.989 187.248C132.653 187.536 132.209 187.68 131.657 187.68C130.961 187.68 130.433 187.44 130.073 186.96ZM126.473 178.896C126.137 178.2 125.693 177 125.141 175.296C124.949 174.672 124.805 174.24 124.709 174C123.965 171.84 123.221 170.124 122.477 168.852C122.021 170.004 121.349 171.492 120.461 173.316C119.909 174.348 119.153 176.196 118.193 178.86C119.729 179.052 121.469 179.148 123.413 179.148C124.757 179.148 125.777 179.064 126.473 178.896ZM146.441 164.64C147.473 164.64 148.073 165.18 148.241 166.26C148.529 168.3 148.673 170.808 148.673 173.784L148.637 178.32V179.688C148.637 181.176 148.601 182.556 148.529 183.828C149.537 183.924 150.437 183.972 151.229 183.972C151.925 183.972 152.849 183.948 154.001 183.9L156.197 183.864C156.869 183.864 157.421 183.9 157.853 183.972C158.309 184.02 158.777 184.164 159.257 184.404C159.761 184.62 160.013 185.028 160.013 185.628C160.013 186.108 159.857 186.54 159.545 186.924C159.257 187.308 158.909 187.5 158.501 187.5C158.213 187.5 157.757 187.452 157.133 187.356C156.005 187.188 154.925 187.104 153.893 187.104C153.557 187.104 153.173 187.128 152.741 187.176C152.333 187.2 152.033 187.212 151.841 187.212C151.265 187.284 150.689 187.32 150.113 187.32C148.937 187.32 147.881 187.26 146.945 187.14C146.465 187.092 145.985 186.912 145.505 186.6C145.025 186.264 144.785 185.784 144.785 185.16C144.785 184.416 144.821 183.492 144.893 182.388C144.989 180.276 145.037 178.392 145.037 176.736C145.037 175.776 145.001 174.744 144.929 173.64C144.857 172.536 144.809 171.816 144.785 171.48C144.617 169.512 144.533 167.832 144.533 166.44C144.533 165.816 144.677 165.36 144.965 165.072C145.277 164.784 145.769 164.64 146.441 164.64ZM202.87 180.984C202.87 182.112 202.606 183.084 202.078 183.9C201.574 184.692 200.734 185.424 199.558 186.096C198.766 186.576 197.842 186.936 196.786 187.176C195.73 187.416 194.662 187.536 193.582 187.536C192.478 187.536 191.11 187.176 189.478 186.456C188.302 185.88 187.366 185.196 186.67 184.404C185.998 183.612 185.662 182.748 185.662 181.812C185.662 181.164 185.806 180.696 186.094 180.408C186.382 180.096 186.85 179.94 187.498 179.94C187.834 179.94 188.182 180.084 188.542 180.372C188.902 180.636 189.118 180.9 189.19 181.164C189.526 182.148 190.114 182.904 190.954 183.432C191.794 183.936 192.838 184.188 194.086 184.188C195.526 184.188 196.726 183.924 197.686 183.396C198.67 182.868 199.162 182.16 199.162 181.272C199.162 180.408 198.634 179.64 197.578 178.968C196.522 178.296 195.442 177.828 194.338 177.564C192.754 177.132 191.35 176.616 190.126 176.016C188.854 175.392 187.906 174.624 187.282 173.712C186.658 172.8 186.346 171.84 186.346 170.832C186.346 169.896 186.67 168.948 187.318 167.988C187.966 167.004 188.734 166.296 189.622 165.864C190.102 165.624 190.918 165.372 192.07 165.108C193.246 164.82 194.098 164.676 194.626 164.676C195.322 164.676 196.09 164.76 196.93 164.928C197.77 165.096 198.454 165.336 198.982 165.648C200.038 166.248 200.818 166.788 201.322 167.268C201.826 167.748 202.078 168.348 202.078 169.068C202.078 169.5 201.91 169.884 201.574 170.22C201.262 170.556 200.71 170.724 199.918 170.724C199.726 170.724 199.534 170.64 199.342 170.472C199.15 170.304 198.91 170.052 198.622 169.716C198.238 169.212 197.866 168.876 197.506 168.708C197.146 168.588 196.618 168.456 195.922 168.312C195.25 168.168 194.65 168.096 194.122 168.096C193.546 168.096 192.946 168.216 192.322 168.456C191.698 168.696 191.17 169.044 190.738 169.5C190.33 169.932 190.126 170.436 190.126 171.012C190.126 171.492 190.342 171.912 190.774 172.272C191.23 172.608 191.77 172.884 192.394 173.1C193.114 173.388 193.894 173.64 194.734 173.856C195.838 174.192 196.738 174.504 197.434 174.792C198.154 175.056 198.85 175.392 199.522 175.8C200.698 176.496 201.55 177.216 202.078 177.96C202.606 178.68 202.87 179.688 202.87 180.984ZM212.645 166.512C212.645 165.48 213.401 164.964 214.913 164.964C215.561 164.964 216.797 164.988 218.621 165.036C220.637 165.132 222.161 165.18 223.193 165.18C224.033 165.18 225.053 165.132 226.253 165.036C227.069 164.988 227.585 164.964 227.801 164.964C229.121 165.012 230.237 165.252 231.149 165.684C231.413 165.804 231.629 165.948 231.797 166.116C231.965 166.284 232.049 166.56 232.049 166.944C232.049 167.472 231.881 167.928 231.545 168.312C231.209 168.672 230.801 168.852 230.321 168.852C229.793 168.852 229.025 168.78 228.017 168.636C227.129 168.468 226.349 168.384 225.677 168.384C225.029 168.384 224.537 168.396 224.201 168.42C224.129 169.212 224.093 171.108 224.093 174.108C224.093 177.684 224.201 181.308 224.417 184.98L224.489 186.024C224.489 187.008 223.925 187.5 222.797 187.5C221.909 187.5 221.309 187.296 220.997 186.888C220.685 186.456 220.529 185.808 220.529 184.944C220.529 183.24 220.481 181.116 220.385 178.572C220.289 176.46 220.241 174.96 220.241 174.072C220.241 173.472 220.313 171.636 220.457 168.564L216.245 168.6C214.901 168.6 213.965 168.48 213.437 168.24C212.909 167.976 212.645 167.4 212.645 166.512ZM252.841 164.604C254.449 164.604 255.913 164.808 257.233 165.216C258.553 165.6 259.633 166.176 260.473 166.944C261.985 168.312 263.041 169.812 263.641 171.444C264.265 173.052 264.577 175.116 264.577 177.636C264.577 178.164 264.505 178.644 264.361 179.076C264.241 179.508 264.037 180.06 263.749 180.732C263.389 181.476 263.173 182.064 263.101 182.496C262.621 183.336 261.829 184.14 260.725 184.908C259.645 185.676 258.469 186.3 257.197 186.78C255.925 187.26 254.809 187.5 253.849 187.5C249.217 187.5 245.917 185.916 243.949 182.748C243.397 181.86 242.965 180.936 242.653 179.976C242.365 179.016 242.221 178.08 242.221 177.168C242.221 174.72 242.653 172.596 243.517 170.796C244.405 168.972 245.629 167.556 247.189 166.548C248.125 165.996 249.097 165.54 250.105 165.18C251.137 164.796 252.049 164.604 252.841 164.604ZM245.965 177.276C245.965 178.572 246.253 179.64 246.829 180.48C247.429 181.32 248.341 182.232 249.565 183.216C250.573 183.6 251.257 183.852 251.617 183.972C251.977 184.068 252.385 184.116 252.841 184.116C255.265 184.116 257.197 183.456 258.637 182.136C260.077 180.816 260.797 179.004 260.797 176.7C260.797 174.876 260.593 173.436 260.185 172.38C259.777 171.324 259.045 170.376 257.989 169.536C257.437 169.08 256.729 168.744 255.865 168.528C255.025 168.312 254.113 168.204 253.129 168.204C251.641 168.204 250.357 168.648 249.277 169.536C248.197 170.4 247.369 171.528 246.793 172.92C246.241 174.312 245.965 175.764 245.965 177.276ZM294.515 167.52C294.875 167.952 295.127 168.3 295.271 168.564C295.415 168.828 295.487 169.08 295.487 169.32C295.487 169.608 295.295 169.944 294.911 170.328C294.551 170.712 294.191 170.904 293.831 170.904C293.351 170.904 292.967 170.832 292.679 170.688C292.391 170.544 292.151 170.316 291.959 170.004C291.815 169.788 291.479 169.512 290.951 169.176C290.423 168.816 289.823 168.516 289.151 168.276C288.479 168.012 287.855 167.88 287.279 167.88C286.343 167.88 285.371 168.108 284.363 168.564C283.379 168.996 282.587 169.56 281.987 170.256C281.483 170.88 281.027 171.816 280.619 173.064C280.211 174.288 280.007 175.452 280.007 176.556C280.007 177.948 280.307 179.232 280.907 180.408C281.531 181.56 282.419 182.484 283.571 183.18C284.747 183.876 286.151 184.224 287.783 184.224C288.671 184.224 289.427 184.092 290.051 183.828C290.699 183.564 291.395 183.18 292.139 182.676C292.715 182.316 293.159 182.052 293.471 181.884C293.807 181.716 294.179 181.632 294.587 181.632C294.971 181.632 295.331 181.8 295.667 182.136C296.027 182.472 296.207 182.808 296.207 183.144C296.207 183.768 295.835 184.392 295.091 185.016C294.179 185.76 293.339 186.324 292.571 186.708C291.803 187.068 291.011 187.308 290.195 187.428C289.403 187.524 288.383 187.572 287.135 187.572C285.479 187.572 283.799 187.176 282.095 186.384C280.415 185.592 279.119 184.632 278.207 183.504C277.727 182.808 277.259 181.812 276.803 180.516C276.371 179.196 276.155 178.128 276.155 177.312C276.155 175.272 276.503 173.304 277.199 171.408C277.895 169.512 278.891 167.988 280.187 166.836C281.051 166.044 282.119 165.468 283.391 165.108C284.687 164.724 285.935 164.532 287.135 164.532C288.671 164.532 289.991 164.784 291.095 165.288C292.223 165.792 293.363 166.536 294.515 167.52ZM327.404 184.764C327.644 184.884 327.824 185.04 327.944 185.232C328.088 185.424 328.16 185.7 328.16 186.06C328.16 186.516 327.98 186.888 327.62 187.176C327.284 187.44 326.888 187.572 326.432 187.572C325.904 187.572 325.304 187.44 324.632 187.176C323.288 186.576 321.968 185.472 320.672 183.864C319.4 182.232 317.864 179.892 316.064 176.844C314.696 177.9 313.304 178.884 311.888 179.796C311.888 180.3 311.9 180.888 311.924 181.56C311.972 182.208 311.996 182.688 311.996 183C312.044 184.392 312.068 185.316 312.068 185.772C312.068 186.18 311.936 186.576 311.672 186.96C311.408 187.32 311.012 187.5 310.484 187.5C309.716 187.5 309.164 187.38 308.828 187.14C308.492 186.876 308.288 186.504 308.216 186.024C308.024 184.824 307.928 183.672 307.928 182.568C307.928 181.32 308.024 179.52 308.216 177.168C308.408 174.912 308.504 173.22 308.504 172.092C308.504 171.66 308.48 171.036 308.432 170.22C308.408 169.572 308.336 168.972 308.216 168.42C308.12 167.652 308.072 167.112 308.072 166.8C308.072 166.032 308.24 165.48 308.576 165.144C308.912 164.808 309.428 164.64 310.124 164.64C310.652 164.64 311.084 164.796 311.42 165.108C311.78 165.396 311.984 165.792 312.032 166.296C312.152 168.336 312.212 169.908 312.212 171.012C312.188 171.612 312.14 172.476 312.068 173.604C312.02 174.708 311.972 175.404 311.924 175.692C312.74 175.236 314.336 173.928 316.712 171.768C319.112 169.584 320.816 167.868 321.824 166.62L322.292 166.08C322.676 165.576 323 165.228 323.264 165.036C323.528 164.844 323.888 164.748 324.344 164.748C324.8 164.748 325.208 164.904 325.568 165.216C325.952 165.504 326.144 165.852 326.144 166.26C326.144 167.052 325.736 167.856 324.92 168.672C322.928 170.736 320.936 172.656 318.944 174.432C321.752 179.688 324.572 183.132 327.404 184.764Z" fill="black"/>
<path d="M18.5642 183.9L17.3048 183.085L17.2987 183.095L18.5642 183.9ZM16.0442 186.096L15.3 184.794L15.2832 184.803L15.2667 184.813L16.0442 186.096ZM13.2722 187.176L13.6046 188.639L13.2722 187.176ZM5.96416 186.456L5.30436 187.803L5.33128 187.816L5.3587 187.828L5.96416 186.456ZM3.15616 184.404L2.0124 185.374L2.02082 185.384L2.02941 185.394L3.15616 184.404ZM2.58016 180.408L3.64082 181.469L3.66202 181.447L3.68236 181.425L2.58016 180.408ZM5.02816 180.372L4.09112 181.543L4.11571 181.563L4.14111 181.582L5.02816 180.372ZM5.67616 181.164L4.22901 181.559L4.24141 181.604L4.25663 181.649L5.67616 181.164ZM7.44016 183.432L6.6419 184.702L6.65507 184.71L6.66842 184.718L7.44016 183.432ZM14.1722 183.396L13.4629 182.074L13.4561 182.078L13.4493 182.082L14.1722 183.396ZM14.0642 178.968L14.8695 177.703L14.8695 177.703L14.0642 178.968ZM10.8242 177.564L10.4295 179.011L10.4523 179.017L10.4753 179.023L10.8242 177.564ZM6.61216 176.016L5.95152 177.363L5.95192 177.363L6.61216 176.016ZM3.76816 173.712L2.5302 174.559L2.5302 174.559L3.76816 173.712ZM3.80416 167.988L5.04743 168.827L5.05221 168.82L5.05691 168.813L3.80416 167.988ZM6.10816 165.864L6.76436 167.213L6.77169 167.209L6.77898 167.206L6.10816 165.864ZM8.55616 165.108L8.89122 166.57L8.90211 166.568L8.91296 166.565L8.55616 165.108ZM13.4162 164.928L13.7103 163.457L13.7103 163.457L13.4162 164.928ZM15.4682 165.648L14.7051 166.939L14.7161 166.946L14.7271 166.952L15.4682 165.648ZM18.0602 170.22L16.9995 169.159L16.9799 169.179L16.961 169.199L18.0602 170.22ZM15.8282 170.472L14.8404 171.601L14.8404 171.601L15.8282 170.472ZM15.1082 169.716L13.915 170.625L13.9412 170.659L13.9693 170.692L15.1082 169.716ZM13.9922 168.708L14.6265 167.349L14.5483 167.312L14.4665 167.285L13.9922 168.708ZM12.4082 168.312L12.0939 169.779L12.1042 169.781L12.4082 168.312ZM8.80816 168.456L9.34663 169.856L9.34663 169.856L8.80816 168.456ZM7.22416 169.5L6.13523 168.468L6.13364 168.47L7.22416 169.5ZM7.26016 172.272L6.29988 173.424L6.3343 173.453L6.37036 173.48L7.26016 172.272ZM8.88016 173.1L9.43724 171.707L9.40433 171.694L9.37082 171.683L8.88016 173.1ZM11.2202 173.856L11.6569 172.421L11.6255 172.411L11.5937 172.403L11.2202 173.856ZM13.9202 174.792L13.3466 176.178L13.375 176.19L13.4038 176.2L13.9202 174.792ZM16.0082 175.8L15.2297 177.082L15.2369 177.087L15.2442 177.091L16.0082 175.8ZM18.5642 177.96L17.3409 178.828L17.3477 178.838L17.3546 178.847L18.5642 177.96ZM17.8562 180.984C17.8562 181.87 17.6518 182.549 17.3048 183.085L19.8235 184.715C20.5325 183.619 20.8562 182.354 20.8562 180.984H17.8562ZM17.2987 183.095C16.9705 183.61 16.3518 184.193 15.3 184.794L16.7884 187.398C18.0885 186.655 19.1498 185.774 19.8297 184.705L17.2987 183.095ZM15.2667 184.813C14.6335 185.197 13.8647 185.503 12.9397 185.713L13.6046 188.639C14.7917 188.369 15.8708 187.955 16.8216 187.379L15.2667 184.813ZM12.9397 185.713C11.9925 185.929 11.036 186.036 10.0682 186.036V189.036C11.2603 189.036 12.4398 188.903 13.6046 188.639L12.9397 185.713ZM10.0682 186.036C9.26203 186.036 8.11444 185.765 6.56962 185.084L5.3587 187.828C7.07788 188.587 8.66628 189.036 10.0682 189.036V186.036ZM6.62396 185.109C5.58401 184.6 4.82086 184.026 4.28291 183.414L2.02941 185.394C2.88346 186.366 3.99231 187.16 5.30436 187.803L6.62396 185.109ZM4.29992 183.434C3.83092 182.881 3.64816 182.353 3.64816 181.812H0.648159C0.648159 183.143 1.13739 184.343 2.0124 185.374L4.29992 183.434ZM3.64816 181.812C3.64816 181.592 3.67338 181.47 3.68983 181.416C3.70433 181.369 3.70152 181.408 3.64082 181.469L1.5195 179.347C0.822596 180.044 0.648159 180.993 0.648159 181.812H3.64816ZM3.68236 181.425C3.62869 181.484 3.58853 181.491 3.6215 181.48C3.66315 181.466 3.77381 181.44 3.98416 181.44V178.44C3.13639 178.44 2.17042 178.64 1.47795 179.391L3.68236 181.425ZM3.98416 181.44C3.93292 181.44 3.90953 181.428 3.92363 181.434C3.94156 181.441 3.99783 181.469 4.09112 181.543L5.9652 179.201C5.43729 178.778 4.76809 178.44 3.98416 178.44V181.44ZM4.14111 181.582C4.19315 181.62 4.23102 181.651 4.25757 181.676C4.28422 181.7 4.29652 181.715 4.29922 181.718C4.30582 181.726 4.26028 181.673 4.22901 181.559L7.1233 180.769C6.92113 180.028 6.38896 179.51 5.9152 179.162L4.14111 181.582ZM4.25663 181.649C4.69791 182.941 5.49625 183.982 6.6419 184.702L8.23842 182.162C7.70406 181.826 7.3264 181.355 7.09568 180.679L4.25663 181.649ZM6.66842 184.718C7.79732 185.396 9.12568 185.688 10.5722 185.688V182.688C9.52263 182.688 8.763 182.476 8.2119 182.146L6.66842 184.718ZM10.5722 185.688C12.188 185.688 13.6548 185.392 14.895 184.71L13.4493 182.082C12.7695 182.456 11.8363 182.688 10.5722 182.688V185.688ZM14.8814 184.718C16.2045 184.008 17.1482 182.862 17.1482 181.272H14.1482C14.1482 181.458 14.1078 181.728 13.4629 182.074L14.8814 184.718ZM17.1482 181.272C17.1482 179.688 16.1479 178.516 14.8695 177.703L13.2588 180.233C14.0924 180.764 14.1482 181.128 14.1482 181.272H17.1482ZM14.8695 177.703C13.6874 176.95 12.4546 176.412 11.173 176.105L10.4753 179.023C11.4017 179.244 12.3289 179.642 13.2588 180.233L14.8695 177.703ZM11.2188 176.117C9.70845 175.705 8.39608 175.22 7.2724 174.669L5.95192 177.363C7.27624 178.012 8.77187 178.559 10.4295 179.011L11.2188 176.117ZM7.2728 174.669C6.16901 174.128 5.44837 173.511 5.00612 172.865L2.5302 174.559C3.33595 175.737 4.51131 176.656 5.95152 177.363L7.2728 174.669ZM5.00612 172.865C4.53564 172.177 4.33216 171.509 4.33216 170.832H1.33216C1.33216 172.171 1.75268 173.423 2.5302 174.559L5.00612 172.865ZM4.33216 170.832C4.33216 170.259 4.52678 169.599 5.04743 168.827L2.56089 167.149C1.78554 168.297 1.33216 169.533 1.33216 170.832H4.33216ZM5.05691 168.813C5.58549 168.01 6.16172 167.506 6.76436 167.213L5.45196 164.515C4.2786 165.086 3.31883 165.998 2.5514 167.163L5.05691 168.813ZM6.77898 167.206C7.08651 167.052 7.7508 166.831 8.89122 166.57L8.22109 163.646C7.05751 163.913 6.08981 164.196 5.43734 164.522L6.77898 167.206ZM8.91296 166.565C10.083 166.278 10.781 166.176 11.1122 166.176V163.176C10.3873 163.176 9.38136 163.362 8.19936 163.651L8.91296 166.565ZM11.1122 166.176C11.6899 166.176 12.3576 166.246 13.122 166.399L13.7103 163.457C12.7947 163.274 11.9265 163.176 11.1122 163.176V166.176ZM13.122 166.399C13.8572 166.546 14.3672 166.74 14.7051 166.939L16.2313 164.357C15.5131 163.932 14.6551 163.646 13.7103 163.457L13.122 166.399ZM14.7271 166.952C15.7431 167.529 16.4002 167.999 16.7737 168.354L18.8426 166.182C18.2081 165.577 17.3053 164.967 16.2092 164.344L14.7271 166.952ZM16.7737 168.354C16.9691 168.54 17.0642 168.743 17.0642 169.068H20.0642C20.0642 167.953 19.6553 166.956 18.8426 166.182L16.7737 168.354ZM17.0642 169.068C17.0642 169.078 17.0632 169.082 17.0635 169.081C17.0637 169.079 17.0642 169.078 17.0639 169.079C17.0636 169.08 17.0606 169.086 17.0518 169.099C17.0428 169.112 17.0267 169.132 16.9995 169.159L19.1208 171.281C19.7072 170.694 20.0642 169.939 20.0642 169.068H17.0642ZM16.961 169.199C17.0263 169.129 17.0625 169.136 16.9754 169.163C16.8826 169.191 16.7031 169.224 16.4042 169.224V172.224C17.3277 172.224 18.4148 172.042 19.1594 171.241L16.961 169.199ZM16.4042 169.224C16.6807 169.224 16.8257 169.352 16.8159 169.343L14.8404 171.601C15.2147 171.928 15.7436 172.224 16.4042 172.224V169.224ZM16.8159 169.343C16.7031 169.244 16.5169 169.055 16.247 168.74L13.9693 170.692C14.2754 171.049 14.5693 171.364 14.8404 171.601L16.8159 169.343ZM16.3013 168.807C15.8487 168.213 15.2996 167.663 14.6265 167.349L13.3578 170.067C13.4047 170.089 13.5997 170.211 13.915 170.625L16.3013 168.807ZM14.4665 167.285C14.0218 167.137 13.4253 166.991 12.7121 166.843L12.1042 169.781C12.7831 169.921 13.2425 170.039 13.5178 170.131L14.4665 167.285ZM12.7225 166.845C11.9762 166.685 11.2679 166.596 10.6082 166.596V169.596C11.0044 169.596 11.4961 169.651 12.0939 169.779L12.7225 166.845ZM10.6082 166.596C9.82101 166.596 9.03833 166.76 8.26969 167.056L9.34663 169.856C9.82599 169.672 10.2433 169.596 10.6082 169.596V166.596ZM8.26969 167.056C7.45076 167.371 6.73077 167.84 6.13523 168.468L8.31309 170.532C8.58155 170.248 8.91756 170.021 9.34663 169.856L8.26969 167.056ZM6.13364 168.47C5.47188 169.171 5.11216 170.04 5.11216 171.012H8.11216C8.11216 170.832 8.16044 170.693 8.31468 170.53L6.13364 168.47ZM5.11216 171.012C5.11216 172.016 5.5911 172.834 6.29988 173.424L8.22044 171.12C8.13006 171.044 8.10828 171.001 8.10809 171.001C8.10778 171 8.10969 171.004 8.11124 171.011C8.11276 171.017 8.11216 171.018 8.11216 171.012H5.11216ZM6.37036 173.48C6.9663 173.919 7.64573 174.26 8.38949 174.517L9.37082 171.683C8.86659 171.508 8.46602 171.297 8.14996 171.064L6.37036 173.48ZM8.32307 174.493C9.10942 174.807 9.95139 175.079 10.8466 175.309L11.5937 172.403C10.8089 172.201 10.0909 171.969 9.43724 171.707L8.32307 174.493ZM10.7834 175.291C11.8626 175.619 12.7123 175.916 13.3466 176.178L14.4937 173.406C13.736 173.092 12.7857 172.765 11.6569 172.421L10.7834 175.291ZM13.4038 176.2C14.0303 176.43 14.6387 176.723 15.2297 177.082L16.7866 174.518C16.0336 174.061 15.2501 173.682 14.4365 173.384L13.4038 176.2ZM15.2442 177.091C16.3211 177.728 16.9798 178.319 17.3409 178.828L19.7874 177.092C19.0925 176.113 18.0472 175.264 16.7721 174.509L15.2442 177.091ZM17.3546 178.847C17.6259 179.217 17.8562 179.869 17.8562 180.984H20.8562C20.8562 179.507 20.5584 178.143 19.7738 177.073L17.3546 178.847ZM45.619 165.216L45.176 166.649L45.188 166.653L45.2 166.656L45.619 165.216ZM48.859 166.944L47.8468 168.051L47.8526 168.056L48.859 166.944ZM52.027 171.444L50.6191 171.962L50.6238 171.974L50.6286 171.987L52.027 171.444ZM52.747 179.076L51.324 178.602L51.3119 178.638L51.3017 178.675L52.747 179.076ZM52.135 180.732L53.4852 181.385L53.5002 181.354L53.5137 181.323L52.135 180.732ZM51.487 182.496L52.7894 183.24L52.9225 183.007L52.9666 182.743L51.487 182.496ZM49.111 184.908L48.2544 183.677L48.248 183.681L48.2417 183.686L49.111 184.908ZM32.335 182.748L33.6092 181.956L33.6089 181.956L32.335 182.748ZM31.039 179.976L29.6023 180.407L29.6072 180.423L29.6125 180.44L31.039 179.976ZM31.903 170.796L30.5543 170.139L30.5507 170.147L31.903 170.796ZM35.575 166.548L34.813 165.256L34.7866 165.272L34.7609 165.288L35.575 166.548ZM38.491 165.18L38.9955 166.593L39.0048 166.589L39.0141 166.586L38.491 165.18ZM35.215 180.48L33.9779 181.328L33.986 181.34L33.9944 181.352L35.215 180.48ZM37.951 183.216L37.0112 184.385L37.1957 184.533L37.417 184.618L37.951 183.216ZM40.003 183.972L39.5287 185.395L39.5722 185.41L39.6165 185.421L40.003 183.972ZM47.023 182.136L48.0366 183.242L48.0366 183.242L47.023 182.136ZM48.571 172.38L47.1718 172.921L47.1718 172.921L48.571 172.38ZM46.375 169.536L45.4197 170.692L45.4304 170.701L45.4412 170.71L46.375 169.536ZM44.251 168.528L43.8774 169.981L43.8872 169.983L44.251 168.528ZM37.663 169.536L38.6 170.707L38.6079 170.701L38.6157 170.695L37.663 169.536ZM35.179 172.92L33.793 172.346L33.7887 172.357L33.7846 172.367L35.179 172.92ZM41.227 166.104C42.7088 166.104 44.0208 166.292 45.176 166.649L46.062 163.783C44.5772 163.324 42.9612 163.104 41.227 163.104V166.104ZM45.2 166.656C46.3446 166.989 47.2081 167.467 47.8468 168.051L49.8712 165.837C48.8299 164.885 47.5334 164.211 46.038 163.776L45.2 166.656ZM47.8526 168.056C49.2157 169.29 50.1162 170.594 50.6191 171.962L53.4349 170.926C52.7378 169.03 51.5263 167.334 49.8654 165.832L47.8526 168.056ZM50.6286 171.987C51.1621 173.361 51.463 175.224 51.463 177.636H54.463C54.463 175.008 54.1399 172.743 53.4254 170.901L50.6286 171.987ZM51.463 177.636C51.463 178.028 51.4096 178.345 51.324 178.602L54.17 179.55C54.3724 178.943 54.463 178.3 54.463 177.636H51.463ZM51.3017 178.675C51.2073 179.015 51.0321 179.498 50.7563 180.141L53.5137 181.323C53.8139 180.622 54.0468 180.001 54.1923 179.477L51.3017 178.675ZM50.7848 180.079C50.4073 180.859 50.1153 181.602 50.0074 182.249L52.9666 182.743C53.0027 182.526 53.1427 182.093 53.4852 181.385L50.7848 180.079ZM50.1846 181.752C49.8496 182.338 49.2425 182.989 48.2544 183.677L49.9676 186.139C51.1875 185.291 52.1644 184.334 52.7894 183.24L50.1846 181.752ZM48.2417 183.686C47.2694 184.377 46.208 184.941 45.0534 185.377L46.1126 188.183C47.502 187.659 48.7926 186.975 49.9803 186.13L48.2417 183.686ZM45.0534 185.377C43.8858 185.817 42.9557 186 42.235 186V189C43.4343 189 44.7362 188.703 46.1126 188.183L45.0534 185.377ZM42.235 186C37.9772 186 35.235 184.574 33.6092 181.956L31.0608 183.54C33.371 187.258 37.2288 189 42.235 189V186ZM33.6089 181.956C33.1186 181.167 32.7388 180.353 32.4656 179.512L29.6125 180.44C29.9632 181.519 30.4474 182.553 31.0611 183.54L33.6089 181.956ZM32.4757 179.545C32.2256 178.711 32.107 177.92 32.107 177.168H29.107C29.107 178.24 29.2764 179.321 29.6023 180.407L32.4757 179.545ZM32.107 177.168C32.107 174.895 32.508 173.002 33.2553 171.445L30.5507 170.147C29.57 172.19 29.107 174.545 29.107 177.168H32.107ZM33.2517 171.453C34.0313 169.851 35.08 168.654 36.3891 167.808L34.7609 165.288C32.9501 166.458 31.5507 168.093 30.5543 170.139L33.2517 171.453ZM36.337 167.84C37.1924 167.336 38.0783 166.92 38.9955 166.593L37.9865 163.767C36.8877 164.16 35.8296 164.656 34.813 165.256L36.337 167.84ZM39.0141 166.586C39.9393 166.242 40.6684 166.104 41.227 166.104V163.104C40.2016 163.104 39.1067 163.35 37.9679 163.774L39.0141 166.586ZM32.851 177.276C32.851 178.792 33.1893 180.178 33.9779 181.328L36.4521 179.632C36.0887 179.102 35.851 178.352 35.851 177.276H32.851ZM33.9944 181.352C34.7039 182.345 35.7298 183.355 37.0112 184.385L38.8908 182.047C37.7242 181.109 36.9261 180.295 36.4356 179.608L33.9944 181.352ZM37.417 184.618C38.4213 185 39.134 185.263 39.5287 185.395L40.4773 182.549C40.152 182.441 39.4967 182.2 38.485 181.814L37.417 184.618ZM39.6165 185.421C40.127 185.557 40.6685 185.616 41.227 185.616V182.616C40.8735 182.616 40.599 182.579 40.3895 182.523L39.6165 185.421ZM41.227 185.616C43.9318 185.616 46.2574 184.873 48.0366 183.242L46.0094 181.03C44.9086 182.039 43.3702 182.616 41.227 182.616V185.616ZM48.0366 183.242C49.8424 181.586 50.683 179.342 50.683 176.7H47.683C47.683 178.666 47.0836 180.046 46.0094 181.03L48.0366 183.242ZM50.683 176.7C50.683 174.79 50.4731 173.141 49.9702 171.839L47.1718 172.921C47.4849 173.731 47.683 174.962 47.683 176.7H50.683ZM49.9702 171.839C49.4491 170.491 48.5332 169.336 47.3088 168.362L45.4412 170.71C46.3288 171.416 46.8769 172.157 47.1718 172.921L49.9702 171.839ZM47.3303 168.38C46.5691 167.751 45.6442 167.33 44.6148 167.073L43.8872 169.983C44.5858 170.158 45.0769 170.409 45.4197 170.692L47.3303 168.38ZM44.6246 167.075C43.6474 166.824 42.6084 166.704 41.515 166.704V169.704C42.3896 169.704 43.1746 169.8 43.8774 169.981L44.6246 167.075ZM41.515 166.704C39.7036 166.704 38.0768 167.254 36.7103 168.377L38.6157 170.695C39.4092 170.042 40.3505 169.704 41.515 169.704V166.704ZM36.726 168.365C35.4309 169.401 34.4569 170.742 33.793 172.346L36.565 173.494C37.0531 172.314 37.7351 171.399 38.6 170.707L36.726 168.365ZM33.7846 172.367C33.1622 173.937 32.851 175.577 32.851 177.276H35.851C35.851 175.951 36.0919 174.687 36.5734 173.473L33.7846 172.367ZM82.9009 168.168L81.7459 169.125L81.7486 169.128L82.9009 168.168ZM83.6569 169.212L82.3401 169.93L82.3401 169.93L83.6569 169.212ZM83.2969 170.976L82.2363 169.915L82.2192 169.932L82.2026 169.95L83.2969 170.976ZM81.0649 171.336L81.7358 169.994L81.7358 169.994L81.0649 171.336ZM80.3449 170.652L81.6224 169.866L81.6174 169.858L81.6122 169.849L80.3449 170.652ZM78.7609 168.744L77.7221 169.826L77.7336 169.837L77.7454 169.848L78.7609 168.744ZM70.3369 170.256L69.1981 169.28L69.1869 169.293L69.176 169.306L70.3369 170.256ZM70.3369 181.92L69.2058 182.905L69.2113 182.911L69.2168 182.918L70.3369 181.92ZM78.6529 183.72L79.0812 185.158L79.0908 185.155L79.1004 185.152L78.6529 183.72ZM81.3889 181.992L82.5327 182.962L84.6289 180.492H81.3889V181.992ZM81.3529 181.992L80.264 180.96L77.8656 183.492H81.3529V181.992ZM84.0529 181.812L82.9923 182.873L83.0106 182.891L83.0295 182.909L84.0529 181.812ZM84.4129 183.792L83.0283 183.215L83.015 183.247L83.0033 183.279L84.4129 183.792ZM83.8369 184.692L84.9457 185.702L84.961 185.685L84.9758 185.668L83.8369 184.692ZM80.0569 186.96L80.4477 188.408L80.4554 188.406L80.4631 188.404L80.0569 186.96ZM70.2289 186.42L69.5321 187.748L69.541 187.753L70.2289 186.42ZM66.5929 183.504L65.3581 184.356L65.3926 184.406L65.4309 184.453L66.5929 183.504ZM65.1889 180.516L63.7633 180.983L63.7685 180.998L63.774 181.014L65.1889 180.516ZM65.4769 171.372L64.0575 170.887L64.0539 170.898L65.4769 171.372ZM68.3569 166.836L69.3522 167.958L69.3607 167.951L69.3691 167.943L68.3569 166.836ZM71.9929 165.108L71.6395 163.65L71.6395 163.65L71.9929 165.108ZM79.0489 165L78.4688 166.383L78.4954 166.394L78.5223 166.404L79.0489 165ZM81.0289 166.188L80.0175 167.296L80.031 167.308L80.0447 167.32L81.0289 166.188ZM81.7486 169.128C82.09 169.538 82.2672 169.797 82.3401 169.93L84.9738 168.494C84.7587 168.099 84.4319 167.662 84.0533 167.208L81.7486 169.128ZM82.3401 169.93C82.3667 169.979 82.3751 170.006 82.3767 170.011C82.3779 170.015 82.3729 170 82.3729 169.968H85.3729C85.3729 169.421 85.2081 168.923 84.9738 168.494L82.3401 169.93ZM82.3729 169.968C82.3729 169.776 82.4359 169.675 82.4266 169.692C82.4237 169.697 82.4099 169.72 82.3776 169.76C82.3456 169.8 82.2998 169.852 82.2363 169.915L84.3576 172.037C84.8004 171.594 85.3729 170.885 85.3729 169.968H82.3729ZM82.2026 169.95C82.1548 170.001 82.1169 170.035 82.0899 170.057C82.063 170.078 82.0498 170.085 82.0511 170.084C82.0529 170.084 82.0696 170.075 82.1004 170.067C82.1321 170.058 82.172 170.052 82.2169 170.052V173.052C83.1517 173.052 83.8798 172.547 84.3912 172.002L82.2026 169.95ZM82.2169 170.052C82.0496 170.052 81.9284 170.039 81.8454 170.024C81.7623 170.008 81.7319 169.992 81.7358 169.994L80.3941 172.678C80.9674 172.964 81.6089 173.052 82.2169 173.052V170.052ZM81.7358 169.994C81.7309 169.992 81.6886 169.973 81.6224 169.866L79.0675 171.438C79.3853 171.955 79.823 172.392 80.3941 172.678L81.7358 169.994ZM81.6122 169.849C81.089 169.023 80.4775 168.285 79.7765 167.64L77.7454 169.848C78.2443 170.307 78.6888 170.841 79.0777 171.455L81.6122 169.849ZM79.7997 167.662C78.8634 166.763 77.6572 166.38 76.3489 166.38V169.38C77.0567 169.38 77.4585 169.573 77.7221 169.826L79.7997 167.662ZM76.3489 166.38C75.1383 166.38 73.8532 166.659 72.5133 167.158L73.5606 169.97C74.6687 169.557 75.5916 169.38 76.3489 169.38V166.38ZM72.5133 167.158C71.1563 167.664 69.9997 168.345 69.1981 169.28L71.4758 171.232C71.8262 170.823 72.4696 170.376 73.5606 169.97L72.5133 167.158ZM69.176 169.306C67.6057 171.225 66.8929 173.692 66.8929 176.556H69.8929C69.8929 174.188 70.4761 172.455 71.4979 171.206L69.176 169.306ZM66.8929 176.556C66.8929 178.983 67.6573 181.127 69.2058 182.905L71.4681 180.935C70.4245 179.737 69.8929 178.305 69.8929 176.556H66.8929ZM69.2168 182.918C70.8743 184.779 73.0124 185.724 75.5209 185.724V182.724C73.8535 182.724 72.5356 182.133 71.4571 180.922L69.2168 182.918ZM75.5209 185.724C76.6543 185.724 77.8443 185.526 79.0812 185.158L78.2247 182.282C77.2056 182.586 76.3075 182.724 75.5209 182.724V185.724ZM79.1004 185.152C80.4787 184.721 81.6488 184.004 82.5327 182.962L80.2452 181.022C79.7851 181.564 79.1312 181.999 78.2055 182.288L79.1004 185.152ZM81.3889 180.492H81.3529V183.492H81.3889V180.492ZM82.4419 183.024C82.5807 182.877 82.7221 182.808 82.9729 182.808V179.808C81.9277 179.808 80.9892 180.195 80.264 180.96L82.4419 183.024ZM82.9729 182.808C82.9586 182.808 82.9422 182.806 82.926 182.803C82.91 182.799 82.8999 182.795 82.8966 182.793C82.8905 182.79 82.9243 182.805 82.9923 182.873L85.1136 180.751C84.5671 180.205 83.8448 179.808 82.9729 179.808V182.808ZM83.0295 182.909C83.0744 182.951 83.103 182.983 83.1199 183.004C83.1368 183.025 83.1397 183.032 83.1357 183.024C83.1315 183.016 83.1203 182.993 83.1103 182.956C83.1001 182.918 83.0929 182.872 83.0929 182.82H86.0929C86.0929 181.907 85.5977 181.202 85.0764 180.715L83.0295 182.909ZM83.0929 182.82C83.0929 183.012 83.0614 183.136 83.0283 183.215L85.7976 184.369C86.0045 183.872 86.0929 183.348 86.0929 182.82H83.0929ZM83.0033 183.279C82.994 183.305 82.9284 183.447 82.6981 183.716L84.9758 185.668C85.3215 185.265 85.6399 184.807 85.8226 184.305L83.0033 183.279ZM82.7281 183.682C81.9504 184.535 80.9424 185.153 79.6508 185.516L80.4631 188.404C82.2435 187.903 83.7554 187.009 84.9457 185.702L82.7281 183.682ZM79.6662 185.512C78.3079 185.878 76.7153 186.072 74.8729 186.072V189.072C76.9186 189.072 78.782 188.858 80.4477 188.408L79.6662 185.512ZM74.8729 186.072C73.5143 186.072 72.2013 185.75 70.9169 185.087L69.541 187.753C71.2326 188.626 73.0155 189.072 74.8729 189.072V186.072ZM70.9258 185.092C69.6248 184.409 68.5761 183.561 67.7549 182.555L65.4309 184.453C66.5298 185.799 67.9051 186.895 69.5321 187.748L70.9258 185.092ZM67.8278 182.652C67.4553 182.112 67.0396 181.256 66.6039 180.018L63.774 181.014C64.2503 182.368 64.7706 183.504 65.3581 184.356L67.8278 182.652ZM66.6145 180.049C66.2024 178.79 66.0409 177.897 66.0409 177.312H63.0409C63.0409 178.359 63.3115 179.602 63.7633 180.983L66.6145 180.049ZM66.0409 177.312C66.0409 175.376 66.3298 173.557 66.9 171.846L64.0539 170.898C63.376 172.931 63.0409 175.072 63.0409 177.312H66.0409ZM66.8963 171.857C67.4755 170.163 68.3064 168.886 69.3522 167.958L67.3617 165.714C65.8635 167.042 64.7744 168.789 64.0575 170.887L66.8963 171.857ZM69.3691 167.943C69.9593 167.403 70.9084 166.914 72.3463 166.566L71.6395 163.65C69.9095 164.07 68.4346 164.733 67.3448 165.729L69.3691 167.943ZM72.3463 166.566C73.8405 166.204 75.172 166.032 76.3489 166.032V163.032C74.8859 163.032 73.3134 163.244 71.6395 163.65L72.3463 166.566ZM76.3489 166.032C77.2643 166.032 77.9558 166.168 78.4688 166.383L79.629 163.617C78.6541 163.208 77.5456 163.032 76.3489 163.032V166.032ZM78.5223 166.404C79.1287 166.632 79.6199 166.933 80.0175 167.296L82.0403 165.08C81.334 164.435 80.5052 163.944 79.5756 163.596L78.5223 166.404ZM80.0447 167.32C80.5131 167.727 81.0793 168.321 81.7459 169.125L84.056 167.211C83.3306 166.335 82.6488 165.609 82.0132 165.056L80.0447 167.32ZM96.9618 186.96L95.6818 187.742L95.6973 187.767L95.7137 187.792L96.9618 186.96ZM96.5658 185.124L95.0658 185.112V185.124H96.5658ZM96.6018 180.444L98.1017 180.456L98.102 180.412L98.0999 180.369L96.6018 180.444ZM96.5658 179.724L98.0639 179.649L98.0637 179.645L96.5658 179.724ZM96.3858 174.072L94.8866 174.022L94.8858 174.047V174.072H96.3858ZM96.5298 169.788L98.0289 169.838L98.0293 169.826L98.0295 169.813L96.5298 169.788ZM96.5658 167.628L98.0655 167.653L98.0658 167.64V167.628H96.5658ZM96.6378 165.972L95.1493 165.786L95.1493 165.786L96.6378 165.972ZM97.1058 165.036L98.1148 166.146L98.1148 166.146L97.1058 165.036ZM99.9138 165.216L98.7802 166.198L98.7971 166.218L98.8146 166.237L99.9138 165.216ZM100.382 166.98L101.88 167.051L101.882 167.016V166.98H100.382ZM100.346 167.736L101.844 167.811L101.844 167.807L100.346 167.736ZM100.274 175.908L98.7746 175.957L98.7746 175.958L100.274 175.908ZM100.382 178.968L98.8829 179.028L98.8834 179.038L100.382 178.968ZM100.094 187.14L99.0331 186.079L99.0119 186.101L98.9916 186.123L100.094 187.14ZM98.4738 186.108C98.2564 186.108 98.1633 186.074 98.1466 186.067C98.1407 186.065 98.1507 186.068 98.1681 186.083C98.186 186.097 98.2005 186.114 98.2098 186.128L95.7137 187.792C96.3798 188.791 97.4641 189.108 98.4738 189.108V186.108ZM98.2417 186.178C98.1812 186.079 98.0658 185.783 98.0658 185.124H95.0658C95.0658 186.049 95.2143 186.977 95.6818 187.742L98.2417 186.178ZM98.0657 185.136L98.1017 180.456L95.1018 180.432L95.0658 185.112L98.0657 185.136ZM98.0999 180.369L98.0639 179.649L95.0676 179.799L95.1036 180.519L98.0999 180.369ZM98.0637 179.645C97.9444 177.379 97.8858 175.524 97.8858 174.072H94.8858C94.8858 175.596 94.9471 177.509 95.0678 179.803L98.0637 179.645ZM97.8849 174.122L98.0289 169.838L95.0306 169.738L94.8866 174.022L97.8849 174.122ZM98.0295 169.813L98.0655 167.653L95.066 167.603L95.03 169.763L98.0295 169.813ZM98.0658 167.628C98.0658 166.927 98.0898 166.449 98.1262 166.158L95.1493 165.786C95.0897 166.263 95.0658 166.889 95.0658 167.628H98.0658ZM98.1262 166.158C98.1289 166.137 98.132 166.124 98.1334 166.119C98.1348 166.115 98.1349 166.116 98.1324 166.121C98.1298 166.126 98.1262 166.132 98.1217 166.138C98.1174 166.144 98.1144 166.146 98.1148 166.146L96.0967 163.926C95.5446 164.428 95.2377 165.079 95.1493 165.786L98.1262 166.158ZM98.1148 166.146C98.042 166.212 97.9938 166.219 98.0308 166.208C98.072 166.197 98.1756 166.176 98.3658 166.176V163.176C97.6334 163.176 96.7636 163.32 96.0967 163.926L98.1148 166.146ZM98.3658 166.176C98.6078 166.176 98.7409 166.207 98.7987 166.227C98.8462 166.244 98.8197 166.244 98.7802 166.198L101.047 164.234C100.331 163.407 99.2965 163.176 98.3658 163.176V166.176ZM98.8146 166.237C98.7577 166.175 98.7801 166.163 98.8149 166.294C98.8497 166.425 98.8818 166.644 98.8818 166.98H101.882C101.882 166.044 101.726 164.963 101.013 164.195L98.8146 166.237ZM98.8835 166.909L98.8475 167.665L101.844 167.807L101.88 167.051L98.8835 166.909ZM98.8476 167.661C98.7513 169.587 98.7018 171.069 98.7018 172.092H101.702C101.702 171.147 101.748 169.725 101.844 167.811L98.8476 167.661ZM98.7018 172.092C98.7018 173.193 98.7262 174.482 98.7746 175.957L101.773 175.859C101.725 174.406 101.702 173.151 101.702 172.092H98.7018ZM98.7746 175.958C98.8226 177.398 98.8587 178.422 98.883 179.028L101.881 178.908C101.857 178.314 101.821 177.298 101.773 175.858L98.7746 175.958ZM98.8834 179.038C99.0027 181.591 99.0618 183.774 99.0618 185.592H102.062C102.062 183.714 102.001 181.481 101.88 178.898L98.8834 179.038ZM99.0618 185.592C99.0618 185.851 99.0328 186.006 99.0089 186.085C98.9868 186.158 98.9796 186.133 99.0331 186.079L101.154 188.201C101.881 187.474 102.062 186.47 102.062 185.592H99.0618ZM98.9916 186.123C99.0841 186.022 99.1463 186.024 99.0564 186.05C98.9644 186.077 98.7816 186.108 98.4738 186.108V189.108C99.3552 189.108 100.459 188.956 101.196 188.157L98.9916 186.123ZM130.073 186.96L131.273 186.06L131.265 186.049L130.073 186.96ZM129.317 185.808L127.943 186.409L127.966 186.463L127.994 186.514L129.317 185.808ZM128.669 184.224L130.065 183.676L130.062 183.667L128.669 184.224ZM127.517 181.848L128.765 181.016L128.238 180.225L127.298 180.364L127.517 181.848ZM121.901 182.136L121.846 183.635L121.848 183.635L121.901 182.136ZM120.389 182.064L120.274 183.56L120.282 183.56L120.29 183.561L120.389 182.064ZM117.401 181.92V180.42H116.687L116.237 180.974L117.401 181.92ZM116.645 183.144L115.275 182.535L115.266 182.554L115.258 182.573L116.645 183.144ZM116.069 184.692L114.652 184.201L114.65 184.208L116.069 184.692ZM115.025 187.104L113.744 186.324L113.739 186.332L115.025 187.104ZM112.289 187.32L111.561 188.631L111.603 188.655L111.647 188.676L112.289 187.32ZM111.641 186.348L110.173 186.039L110.141 186.192V186.348H111.641ZM112.541 183.468L111.158 182.889L111.154 182.897L111.151 182.905L112.541 183.468ZM114.377 179.364L115.738 179.996L115.753 179.964L115.766 179.931L114.377 179.364ZM115.817 175.836L117.206 176.403L117.21 176.394L117.213 176.384L115.817 175.836ZM117.977 170.652L116.618 170.018L116.614 170.027L116.609 170.036L117.977 170.652ZM120.605 165.54L121.92 166.262L121.934 166.236L121.947 166.211L120.605 165.54ZM121.325 164.82L122.07 166.122L122.104 166.103L122.136 166.082L121.325 164.82ZM123.413 164.604L122.887 166.008L122.985 166.045L123.088 166.068L123.413 164.604ZM123.917 164.892L122.765 165.852L122.809 165.905L122.857 165.953L123.917 164.892ZM124.457 165.684L123.164 166.445L123.179 166.47L123.195 166.494L124.457 165.684ZM126.545 169.608L125.167 170.199L125.171 170.209L125.176 170.219L126.545 169.608ZM128.813 175.188L127.413 175.726L127.416 175.733L127.419 175.741L128.813 175.188ZM129.569 177.096L130.967 176.552L130.964 176.543L129.569 177.096ZM131.297 181.452L129.909 182.019L129.916 182.036L129.923 182.053L131.297 181.452ZM132.953 184.62L134.231 183.834L134.225 183.825L132.953 184.62ZM132.989 187.248L133.966 188.387L133.972 188.382L132.989 187.248ZM126.473 178.896L126.825 180.354L128.632 179.918L127.824 178.244L126.473 178.896ZM125.141 175.296L123.708 175.737L123.711 175.748L123.714 175.758L125.141 175.296ZM124.709 174L123.291 174.488L123.303 174.523L123.317 174.557L124.709 174ZM122.477 168.852L123.772 168.095L122.217 165.435L121.083 168.3L122.477 168.852ZM120.461 173.316L121.784 174.023L121.797 173.998L121.81 173.973L120.461 173.316ZM118.193 178.86L116.782 178.351L116.146 180.116L118.007 180.348L118.193 178.86ZM131.265 186.049C130.99 185.69 130.786 185.375 130.641 185.102L127.994 186.514C128.232 186.961 128.532 187.414 128.882 187.871L131.265 186.049ZM130.692 185.207C130.535 184.848 130.327 184.34 130.065 183.676L127.273 184.772C127.54 185.452 127.764 186 127.943 186.409L130.692 185.207ZM130.062 183.667C129.62 182.561 129.19 181.653 128.765 181.016L126.269 182.68C126.517 183.051 126.855 183.727 127.277 184.781L130.062 183.667ZM127.298 180.364C125.882 180.573 124.687 180.672 123.701 180.672V183.672C124.876 183.672 126.224 183.555 127.736 183.332L127.298 180.364ZM123.701 180.672C123.195 180.672 122.614 180.66 121.955 180.637L121.848 183.635C122.533 183.66 123.151 183.672 123.701 183.672V180.672ZM121.957 180.637C121.314 180.613 120.827 180.59 120.489 180.567L120.29 183.561C120.671 183.586 121.193 183.611 121.846 183.635L121.957 180.637ZM120.504 180.568C119.24 180.471 118.201 180.42 117.401 180.42V183.42C118.09 183.42 119.043 183.465 120.274 183.56L120.504 180.568ZM116.237 180.974C115.846 181.456 115.523 181.976 115.275 182.535L118.016 183.753C118.152 183.448 118.333 183.152 118.565 182.866L116.237 180.974ZM115.258 182.573C115.075 183.017 114.873 183.562 114.652 184.201L117.487 185.183C117.698 184.574 117.879 184.087 118.032 183.715L115.258 182.573ZM114.65 184.208C114.303 185.224 113.997 185.909 113.744 186.324L116.307 187.884C116.726 187.195 117.115 186.272 117.489 185.176L114.65 184.208ZM113.739 186.332C113.769 186.283 113.808 186.236 113.854 186.197C113.899 186.159 113.938 186.139 113.957 186.13C113.976 186.122 113.973 186.126 113.94 186.132C113.907 186.138 113.851 186.144 113.765 186.144V189.144C114.639 189.144 115.707 188.883 116.312 187.876L113.739 186.332ZM113.765 186.144C113.449 186.144 113.177 186.081 112.931 185.964L111.647 188.676C112.313 188.991 113.026 189.144 113.765 189.144V186.144ZM113.018 186.009C112.956 185.974 112.996 185.982 113.051 186.065C113.079 186.107 113.104 186.158 113.12 186.214C113.137 186.269 113.141 186.316 113.141 186.348H110.141C110.141 187.425 110.772 188.193 111.561 188.631L113.018 186.009ZM113.109 186.657C113.28 185.845 113.552 184.97 113.932 184.031L111.151 182.905C110.715 183.982 110.386 185.027 110.173 186.039L113.109 186.657ZM113.925 184.047C114.346 183.041 114.949 181.693 115.738 179.996L113.017 178.732C112.222 180.443 111.6 181.831 111.158 182.889L113.925 184.047ZM115.766 179.931L117.206 176.403L114.429 175.269L112.989 178.797L115.766 179.931ZM117.213 176.384C118 174.383 118.71 172.679 119.345 171.268L116.609 170.036C115.949 171.505 115.219 173.257 114.421 175.288L117.213 176.384ZM119.337 171.286C119.99 169.885 120.85 168.212 121.92 166.262L119.29 164.818C118.2 166.804 117.308 168.539 116.618 170.018L119.337 171.286ZM121.947 166.211C121.943 166.219 121.942 166.217 121.954 166.205C121.968 166.191 122.001 166.161 122.07 166.122L120.581 163.518C120.041 163.826 119.565 164.267 119.264 164.869L121.947 166.211ZM122.136 166.082C122.225 166.025 122.314 165.996 122.441 165.996V162.996C121.752 162.996 121.098 163.183 120.514 163.558L122.136 166.082ZM122.441 165.996C122.634 165.996 122.77 166.004 122.861 166.014C122.905 166.019 122.929 166.023 122.937 166.025C122.947 166.027 122.927 166.024 122.887 166.008L123.94 163.2C123.474 163.025 122.911 162.996 122.441 162.996V165.996ZM123.088 166.068C123.07 166.064 123.021 166.051 122.957 166.014C122.891 165.976 122.823 165.922 122.765 165.852L125.07 163.932C124.701 163.489 124.218 163.246 123.739 163.14L123.088 166.068ZM122.857 165.953C122.829 165.925 122.822 165.914 122.837 165.932C122.849 165.949 122.871 165.978 122.903 166.025C122.968 166.12 123.054 166.257 123.164 166.445L125.75 164.923C125.522 164.535 125.253 164.107 124.978 163.831L122.857 165.953ZM123.195 166.494C123.968 167.699 124.624 168.933 125.167 170.199L127.924 169.017C127.314 167.595 126.579 166.213 125.72 164.874L123.195 166.494ZM125.176 170.219C125.76 171.528 126.505 173.359 127.413 175.726L130.214 174.65C129.298 172.265 128.531 170.376 127.915 168.997L125.176 170.219ZM127.419 175.741L128.175 177.649L130.964 176.543L130.208 174.635L127.419 175.741ZM128.171 177.64C128.845 179.372 129.424 180.833 129.909 182.019L132.686 180.885C132.21 179.719 131.638 178.276 130.967 176.552L128.171 177.64ZM129.923 182.053C130.453 183.265 131.039 184.387 131.681 185.415L134.225 183.825C133.668 182.933 133.149 181.943 132.672 180.851L129.923 182.053ZM131.676 185.406C131.85 185.689 131.956 185.89 132.015 186.021C132.043 186.086 132.052 186.114 132.051 186.112C132.05 186.11 132.046 186.093 132.041 186.064C132.036 186.035 132.029 185.984 132.029 185.916H135.029C135.029 185.468 134.871 185.06 134.756 184.803C134.622 184.502 134.441 184.175 134.231 183.834L131.676 185.406ZM132.029 185.916C132.029 186.049 132.009 186.107 132.004 186.117C132.002 186.123 132.002 186.122 132.005 186.117C132.008 186.113 132.01 186.112 132.007 186.114L133.972 188.382C134.729 187.725 135.029 186.828 135.029 185.916H132.029ZM132.013 186.109C132.011 186.111 131.943 186.18 131.657 186.18V189.18C132.476 189.18 133.295 188.961 133.966 188.387L132.013 186.109ZM131.657 186.18C131.348 186.18 131.302 186.099 131.273 186.06L128.873 187.86C129.564 188.781 130.575 189.18 131.657 189.18V186.18ZM127.824 178.244C127.537 177.649 127.119 176.535 126.568 174.834L123.714 175.758C124.267 177.465 124.738 178.751 125.122 179.548L127.824 178.244ZM126.575 174.855C126.384 174.233 126.224 173.747 126.102 173.443L123.317 174.557C123.387 174.733 123.515 175.111 123.708 175.737L126.575 174.855ZM126.128 173.511C125.367 171.303 124.585 169.485 123.772 168.095L121.183 169.609C121.857 170.763 122.564 172.377 123.291 174.488L126.128 173.511ZM121.083 168.3C120.647 169.401 119.993 170.851 119.113 172.659L121.81 173.973C122.706 172.133 123.396 170.607 123.872 169.404L121.083 168.3ZM119.139 172.609C118.53 173.747 117.742 175.688 116.782 178.351L119.604 179.369C120.565 176.704 121.289 174.949 121.784 174.023L119.139 172.609ZM118.007 180.348C119.618 180.55 121.422 180.648 123.413 180.648V177.648C121.517 177.648 119.84 177.554 118.379 177.372L118.007 180.348ZM123.413 180.648C124.792 180.648 125.954 180.564 126.825 180.354L126.121 177.438C125.601 177.564 124.723 177.648 123.413 177.648V180.648ZM148.241 166.26L149.726 166.05L149.724 166.04L149.723 166.029L148.241 166.26ZM148.673 173.784L150.173 173.796V173.784H148.673ZM148.637 178.32L147.137 178.308V178.32H148.637ZM148.529 183.828L147.031 183.743L146.949 185.184L148.386 185.321L148.529 183.828ZM154.001 183.9L153.976 182.4L153.957 182.401L153.938 182.401L154.001 183.9ZM156.197 183.864V182.364H156.184L156.172 182.364L156.197 183.864ZM157.853 183.972L157.606 185.452L157.651 185.459L157.696 185.464L157.853 183.972ZM159.257 184.404L158.586 185.746L158.625 185.765L158.666 185.783L159.257 184.404ZM159.545 186.924L158.38 185.978L158.362 186.001L158.345 186.024L159.545 186.924ZM157.133 187.356L157.361 185.873L157.354 185.872L157.133 187.356ZM152.741 187.176L152.829 188.673L152.868 188.671L152.906 188.667L152.741 187.176ZM151.841 187.212V185.712H151.747L151.655 185.724L151.841 187.212ZM146.945 187.14L147.135 185.652L147.115 185.65L147.094 185.647L146.945 187.14ZM145.505 186.6L144.644 187.829L144.666 187.844L144.687 187.858L145.505 186.6ZM144.893 182.388L146.389 182.486L146.39 182.471L146.391 182.456L144.893 182.388ZM144.929 173.64L143.432 173.738L143.432 173.738L144.929 173.64ZM144.785 171.48L146.281 171.373L146.28 171.363L146.279 171.352L144.785 171.48ZM144.965 165.072L143.947 163.97L143.925 163.99L143.904 164.011L144.965 165.072ZM146.441 166.14C146.57 166.14 146.637 166.157 146.662 166.165C146.683 166.172 146.675 166.173 146.661 166.16C146.627 166.129 146.709 166.171 146.758 166.491L149.723 166.029C149.605 165.269 149.303 164.501 148.668 163.93C148.023 163.349 147.221 163.14 146.441 163.14V166.14ZM146.755 166.47C147.03 168.417 147.173 170.85 147.173 173.784H150.173C150.173 170.766 150.027 168.183 149.726 166.05L146.755 166.47ZM147.173 173.772L147.137 178.308L150.137 178.332L150.173 173.796L147.173 173.772ZM147.137 178.32V179.688H150.137V178.32H147.137ZM147.137 179.688C147.137 181.152 147.101 182.504 147.031 183.743L150.026 183.913C150.1 182.608 150.137 181.2 150.137 179.688H147.137ZM148.386 185.321C149.429 185.421 150.378 185.472 151.229 185.472V182.472C150.495 182.472 149.644 182.427 148.671 182.335L148.386 185.321ZM151.229 185.472C151.955 185.472 152.902 185.447 154.063 185.399L153.938 182.401C152.795 182.449 151.895 182.472 151.229 182.472V185.472ZM154.025 185.4L156.221 185.364L156.172 182.364L153.976 182.4L154.025 185.4ZM156.197 185.364C156.825 185.364 157.286 185.398 157.606 185.452L158.099 182.492C157.555 182.402 156.913 182.364 156.197 182.364V185.364ZM157.696 185.464C157.945 185.49 158.24 185.573 158.586 185.746L159.927 183.062C159.314 182.755 158.672 182.55 158.01 182.48L157.696 185.464ZM158.666 185.783C158.676 185.787 158.66 185.782 158.633 185.759C158.603 185.735 158.573 185.701 158.547 185.66C158.494 185.574 158.513 185.537 158.513 185.628H161.513C161.513 185.119 161.405 184.578 161.1 184.084C160.789 183.581 160.341 183.237 159.848 183.025L158.666 185.783ZM158.513 185.628C158.513 185.752 158.483 185.853 158.38 185.978L160.709 187.87C161.231 187.227 161.513 186.464 161.513 185.628H158.513ZM158.345 186.024C158.302 186.081 158.297 186.068 158.343 186.043C158.366 186.03 158.394 186.018 158.426 186.01C158.458 186.002 158.484 186 158.501 186V189C159.468 189 160.23 188.51 160.745 187.824L158.345 186.024ZM158.501 186C158.336 186 157.976 185.968 157.361 185.873L156.905 188.839C157.537 188.936 158.09 189 158.501 189V186ZM157.354 185.872C156.16 185.695 155.006 185.604 153.893 185.604V188.604C154.843 188.604 155.849 188.681 156.912 188.84L157.354 185.872ZM153.893 185.604C153.488 185.604 153.047 185.633 152.575 185.685L152.906 188.667C153.298 188.623 153.625 188.604 153.893 188.604V185.604ZM152.653 185.679C152.249 185.702 151.986 185.712 151.841 185.712V188.712C152.079 188.712 152.416 188.698 152.829 188.673L152.653 185.679ZM151.655 185.724C151.14 185.788 150.626 185.82 150.113 185.82V188.82C150.751 188.82 151.389 188.78 152.027 188.7L151.655 185.724ZM150.113 185.82C148.986 185.82 147.995 185.762 147.135 185.652L146.754 188.628C147.766 188.758 148.888 188.82 150.113 188.82V185.82ZM147.094 185.647C146.893 185.627 146.639 185.548 146.322 185.342L144.687 187.858C145.331 188.276 146.036 188.557 146.795 188.633L147.094 185.647ZM146.365 185.371C146.335 185.35 146.32 185.335 146.314 185.329C146.309 185.323 146.307 185.319 146.306 185.317C146.306 185.317 146.285 185.277 146.285 185.16H143.285C143.285 186.236 143.734 187.191 144.644 187.829L146.365 185.371ZM146.285 185.16C146.285 184.46 146.319 183.571 146.389 182.486L143.396 182.29C143.323 183.413 143.285 184.372 143.285 185.16H146.285ZM146.391 182.456C146.488 180.327 146.537 178.42 146.537 176.736H143.537C143.537 178.364 143.489 180.225 143.394 182.32L146.391 182.456ZM146.537 176.736C146.537 175.739 146.499 174.674 146.425 173.542L143.432 173.738C143.502 174.814 143.537 175.813 143.537 176.736H146.537ZM146.425 173.542C146.354 172.439 146.305 171.715 146.281 171.373L143.288 171.587C143.312 171.917 143.36 172.633 143.432 173.738L146.425 173.542ZM146.279 171.352C146.113 169.411 146.033 167.776 146.033 166.44H143.033C143.033 167.888 143.12 169.613 143.29 171.608L146.279 171.352ZM146.033 166.44C146.033 166.237 146.057 166.127 146.071 166.082C146.083 166.043 146.079 166.079 146.025 166.133L143.904 164.011C143.216 164.699 143.033 165.626 143.033 166.44H146.033ZM145.982 166.174C145.936 166.216 145.92 166.208 145.989 166.188C146.063 166.166 146.206 166.14 146.441 166.14V163.14C145.602 163.14 144.659 163.312 143.947 163.97L145.982 166.174ZM202.078 183.9L200.819 183.085L200.813 183.095L202.078 183.9ZM199.558 186.096L198.814 184.794L198.797 184.803L198.781 184.813L199.558 186.096ZM196.786 187.176L197.119 188.639L196.786 187.176ZM189.478 186.456L188.819 187.803L188.845 187.816L188.873 187.828L189.478 186.456ZM186.67 184.404L185.527 185.374L185.535 185.384L185.544 185.394L186.67 184.404ZM186.094 180.408L187.155 181.469L187.176 181.447L187.197 181.425L186.094 180.408ZM188.542 180.372L187.605 181.543L187.63 181.563L187.655 181.582L188.542 180.372ZM189.19 181.164L187.743 181.559L187.756 181.604L187.771 181.649L189.19 181.164ZM190.954 183.432L190.156 184.702L190.169 184.71L190.183 184.718L190.954 183.432ZM197.686 183.396L196.977 182.074L196.97 182.078L196.964 182.082L197.686 183.396ZM197.578 178.968L198.384 177.703L198.384 177.703L197.578 178.968ZM194.338 177.564L193.944 179.011L193.967 179.017L193.99 179.023L194.338 177.564ZM190.126 176.016L189.466 177.363L189.466 177.363L190.126 176.016ZM187.282 173.712L186.044 174.559L186.044 174.559L187.282 173.712ZM187.318 167.988L188.562 168.827L188.566 168.82L188.571 168.813L187.318 167.988ZM189.622 165.864L190.279 167.213L190.286 167.209L190.293 167.206L189.622 165.864ZM192.07 165.108L192.405 166.57L192.416 166.568L192.427 166.565L192.07 165.108ZM196.93 164.928L197.225 163.457L197.225 163.457L196.93 164.928ZM198.982 165.648L198.219 166.939L198.23 166.946L198.241 166.952L198.982 165.648ZM201.574 170.22L200.514 169.159L200.494 169.179L200.475 169.199L201.574 170.22ZM199.342 170.472L198.355 171.601L198.355 171.601L199.342 170.472ZM198.622 169.716L197.429 170.625L197.455 170.659L197.483 170.692L198.622 169.716ZM197.506 168.708L198.141 167.349L198.063 167.312L197.981 167.285L197.506 168.708ZM195.922 168.312L195.608 169.779L195.618 169.781L195.922 168.312ZM192.322 168.456L192.861 169.856L192.861 169.856L192.322 168.456ZM190.738 169.5L189.649 168.468L189.648 168.47L190.738 169.5ZM190.774 172.272L189.814 173.424L189.849 173.453L189.885 173.48L190.774 172.272ZM192.394 173.1L192.951 171.707L192.919 171.694L192.885 171.683L192.394 173.1ZM194.734 173.856L195.171 172.421L195.14 172.411L195.108 172.403L194.734 173.856ZM197.434 174.792L196.861 176.178L196.889 176.19L196.918 176.2L197.434 174.792ZM199.522 175.8L198.744 177.082L198.751 177.087L198.758 177.091L199.522 175.8ZM202.078 177.96L200.855 178.828L200.862 178.838L200.869 178.847L202.078 177.96ZM201.37 180.984C201.37 181.87 201.166 182.549 200.819 183.085L203.338 184.715C204.047 183.619 204.37 182.354 204.37 180.984H201.37ZM200.813 183.095C200.485 183.61 199.866 184.193 198.814 184.794L200.303 187.398C201.603 186.655 202.664 185.774 203.344 184.705L200.813 183.095ZM198.781 184.813C198.148 185.197 197.379 185.503 196.454 185.713L197.119 188.639C198.306 188.369 199.385 187.955 200.336 187.379L198.781 184.813ZM196.454 185.713C195.507 185.929 194.55 186.036 193.582 186.036V189.036C194.775 189.036 195.954 188.903 197.119 188.639L196.454 185.713ZM193.582 186.036C192.776 186.036 191.629 185.765 190.084 185.084L188.873 187.828C190.592 188.587 192.181 189.036 193.582 189.036V186.036ZM190.138 185.109C189.098 184.6 188.335 184.026 187.797 183.414L185.544 185.394C186.398 186.366 187.507 187.16 188.819 187.803L190.138 185.109ZM187.814 183.434C187.345 182.881 187.162 182.353 187.162 181.812H184.162C184.162 183.143 184.652 184.343 185.527 185.374L187.814 183.434ZM187.162 181.812C187.162 181.592 187.188 181.47 187.204 181.416C187.219 181.369 187.216 181.408 187.155 181.469L185.034 179.347C184.337 180.044 184.162 180.993 184.162 181.812H187.162ZM187.197 181.425C187.143 181.484 187.103 181.491 187.136 181.48C187.177 181.466 187.288 181.44 187.498 181.44V178.44C186.651 178.44 185.685 178.64 184.992 179.391L187.197 181.425ZM187.498 181.44C187.447 181.44 187.424 181.428 187.438 181.434C187.456 181.441 187.512 181.469 187.605 181.543L189.479 179.201C188.952 178.778 188.282 178.44 187.498 178.44V181.44ZM187.655 181.582C187.707 181.62 187.745 181.651 187.772 181.676C187.798 181.7 187.811 181.715 187.813 181.718C187.82 181.726 187.774 181.673 187.743 181.559L190.638 180.769C190.435 180.028 189.903 179.51 189.429 179.162L187.655 181.582ZM187.771 181.649C188.212 182.941 189.01 183.982 190.156 184.702L191.753 182.162C191.218 181.826 190.841 181.355 190.61 180.679L187.771 181.649ZM190.183 184.718C191.312 185.396 192.64 185.688 194.086 185.688V182.688C193.037 182.688 192.277 182.476 191.726 182.146L190.183 184.718ZM194.086 185.688C195.702 185.688 197.169 185.392 198.409 184.71L196.964 182.082C196.284 182.456 195.351 182.688 194.086 182.688V185.688ZM198.396 184.718C199.719 184.008 200.662 182.862 200.662 181.272H197.662C197.662 181.458 197.622 181.728 196.977 182.074L198.396 184.718ZM200.662 181.272C200.662 179.688 199.662 178.516 198.384 177.703L196.773 180.233C197.607 180.764 197.662 181.128 197.662 181.272H200.662ZM198.384 177.703C197.202 176.95 195.969 176.412 194.687 176.105L193.99 179.023C194.916 179.244 195.843 179.642 196.773 180.233L198.384 177.703ZM194.733 176.117C193.223 175.705 191.91 175.22 190.787 174.669L189.466 177.363C190.79 178.012 192.286 178.559 193.944 179.011L194.733 176.117ZM190.787 174.669C189.683 174.128 188.963 173.511 188.52 172.865L186.044 174.559C186.85 175.737 188.026 176.656 189.466 177.363L190.787 174.669ZM188.52 172.865C188.05 172.177 187.846 171.509 187.846 170.832H184.846C184.846 172.171 185.267 173.423 186.044 174.559L188.52 172.865ZM187.846 170.832C187.846 170.259 188.041 169.599 188.562 168.827L186.075 167.149C185.3 168.297 184.846 169.533 184.846 170.832H187.846ZM188.571 168.813C189.1 168.01 189.676 167.506 190.279 167.213L188.966 164.515C187.793 165.086 186.833 165.998 186.066 167.163L188.571 168.813ZM190.293 167.206C190.601 167.052 191.265 166.831 192.405 166.57L191.735 163.646C190.572 163.913 189.604 164.196 188.952 164.522L190.293 167.206ZM192.427 166.565C193.597 166.278 194.295 166.176 194.626 166.176V163.176C193.902 163.176 192.896 163.362 191.714 163.651L192.427 166.565ZM194.626 166.176C195.204 166.176 195.872 166.246 196.636 166.399L197.225 163.457C196.309 163.274 195.441 163.176 194.626 163.176V166.176ZM196.636 166.399C197.371 166.546 197.881 166.74 198.219 166.939L199.745 164.357C199.027 163.932 198.169 163.646 197.225 163.457L196.636 166.399ZM198.241 166.952C199.257 167.529 199.914 167.999 200.288 168.354L202.357 166.182C201.722 165.577 200.819 164.967 199.723 164.344L198.241 166.952ZM200.288 168.354C200.483 168.54 200.578 168.743 200.578 169.068H203.578C203.578 167.953 203.169 166.956 202.357 166.182L200.288 168.354ZM200.578 169.068C200.578 169.078 200.577 169.082 200.578 169.081C200.578 169.079 200.578 169.078 200.578 169.079C200.578 169.08 200.575 169.086 200.566 169.099C200.557 169.112 200.541 169.132 200.514 169.159L202.635 171.281C203.221 170.694 203.578 169.939 203.578 169.068H200.578ZM200.475 169.199C200.541 169.129 200.577 169.136 200.49 169.163C200.397 169.191 200.217 169.224 199.918 169.224V172.224C200.842 172.224 201.929 172.042 202.674 171.241L200.475 169.199ZM199.918 169.224C200.195 169.224 200.34 169.352 200.33 169.343L198.355 171.601C198.729 171.928 199.258 172.224 199.918 172.224V169.224ZM200.33 169.343C200.217 169.244 200.031 169.055 199.761 168.74L197.483 170.692C197.79 171.049 198.083 171.364 198.355 171.601L200.33 169.343ZM199.816 168.807C199.363 168.213 198.814 167.663 198.141 167.349L196.872 170.067C196.919 170.089 197.114 170.211 197.429 170.625L199.816 168.807ZM197.981 167.285C197.536 167.137 196.939 166.991 196.226 166.843L195.618 169.781C196.297 169.921 196.757 170.039 197.032 170.131L197.981 167.285ZM196.237 166.845C195.49 166.685 194.782 166.596 194.122 166.596V169.596C194.519 169.596 195.01 169.651 195.608 169.779L196.237 166.845ZM194.122 166.596C193.335 166.596 192.553 166.76 191.784 167.056L192.861 169.856C193.34 169.672 193.758 169.596 194.122 169.596V166.596ZM191.784 167.056C190.965 167.371 190.245 167.84 189.649 168.468L191.827 170.532C192.096 170.248 192.432 170.021 192.861 169.856L191.784 167.056ZM189.648 168.47C188.986 169.171 188.626 170.04 188.626 171.012H191.626C191.626 170.832 191.675 170.693 191.829 170.53L189.648 168.47ZM188.626 171.012C188.626 172.016 189.105 172.834 189.814 173.424L191.735 171.12C191.644 171.044 191.623 171.001 191.622 171.001C191.622 171 191.624 171.004 191.625 171.011C191.627 171.017 191.626 171.018 191.626 171.012H188.626ZM189.885 173.48C190.481 173.919 191.16 174.26 191.904 174.517L192.885 171.683C192.381 171.508 191.98 171.297 191.664 171.064L189.885 173.48ZM191.837 174.493C192.624 174.807 193.466 175.079 194.361 175.309L195.108 172.403C194.323 172.201 193.605 171.969 192.951 171.707L191.837 174.493ZM194.298 175.291C195.377 175.619 196.226 175.916 196.861 176.178L198.008 173.406C197.25 173.092 196.3 172.765 195.171 172.421L194.298 175.291ZM196.918 176.2C197.544 176.43 198.153 176.723 198.744 177.082L200.301 174.518C199.548 174.061 198.764 173.682 197.951 173.384L196.918 176.2ZM198.758 177.091C199.835 177.728 200.494 178.319 200.855 178.828L203.302 177.092C202.607 176.113 201.561 175.264 200.286 174.509L198.758 177.091ZM200.869 178.847C201.14 179.217 201.37 179.869 201.37 180.984H204.37C204.37 179.507 204.073 178.143 203.288 177.073L200.869 178.847ZM218.621 165.036L218.693 163.538L218.677 163.537L218.661 163.537L218.621 165.036ZM226.253 165.036L226.165 163.539L226.149 163.54L226.134 163.541L226.253 165.036ZM227.801 164.964L227.856 163.465L227.828 163.464H227.801V164.964ZM231.149 165.684L230.507 167.04L230.518 167.045L230.529 167.05L231.149 165.684ZM231.797 166.116L232.858 165.055L232.858 165.055L231.797 166.116ZM231.545 168.312L232.642 169.335L232.658 169.318L232.674 169.3L231.545 168.312ZM228.017 168.636L227.738 170.11L227.772 170.116L227.805 170.121L228.017 168.636ZM224.201 168.42L224.094 166.924L222.823 167.015L222.707 168.284L224.201 168.42ZM224.417 184.98L222.92 185.068L222.92 185.076L222.921 185.083L224.417 184.98ZM224.489 186.024H225.989V185.972L225.986 185.921L224.489 186.024ZM220.997 186.888L219.781 187.766L219.793 187.783L219.806 187.799L220.997 186.888ZM220.385 178.572L221.884 178.515L221.884 178.504L220.385 178.572ZM220.457 168.564L221.956 168.634L222.03 167.051L220.444 167.064L220.457 168.564ZM216.245 168.6V170.1L216.258 170.1L216.245 168.6ZM213.437 168.24L212.766 169.582L212.791 169.594L212.817 169.606L213.437 168.24ZM214.145 166.512C214.145 166.437 214.158 166.445 214.135 166.493C214.108 166.548 214.07 166.582 214.058 166.59C214.056 166.591 214.106 166.557 214.254 166.523C214.401 166.49 214.616 166.464 214.913 166.464V163.464C214.033 163.464 213.109 163.606 212.367 164.112C211.522 164.689 211.145 165.574 211.145 166.512H214.145ZM214.913 166.464C215.539 166.464 216.755 166.487 218.582 166.535L218.661 163.537C216.839 163.489 215.584 163.464 214.913 163.464V166.464ZM218.55 166.534C220.572 166.631 222.125 166.68 223.193 166.68V163.68C222.198 163.68 220.703 163.633 218.693 163.538L218.55 166.534ZM223.193 166.68C224.086 166.68 225.148 166.629 226.373 166.531L226.134 163.541C224.958 163.635 223.98 163.68 223.193 163.68V166.68ZM226.341 166.533C227.172 166.485 227.639 166.464 227.801 166.464V163.464C227.532 163.464 226.966 163.491 226.165 163.539L226.341 166.533ZM227.747 166.463C228.923 166.506 229.827 166.717 230.507 167.04L231.791 164.328C230.648 163.787 229.319 163.518 227.856 163.465L227.747 166.463ZM230.529 167.05C230.664 167.111 230.72 167.16 230.737 167.177L232.858 165.055C232.538 164.736 232.163 164.497 231.77 164.318L230.529 167.05ZM230.737 167.177C230.613 167.053 230.566 166.933 230.551 166.886C230.539 166.844 230.549 166.854 230.549 166.944H233.549C233.549 166.397 233.438 165.636 232.858 165.055L230.737 167.177ZM230.549 166.944C230.549 167.123 230.504 167.224 230.416 167.324L232.674 169.3C233.258 168.632 233.549 167.821 233.549 166.944H230.549ZM230.449 167.289C230.426 167.313 230.409 167.327 230.399 167.334C230.389 167.341 230.384 167.344 230.382 167.345C230.38 167.345 230.377 167.347 230.37 167.348C230.362 167.35 230.347 167.352 230.321 167.352V170.352C231.229 170.352 232.03 169.991 232.642 169.335L230.449 167.289ZM230.321 167.352C229.902 167.352 229.219 167.292 228.229 167.151L227.805 170.121C228.832 170.268 229.684 170.352 230.321 170.352V167.352ZM228.296 167.162C227.345 166.982 226.468 166.884 225.677 166.884V169.884C226.23 169.884 226.913 169.954 227.738 170.11L228.296 167.162ZM225.677 166.884C225.02 166.884 224.485 166.896 224.094 166.924L224.308 169.916C224.59 169.896 225.039 169.884 225.677 169.884V166.884ZM222.707 168.284C222.628 169.159 222.593 171.131 222.593 174.108H225.593C225.593 171.085 225.631 169.265 225.695 168.556L222.707 168.284ZM222.593 174.108C222.593 177.714 222.702 181.368 222.92 185.068L225.915 184.892C225.7 181.248 225.593 177.654 225.593 174.108H222.593ZM222.921 185.083L222.993 186.127L225.986 185.921L225.914 184.877L222.921 185.083ZM222.989 186.024C222.989 186.13 222.974 186.157 222.982 186.134C222.987 186.122 222.997 186.1 223.015 186.073C223.034 186.046 223.056 186.022 223.08 186.001C223.13 185.957 223.158 185.956 223.119 185.967C223.075 185.98 222.975 186 222.797 186V189C223.546 189 224.388 188.841 225.052 188.261C225.756 187.647 225.989 186.805 225.989 186.024H222.989ZM222.797 186C222.457 186 222.26 185.959 222.164 185.927C222.079 185.898 222.126 185.895 222.189 185.977L219.806 187.799C220.555 188.779 221.773 189 222.797 189V186ZM222.213 186.01C222.169 185.948 222.029 185.672 222.029 184.944H219.029C219.029 185.944 219.202 186.964 219.781 187.766L222.213 186.01ZM222.029 184.944C222.029 183.214 221.981 181.07 221.884 178.515L218.886 178.629C218.982 181.162 219.029 183.266 219.029 184.944H222.029ZM221.884 178.504C221.788 176.392 221.741 174.923 221.741 174.072H218.741C218.741 174.997 218.791 176.528 218.887 178.64L221.884 178.504ZM221.741 174.072C221.741 173.516 221.811 171.725 221.956 168.634L218.959 168.494C218.816 171.547 218.741 173.428 218.741 174.072H221.741ZM220.444 167.064L216.232 167.1L216.258 170.1L220.47 170.064L220.444 167.064ZM216.245 167.1C214.905 167.1 214.263 166.968 214.058 166.874L212.817 169.606C213.667 169.992 214.897 170.1 216.245 170.1V167.1ZM214.108 166.898C214.13 166.909 214.158 166.928 214.182 166.954C214.206 166.979 214.211 166.995 214.207 166.985C214.193 166.955 214.145 166.821 214.145 166.512H211.145C211.145 167.649 211.497 168.947 212.766 169.582L214.108 166.898ZM257.233 165.216L256.79 166.649L256.802 166.653L256.814 166.656L257.233 165.216ZM260.473 166.944L259.461 168.051L259.467 168.056L260.473 166.944ZM263.641 171.444L262.233 171.962L262.238 171.974L262.243 171.987L263.641 171.444ZM264.361 179.076L262.938 178.602L262.926 178.638L262.916 178.675L264.361 179.076ZM263.749 180.732L265.099 181.385L265.114 181.354L265.128 181.323L263.749 180.732ZM263.101 182.496L264.403 183.24L264.536 183.007L264.58 182.743L263.101 182.496ZM260.725 184.908L259.868 183.677L259.862 183.681L259.856 183.686L260.725 184.908ZM243.949 182.748L245.223 181.956L245.223 181.956L243.949 182.748ZM242.653 179.976L241.216 180.407L241.221 180.423L241.226 180.44L242.653 179.976ZM243.517 170.796L242.168 170.139L242.165 170.147L243.517 170.796ZM247.189 166.548L246.427 165.256L246.401 165.272L246.375 165.288L247.189 166.548ZM250.105 165.18L250.609 166.593L250.619 166.589L250.628 166.586L250.105 165.18ZM246.829 180.48L245.592 181.328L245.6 181.34L245.608 181.352L246.829 180.48ZM249.565 183.216L248.625 184.385L248.81 184.533L249.031 184.618L249.565 183.216ZM251.617 183.972L251.143 185.395L251.186 185.41L251.23 185.421L251.617 183.972ZM258.637 182.136L259.65 183.242L259.65 183.242L258.637 182.136ZM260.185 172.38L258.786 172.921L258.786 172.921L260.185 172.38ZM257.989 169.536L257.034 170.692L257.044 170.701L257.055 170.71L257.989 169.536ZM255.865 168.528L255.491 169.981L255.501 169.983L255.865 168.528ZM249.277 169.536L250.214 170.707L250.222 170.701L250.23 170.695L249.277 169.536ZM246.793 172.92L245.407 172.346L245.403 172.357L245.399 172.367L246.793 172.92ZM252.841 166.104C254.323 166.104 255.635 166.292 256.79 166.649L257.676 163.783C256.191 163.324 254.575 163.104 252.841 163.104V166.104ZM256.814 166.656C257.959 166.989 258.822 167.467 259.461 168.051L261.485 165.837C260.444 164.885 259.147 164.211 257.652 163.776L256.814 166.656ZM259.467 168.056C260.83 169.29 261.73 170.594 262.233 171.962L265.049 170.926C264.352 169.03 263.14 167.334 261.479 165.832L259.467 168.056ZM262.243 171.987C262.776 173.361 263.077 175.224 263.077 177.636H266.077C266.077 175.008 265.754 172.743 265.039 170.901L262.243 171.987ZM263.077 177.636C263.077 178.028 263.024 178.345 262.938 178.602L265.784 179.55C265.986 178.943 266.077 178.3 266.077 177.636H263.077ZM262.916 178.675C262.821 179.015 262.646 179.498 262.37 180.141L265.128 181.323C265.428 180.622 265.661 180.001 265.806 179.477L262.916 178.675ZM262.399 180.079C262.021 180.859 261.729 181.602 261.621 182.249L264.58 182.743C264.617 182.526 264.757 182.093 265.099 181.385L262.399 180.079ZM261.799 181.752C261.463 182.338 260.856 182.989 259.868 183.677L261.582 186.139C262.801 185.291 263.778 184.334 264.403 183.24L261.799 181.752ZM259.856 183.686C258.883 184.377 257.822 184.941 256.667 185.377L257.726 188.183C259.116 187.659 260.407 186.975 261.594 186.13L259.856 183.686ZM256.667 185.377C255.5 185.817 254.57 186 253.849 186V189C255.048 189 256.35 188.703 257.726 188.183L256.667 185.377ZM253.849 186C249.591 186 246.849 184.574 245.223 181.956L242.675 183.54C244.985 187.258 248.843 189 253.849 189V186ZM245.223 181.956C244.732 181.167 244.353 180.353 244.079 179.512L241.226 180.44C241.577 181.519 242.061 182.553 242.675 183.54L245.223 181.956ZM244.09 179.545C243.839 178.711 243.721 177.92 243.721 177.168H240.721C240.721 178.24 240.89 179.321 241.216 180.407L244.09 179.545ZM243.721 177.168C243.721 174.895 244.122 173.002 244.869 171.445L242.165 170.147C241.184 172.19 240.721 174.545 240.721 177.168H243.721ZM244.866 171.453C245.645 169.851 246.694 168.654 248.003 167.808L246.375 165.288C244.564 166.458 243.165 168.093 242.168 170.139L244.866 171.453ZM247.951 167.84C248.806 167.336 249.692 166.92 250.609 166.593L249.6 163.767C248.502 164.16 247.443 164.656 246.427 165.256L247.951 167.84ZM250.628 166.586C251.553 166.242 252.282 166.104 252.841 166.104V163.104C251.815 163.104 250.721 163.35 249.582 163.774L250.628 166.586ZM244.465 177.276C244.465 178.792 244.803 180.178 245.592 181.328L248.066 179.632C247.703 179.102 247.465 178.352 247.465 177.276H244.465ZM245.608 181.352C246.318 182.345 247.344 183.355 248.625 184.385L250.505 182.047C249.338 181.109 248.54 180.295 248.05 179.608L245.608 181.352ZM249.031 184.618C250.035 185 250.748 185.263 251.143 185.395L252.091 182.549C251.766 182.441 251.111 182.2 250.099 181.814L249.031 184.618ZM251.23 185.421C251.741 185.557 252.282 185.616 252.841 185.616V182.616C252.487 182.616 252.213 182.579 252.003 182.523L251.23 185.421ZM252.841 185.616C255.546 185.616 257.871 184.873 259.65 183.242L257.623 181.03C256.523 182.039 254.984 182.616 252.841 182.616V185.616ZM259.65 183.242C261.456 181.586 262.297 179.342 262.297 176.7H259.297C259.297 178.666 258.697 180.046 257.623 181.03L259.65 183.242ZM262.297 176.7C262.297 174.79 262.087 173.141 261.584 171.839L258.786 172.921C259.099 173.731 259.297 174.962 259.297 176.7H262.297ZM261.584 171.839C261.063 170.491 260.147 169.336 258.923 168.362L257.055 170.71C257.943 171.416 258.491 172.157 258.786 172.921L261.584 171.839ZM258.944 168.38C258.183 167.751 257.258 167.33 256.229 167.073L255.501 169.983C256.2 170.158 256.691 170.409 257.034 170.692L258.944 168.38ZM256.238 167.075C255.261 166.824 254.222 166.704 253.129 166.704V169.704C254.003 169.704 254.788 169.8 255.491 169.981L256.238 167.075ZM253.129 166.704C251.317 166.704 249.691 167.254 248.324 168.377L250.23 170.695C251.023 170.042 251.964 169.704 253.129 169.704V166.704ZM248.34 168.365C247.045 169.401 246.071 170.742 245.407 172.346L248.179 173.494C248.667 172.314 249.349 171.399 250.214 170.707L248.34 168.365ZM245.399 172.367C244.776 173.937 244.465 175.577 244.465 177.276H247.465C247.465 175.951 247.706 174.687 248.187 173.473L245.399 172.367ZM294.515 167.52L295.667 166.56L295.586 166.462L295.489 166.379L294.515 167.52ZM294.911 170.328L293.85 169.267L293.833 169.284L293.817 169.302L294.911 170.328ZM292.679 170.688L292.008 172.03L292.008 172.03L292.679 170.688ZM291.959 170.004L293.236 169.218L293.222 169.195L293.207 169.172L291.959 170.004ZM290.951 169.176L290.106 170.415L290.125 170.429L290.146 170.441L290.951 169.176ZM289.151 168.276L288.602 169.672L288.624 169.681L288.646 169.689L289.151 168.276ZM284.363 168.564L284.966 169.937L284.973 169.934L284.981 169.931L284.363 168.564ZM281.987 170.256L280.851 169.277L280.835 169.295L280.82 169.313L281.987 170.256ZM280.619 173.064L282.042 173.538L282.045 173.53L280.619 173.064ZM280.907 180.408L279.571 181.09L279.579 181.106L279.588 181.122L280.907 180.408ZM283.571 183.18L282.795 184.464L282.807 184.471L283.571 183.18ZM290.051 183.828L289.485 182.439L289.476 182.443L289.466 182.447L290.051 183.828ZM292.139 182.676L291.344 181.404L291.32 181.419L291.298 181.434L292.139 182.676ZM293.471 181.884L292.8 180.542L292.78 180.553L292.76 180.563L293.471 181.884ZM295.667 182.136L294.606 183.197L294.624 183.215L294.643 183.233L295.667 182.136ZM295.091 185.016L296.039 186.178L296.047 186.172L296.055 186.165L295.091 185.016ZM292.571 186.708L293.208 188.066L293.225 188.058L293.242 188.05L292.571 186.708ZM290.195 187.428L290.375 188.917L290.394 188.915L290.413 188.912L290.195 187.428ZM282.095 186.384L281.455 187.741L281.463 187.744L282.095 186.384ZM278.207 183.504L276.972 184.356L277.004 184.403L277.04 184.447L278.207 183.504ZM276.803 180.516L275.377 180.983L275.382 180.998L275.388 181.014L276.803 180.516ZM277.199 171.408L278.607 171.925L278.607 171.925L277.199 171.408ZM280.187 166.836L281.183 167.957L281.192 167.949L281.2 167.942L280.187 166.836ZM283.391 165.108L283.799 166.551L283.808 166.549L283.817 166.546L283.391 165.108ZM291.095 165.288L290.472 166.653L290.483 166.658L291.095 165.288ZM293.363 168.48C293.704 168.89 293.881 169.149 293.954 169.282L296.588 167.846C296.373 167.451 296.046 167.014 295.667 166.56L293.363 168.48ZM293.954 169.282C293.981 169.331 293.989 169.358 293.991 169.363C293.992 169.367 293.987 169.352 293.987 169.32H296.987C296.987 168.773 296.822 168.275 296.588 167.846L293.954 169.282ZM293.987 169.32C293.987 169.128 294.05 169.027 294.04 169.044C294.038 169.049 294.024 169.072 293.992 169.112C293.96 169.152 293.914 169.204 293.85 169.267L295.972 171.389C296.414 170.946 296.987 170.237 296.987 169.32H293.987ZM293.817 169.302C293.769 169.353 293.731 169.387 293.704 169.409C293.677 169.43 293.664 169.437 293.665 169.436C293.667 169.436 293.684 169.427 293.714 169.419C293.746 169.41 293.786 169.404 293.831 169.404V172.404C294.766 172.404 295.494 171.899 296.005 171.354L293.817 169.302ZM293.831 169.404C293.663 169.404 293.542 169.391 293.459 169.376C293.376 169.36 293.346 169.344 293.35 169.346L292.008 172.03C292.581 172.316 293.223 172.404 293.831 172.404V169.404ZM293.35 169.346C293.345 169.344 293.303 169.325 293.236 169.218L290.681 170.79C290.999 171.307 291.437 171.744 292.008 172.03L293.35 169.346ZM293.207 169.172C292.869 168.665 292.279 168.243 291.756 167.911L290.146 170.441C290.379 170.59 290.541 170.707 290.647 170.794C290.766 170.892 290.758 170.906 290.711 170.836L293.207 169.172ZM291.796 167.937C291.151 167.497 290.434 167.141 289.655 166.863L288.646 169.689C289.212 169.891 289.695 170.135 290.106 170.415L291.796 167.937ZM289.699 166.88C288.895 166.564 288.083 166.38 287.279 166.38V169.38C287.626 169.38 288.062 169.46 288.602 169.672L289.699 166.88ZM287.279 166.38C286.094 166.38 284.912 166.669 283.745 167.197L284.981 169.931C285.83 169.547 286.591 169.38 287.279 169.38V166.38ZM283.76 167.191C282.606 167.697 281.62 168.385 280.851 169.277L283.123 171.235C283.554 170.735 284.152 170.295 284.966 169.937L283.76 167.191ZM280.82 169.313C280.152 170.141 279.626 171.273 279.193 172.598L282.045 173.53C282.427 172.359 282.814 171.619 283.154 171.199L280.82 169.313ZM279.196 172.59C278.745 173.941 278.507 175.266 278.507 176.556H281.507C281.507 175.638 281.676 174.635 282.042 173.538L279.196 172.59ZM278.507 176.556C278.507 178.172 278.857 179.691 279.571 181.09L282.243 179.726C281.757 178.773 281.507 177.724 281.507 176.556H278.507ZM279.588 181.122C280.343 182.516 281.421 183.634 282.795 184.464L284.347 181.896C283.417 181.334 282.719 180.604 282.226 179.694L279.588 181.122ZM282.807 184.471C284.256 185.328 285.935 185.724 287.783 185.724V182.724C286.367 182.724 285.238 182.424 284.335 181.889L282.807 184.471ZM287.783 185.724C288.812 185.724 289.779 185.572 290.635 185.209L289.466 182.447C289.075 182.612 288.529 182.724 287.783 182.724V185.724ZM290.617 185.217C291.384 184.904 292.173 184.465 292.98 183.918L291.298 181.434C290.617 181.895 290.014 182.224 289.485 182.439L290.617 185.217ZM292.934 183.948C293.502 183.593 293.914 183.349 294.182 183.205L292.76 180.563C292.404 180.755 291.927 181.039 291.344 181.404L292.934 183.948ZM294.142 183.226C294.252 183.171 294.391 183.132 294.587 183.132V180.132C293.966 180.132 293.362 180.261 292.8 180.542L294.142 183.226ZM294.587 183.132C294.572 183.132 294.556 183.13 294.54 183.127C294.524 183.123 294.514 183.119 294.511 183.117C294.504 183.114 294.538 183.129 294.606 183.197L296.728 181.075C296.181 180.529 295.459 180.132 294.587 180.132V183.132ZM294.643 183.233C294.688 183.275 294.717 183.307 294.734 183.328C294.751 183.349 294.754 183.356 294.75 183.348C294.745 183.34 294.734 183.317 294.724 183.28C294.714 183.242 294.707 183.196 294.707 183.144H297.707C297.707 182.231 297.212 181.526 296.69 181.039L294.643 183.233ZM294.707 183.144C294.707 183.149 294.706 183.16 294.7 183.184C294.692 183.208 294.676 183.25 294.639 183.312C294.563 183.44 294.411 183.629 294.127 183.867L296.055 186.165C296.949 185.415 297.707 184.41 297.707 183.144H294.707ZM294.143 183.854C293.287 184.552 292.541 185.046 291.9 185.366L293.242 188.05C294.137 187.602 295.071 186.968 296.039 186.178L294.143 183.854ZM291.934 185.35C291.295 185.649 290.644 185.846 289.977 185.944L290.413 188.912C291.378 188.77 292.311 188.487 293.208 188.066L291.934 185.35ZM290.014 185.939C289.306 186.025 288.352 186.072 287.135 186.072V189.072C288.414 189.072 289.5 189.023 290.375 188.917L290.014 185.939ZM287.135 186.072C285.725 186.072 284.26 185.736 282.727 185.024L281.463 187.744C283.338 188.616 285.233 189.072 287.135 189.072V186.072ZM282.734 185.027C281.204 184.305 280.109 183.471 279.373 182.561L277.04 184.447C278.129 185.793 279.626 186.879 281.455 187.741L282.734 185.027ZM279.442 182.652C279.069 182.112 278.654 181.256 278.218 180.018L275.388 181.014C275.864 182.368 276.385 183.504 276.972 184.356L279.442 182.652ZM278.228 180.049C277.816 178.79 277.655 177.897 277.655 177.312H274.655C274.655 178.359 274.925 179.602 275.377 180.983L278.228 180.049ZM277.655 177.312C277.655 175.447 277.972 173.654 278.607 171.925L275.791 170.891C275.033 172.954 274.655 175.097 274.655 177.312H277.655ZM278.607 171.925C279.232 170.223 280.101 168.92 281.183 167.957L279.19 165.715C277.681 167.056 276.558 168.801 275.791 170.891L278.607 171.925ZM281.2 167.942C281.871 167.327 282.724 166.856 283.799 166.551L282.982 163.665C281.514 164.08 280.231 164.761 279.173 165.73L281.2 167.942ZM283.817 166.546C284.992 166.198 286.096 166.032 287.135 166.032V163.032C285.774 163.032 284.382 163.25 282.965 163.67L283.817 166.546ZM287.135 166.032C288.511 166.032 289.608 166.258 290.472 166.653L291.718 163.923C290.374 163.31 288.831 163.032 287.135 163.032V166.032ZM290.483 166.658C291.454 167.091 292.474 167.75 293.541 168.661L295.489 166.379C294.252 165.322 292.992 164.493 291.707 163.918L290.483 166.658ZM327.404 184.764L326.655 186.064L326.693 186.086L326.733 186.106L327.404 184.764ZM327.944 185.232L326.672 186.027L326.705 186.081L326.744 186.132L327.944 185.232ZM327.62 187.176L328.546 188.356L328.557 188.347L327.62 187.176ZM324.632 187.176L324.02 188.546L324.051 188.56L324.083 188.572L324.632 187.176ZM320.672 183.864L319.489 184.786L319.496 184.796L319.504 184.805L320.672 183.864ZM316.064 176.844L317.355 176.081L316.492 174.619L315.147 175.657L316.064 176.844ZM311.888 179.796L311.075 178.535L310.388 178.978V179.796H311.888ZM311.924 181.56L310.425 181.614L310.426 181.642L310.428 181.671L311.924 181.56ZM311.996 183H310.496V183.026L310.497 183.052L311.996 183ZM311.672 186.96L312.881 187.847L312.895 187.829L312.908 187.81L311.672 186.96ZM308.828 187.14L307.901 188.319L307.928 188.341L307.956 188.361L308.828 187.14ZM308.216 186.024L309.699 185.801L309.698 185.794L309.697 185.787L308.216 186.024ZM308.216 177.168L306.721 177.041L306.721 177.046L308.216 177.168ZM308.432 170.22L306.933 170.276L306.933 170.292L306.934 170.308L308.432 170.22ZM308.216 168.42L306.727 168.606L306.736 168.673L306.75 168.739L308.216 168.42ZM308.576 165.144L309.636 166.205L309.636 166.205L308.576 165.144ZM311.42 165.108L310.399 166.207L310.439 166.245L310.483 166.279L311.42 165.108ZM312.032 166.296L313.529 166.208L313.527 166.181L313.525 166.154L312.032 166.296ZM312.212 171.012L313.71 171.072L313.712 171.042V171.012H312.212ZM312.068 173.604L310.571 173.508L310.57 173.524L310.569 173.539L312.068 173.604ZM311.924 175.692L310.444 175.445L309.931 178.524L312.655 177.001L311.924 175.692ZM316.712 171.768L317.721 172.878L317.721 172.877L316.712 171.768ZM321.824 166.62L320.69 165.638L320.673 165.657L320.657 165.677L321.824 166.62ZM322.292 166.08L323.425 167.062L323.456 167.027L323.485 166.989L322.292 166.08ZM323.264 165.036L324.146 166.249L324.146 166.249L323.264 165.036ZM325.568 165.216L324.585 166.35L324.625 166.384L324.668 166.416L325.568 165.216ZM324.92 168.672L323.859 167.611L323.85 167.621L323.84 167.63L324.92 168.672ZM318.944 174.432L317.945 173.312L317.064 174.098L317.621 175.139L318.944 174.432ZM326.733 186.106C326.755 186.117 326.752 186.118 326.736 186.105C326.719 186.09 326.695 186.064 326.672 186.027L329.216 184.437C328.924 183.971 328.515 183.643 328.074 183.422L326.733 186.106ZM326.744 186.132C326.679 186.046 326.658 185.977 326.654 185.962C326.651 185.949 326.66 185.976 326.66 186.06H329.66C329.66 185.53 329.558 184.885 329.144 184.332L326.744 186.132ZM326.66 186.06C326.66 186.075 326.658 186.076 326.66 186.068C326.662 186.058 326.667 186.044 326.674 186.028C326.682 186.011 326.69 186 326.695 185.994C326.699 185.989 326.697 185.993 326.683 186.005L328.557 188.347C329.268 187.778 329.66 186.978 329.66 186.06H326.66ZM326.693 185.997C326.64 186.038 326.576 186.072 326.432 186.072V189.072C327.2 189.072 327.928 188.842 328.546 188.355L326.693 185.997ZM326.432 186.072C326.147 186.072 325.737 185.999 325.18 185.78L324.083 188.572C324.87 188.881 325.661 189.072 326.432 189.072V186.072ZM325.243 185.806C324.185 185.334 323.043 184.416 321.84 182.923L319.504 184.805C320.892 186.528 322.39 187.818 324.02 188.546L325.243 185.806ZM321.855 182.942C320.64 181.384 319.142 179.107 317.355 176.081L314.772 177.607C316.585 180.677 318.159 183.08 319.489 184.786L321.855 182.942ZM315.147 175.657C313.812 176.687 312.455 177.647 311.075 178.535L312.7 181.057C314.153 180.121 315.579 179.113 316.98 178.031L315.147 175.657ZM310.388 179.796C310.388 180.323 310.4 180.929 310.425 181.614L313.423 181.506C313.399 180.847 313.388 180.277 313.388 179.796H310.388ZM310.428 181.671C310.475 182.312 310.496 182.746 310.496 183H313.496C313.496 182.63 313.468 182.104 313.42 181.449L310.428 181.671ZM310.497 183.052C310.545 184.448 310.568 185.346 310.568 185.772H313.568C313.568 185.286 313.543 184.336 313.495 182.948L310.497 183.052ZM310.568 185.772C310.568 185.835 310.553 185.94 310.436 186.11L312.908 187.81C313.318 187.212 313.568 186.525 313.568 185.772H310.568ZM310.462 186.073C310.467 186.066 310.479 186.051 310.499 186.035C310.519 186.019 310.539 186.007 310.556 185.999C310.59 185.984 310.578 186 310.484 186V189C311.39 189 312.281 188.666 312.881 187.847L310.462 186.073ZM310.484 186C310.171 186 309.954 185.975 309.812 185.944C309.667 185.913 309.653 185.886 309.7 185.919L307.956 188.361C308.686 188.882 309.635 189 310.484 189V186ZM309.754 185.961C309.744 185.953 309.742 185.949 309.738 185.942C309.732 185.931 309.713 185.891 309.699 185.801L306.732 186.247C306.853 187.049 307.223 187.787 307.901 188.319L309.754 185.961ZM309.697 185.787C309.516 184.658 309.428 183.585 309.428 182.568H306.428C306.428 183.759 306.531 184.99 306.734 186.261L309.697 185.787ZM309.428 182.568C309.428 181.382 309.52 179.63 309.711 177.29L306.721 177.046C306.528 179.41 306.428 181.258 306.428 182.568H309.428ZM309.71 177.295C309.903 175.03 310.004 173.286 310.004 172.092H307.004C307.004 173.154 306.912 174.794 306.721 177.041L309.71 177.295ZM310.004 172.092C310.004 171.615 309.978 170.956 309.929 170.132L306.934 170.308C306.982 171.116 307.004 171.705 307.004 172.092H310.004ZM309.931 170.164C309.904 169.441 309.823 168.751 309.681 168.101L306.75 168.739C306.849 169.193 306.911 169.703 306.933 170.276L309.931 170.164ZM309.704 168.234C309.608 167.464 309.572 167.008 309.572 166.8H306.572C306.572 167.216 306.632 167.84 306.727 168.606L309.704 168.234ZM309.572 166.8C309.572 166.518 309.603 166.343 309.633 166.247C309.66 166.156 309.676 166.165 309.636 166.205L307.515 164.083C306.767 164.832 306.572 165.869 306.572 166.8H309.572ZM309.636 166.205C309.583 166.258 309.641 166.14 310.124 166.14V163.14C309.214 163.14 308.24 163.358 307.515 164.083L309.636 166.205ZM310.124 166.14C310.335 166.14 310.382 166.192 310.399 166.207L312.44 164.009C311.785 163.4 310.969 163.14 310.124 163.14V166.14ZM310.483 166.279C310.495 166.289 310.501 166.296 310.503 166.299C310.505 166.301 310.507 166.304 310.509 166.308C310.513 166.315 310.53 166.351 310.538 166.438L313.525 166.154C313.443 165.289 313.067 164.505 312.357 163.937L310.483 166.279ZM310.534 166.384C310.654 168.415 310.712 169.952 310.712 171.012H313.712C313.712 169.864 313.65 168.257 313.529 166.208L310.534 166.384ZM310.713 170.952C310.69 171.534 310.642 172.384 310.571 173.508L313.565 173.7C313.637 172.568 313.686 171.69 313.71 171.072L310.713 170.952ZM310.569 173.539C310.52 174.674 310.474 175.267 310.444 175.445L313.403 175.939C313.47 175.541 313.52 174.742 313.566 173.669L310.569 173.539ZM312.655 177.001C313.651 176.445 315.379 175.006 317.721 172.878L315.703 170.658C313.292 172.85 311.828 174.027 311.192 174.383L312.655 177.001ZM317.721 172.877C320.133 170.683 321.907 168.904 322.991 167.563L320.657 165.677C319.724 166.832 318.09 168.485 315.702 170.659L317.721 172.877ZM322.957 167.602L323.425 167.062L321.158 165.098L320.69 165.638L322.957 167.602ZM323.485 166.989C323.847 166.514 324.064 166.309 324.146 166.249L322.381 163.823C321.935 164.147 321.504 164.638 321.099 165.171L323.485 166.989ZM324.146 166.249C324.109 166.276 324.092 166.276 324.118 166.269C324.148 166.261 324.218 166.248 324.344 166.248V163.248C323.693 163.248 322.986 163.383 322.381 163.823L324.146 166.249ZM324.344 166.248C324.422 166.248 324.485 166.262 324.585 166.35L326.55 164.082C325.931 163.546 325.178 163.248 324.344 163.248V166.248ZM324.668 166.416C324.724 166.459 324.712 166.464 324.686 166.418C324.674 166.395 324.662 166.366 324.654 166.334C324.646 166.303 324.644 166.277 324.644 166.26H327.644C327.644 165.293 327.154 164.531 326.468 164.016L324.668 166.416ZM324.644 166.26C324.644 166.503 324.522 166.948 323.859 167.611L325.98 169.733C326.949 168.764 327.644 167.601 327.644 166.26H324.644ZM323.84 167.63C321.872 169.669 319.907 171.563 317.945 173.312L319.942 175.552C321.964 173.749 323.983 171.803 325.999 169.714L323.84 167.63ZM317.621 175.139C320.467 180.467 323.452 184.218 326.655 186.064L328.153 183.464C325.692 182.046 323.036 178.909 320.267 173.725L317.621 175.139Z" fill="black"/>
</svg>
