<svg width="329" height="196" viewBox="0 0 329 196" fill="none" xmlns="http://www.w3.org/2000/svg">
<g filter="url(#filter0_i_1_8)">
<path d="M189.744 0H106.154C106.154 0 83.5897 2.48227 80 27.8014V111.702C80 125.603 92.8205 140 106.154 140H189.744C201.538 140 220 129.574 220 111.702V27.8014C220 23.3333 215.385 0 189.744 0Z" fill="#999999"/>
<path d="M189.744 0H106.154C106.154 0 83.5897 2.48227 80 27.8014V111.702C80 125.603 92.8205 140 106.154 140H189.744C201.538 140 220 129.574 220 111.702V27.8014C220 23.3333 215.385 0 189.744 0Z" stroke="black"/>
</g>
<g filter="url(#filter1_d_1_8)">
<path d="M138.487 75.9574C168.002 79.659 188.515 38.945 191.308 36.7376C185.667 108.227 171.821 121.631 164.641 128.582C159.513 132.305 154.027 133.668 152.846 130.567C152.846 130.567 142.59 99.2908 138.487 75.9574Z" fill="black"/>
<path d="M138.487 75.9574C168.002 79.659 188.515 38.945 191.308 36.7376C185.667 108.227 171.821 121.631 164.641 128.582C159.513 132.305 154.027 133.668 152.846 130.567C152.846 130.567 142.59 99.2908 138.487 75.9574Z" stroke="black"/>
</g>
<g filter="url(#filter2_d_1_8)">
<path d="M192.846 30.7801C190.282 27.8014 196.436 21.3475 200.026 18.3688C203.615 18.3688 203.615 24.3262 203.615 24.3262C203.615 24.3262 197.462 33.2624 192.846 30.7801Z" fill="black"/>
</g>
<path d="M19.3562 184.484C19.3562 185.612 19.0922 186.584 18.5642 187.4C18.0602 188.192 17.2202 188.924 16.0442 189.596C15.2522 190.076 14.3282 190.436 13.2722 190.676C12.2162 190.916 11.1482 191.036 10.0682 191.036C8.96416 191.036 7.59616 190.676 5.96416 189.956C4.78816 189.38 3.85216 188.696 3.15616 187.904C2.48416 187.112 2.14816 186.248 2.14816 185.312C2.14816 184.664 2.29216 184.196 2.58016 183.908C2.86816 183.596 3.33616 183.44 3.98416 183.44C4.32016 183.44 4.66816 183.584 5.02816 183.872C5.38816 184.136 5.60416 184.4 5.67616 184.664C6.01216 185.648 6.60016 186.404 7.44016 186.932C8.28016 187.436 9.32416 187.688 10.5722 187.688C12.0122 187.688 13.2122 187.424 14.1722 186.896C15.1562 186.368 15.6482 185.66 15.6482 184.772C15.6482 183.908 15.1202 183.14 14.0642 182.468C13.0082 181.796 11.9282 181.328 10.8242 181.064C9.24016 180.632 7.83616 180.116 6.61216 179.516C5.34016 178.892 4.39216 178.124 3.76816 177.212C3.14416 176.3 2.83216 175.34 2.83216 174.332C2.83216 173.396 3.15616 172.448 3.80416 171.488C4.45216 170.504 5.22016 169.796 6.10816 169.364C6.58816 169.124 7.40416 168.872 8.55616 168.608C9.73216 168.32 10.5842 168.176 11.1122 168.176C11.8082 168.176 12.5762 168.26 13.4162 168.428C14.2562 168.596 14.9402 168.836 15.4682 169.148C16.5242 169.748 17.3042 170.288 17.8082 170.768C18.3122 171.248 18.5642 171.848 18.5642 172.568C18.5642 173 18.3962 173.384 18.0602 173.72C17.7482 174.056 17.1962 174.224 16.4042 174.224C16.2122 174.224 16.0202 174.14 15.8282 173.972C15.6362 173.804 15.3962 173.552 15.1082 173.216C14.7242 172.712 14.3522 172.376 13.9922 172.208C13.6322 172.088 13.1042 171.956 12.4082 171.812C11.7362 171.668 11.1362 171.596 10.6082 171.596C10.0322 171.596 9.43216 171.716 8.80816 171.956C8.18416 172.196 7.65616 172.544 7.22416 173C6.81616 173.432 6.61216 173.936 6.61216 174.512C6.61216 174.992 6.82816 175.412 7.26016 175.772C7.71616 176.108 8.25616 176.384 8.88016 176.6C9.60016 176.888 10.3802 177.14 11.2202 177.356C12.3242 177.692 13.2242 178.004 13.9202 178.292C14.6402 178.556 15.3362 178.892 16.0082 179.3C17.1842 179.996 18.0362 180.716 18.5642 181.46C19.0922 182.18 19.3562 183.188 19.3562 184.484ZM41.227 168.104C42.835 168.104 44.299 168.308 45.619 168.716C46.939 169.1 48.019 169.676 48.859 170.444C50.371 171.812 51.427 173.312 52.027 174.944C52.651 176.552 52.963 178.616 52.963 181.136C52.963 181.664 52.891 182.144 52.747 182.576C52.627 183.008 52.423 183.56 52.135 184.232C51.775 184.976 51.559 185.564 51.487 185.996C51.007 186.836 50.215 187.64 49.111 188.408C48.031 189.176 46.855 189.8 45.583 190.28C44.311 190.76 43.195 191 42.235 191C37.603 191 34.303 189.416 32.335 186.248C31.783 185.36 31.351 184.436 31.039 183.476C30.751 182.516 30.607 181.58 30.607 180.668C30.607 178.22 31.039 176.096 31.903 174.296C32.791 172.472 34.015 171.056 35.575 170.048C36.511 169.496 37.483 169.04 38.491 168.68C39.523 168.296 40.435 168.104 41.227 168.104ZM34.351 180.776C34.351 182.072 34.639 183.14 35.215 183.98C35.815 184.82 36.727 185.732 37.951 186.716C38.959 187.1 39.643 187.352 40.003 187.472C40.363 187.568 40.771 187.616 41.227 187.616C43.651 187.616 45.583 186.956 47.023 185.636C48.463 184.316 49.183 182.504 49.183 180.2C49.183 178.376 48.979 176.936 48.571 175.88C48.163 174.824 47.431 173.876 46.375 173.036C45.823 172.58 45.115 172.244 44.251 172.028C43.411 171.812 42.499 171.704 41.515 171.704C40.027 171.704 38.743 172.148 37.663 173.036C36.583 173.9 35.755 175.028 35.179 176.42C34.627 177.812 34.351 179.264 34.351 180.776ZM82.9009 171.668C83.2609 172.1 83.5129 172.448 83.6569 172.712C83.8009 172.976 83.8729 173.228 83.8729 173.468C83.8729 173.756 83.6809 174.092 83.2969 174.476C82.9369 174.86 82.5769 175.052 82.2169 175.052C81.7369 175.052 81.3529 174.98 81.0649 174.836C80.7769 174.692 80.5369 174.464 80.3449 174.152C79.8889 173.432 79.3609 172.796 78.7609 172.244C78.1609 171.668 77.3569 171.38 76.3489 171.38C75.3649 171.38 74.2609 171.608 73.0369 172.064C71.8129 172.52 70.9129 173.084 70.3369 173.756C69.0409 175.34 68.3929 177.44 68.3929 180.056C68.3929 182.144 69.0409 183.932 70.3369 185.42C71.7049 186.956 73.4329 187.724 75.5209 187.724C76.4809 187.724 77.5249 187.556 78.6529 187.22C79.8049 186.86 80.7169 186.284 81.3889 185.492H81.3529C81.7849 185.036 82.3249 184.808 82.9729 184.808C83.3569 184.808 83.7169 184.976 84.0529 185.312C84.4129 185.648 84.5929 185.984 84.5929 186.32C84.5929 186.68 84.5329 187.004 84.4129 187.292C84.3169 187.556 84.1249 187.856 83.8369 188.192C82.8529 189.272 81.5929 190.028 80.0569 190.46C78.5449 190.868 76.8169 191.072 74.8729 191.072C73.2649 191.072 71.7169 190.688 70.2289 189.92C68.7649 189.152 67.5529 188.18 66.5929 187.004C66.1129 186.308 65.6449 185.312 65.1889 184.016C64.7569 182.696 64.5409 181.628 64.5409 180.812C64.5409 178.724 64.8529 176.744 65.4769 174.872C66.1249 172.976 67.0849 171.464 68.3569 170.336C69.1969 169.568 70.4089 168.992 71.9929 168.608C73.5769 168.224 75.0289 168.032 76.3489 168.032C77.4049 168.032 78.3049 168.188 79.0489 168.5C79.8169 168.788 80.4769 169.184 81.0289 169.688C81.5809 170.168 82.2049 170.828 82.9009 171.668ZM98.4738 191.108C97.7538 191.108 97.2498 190.892 96.9618 190.46C96.6978 190.028 96.5658 189.416 96.5658 188.624L96.6018 183.944L96.5658 183.224C96.4458 180.944 96.3858 179.06 96.3858 177.572L96.5298 173.288L96.5658 171.128C96.5658 170.408 96.5898 169.856 96.6378 169.472C96.6858 169.088 96.8418 168.776 97.1058 168.536C97.3698 168.296 97.7898 168.176 98.3658 168.176C99.0858 168.176 99.6018 168.356 99.9138 168.716C100.226 169.052 100.382 169.64 100.382 170.48L100.346 171.236C100.25 173.156 100.202 174.608 100.202 175.592C100.202 176.672 100.226 177.944 100.274 179.408C100.322 180.848 100.358 181.868 100.382 182.468C100.502 185.036 100.562 187.244 100.562 189.092C100.562 189.812 100.406 190.328 100.094 190.64C99.8058 190.952 99.2658 191.108 98.4738 191.108ZM130.073 190.46C129.761 190.052 129.509 189.668 129.317 189.308C129.149 188.924 128.933 188.396 128.669 187.724C128.237 186.644 127.853 185.852 127.517 185.348C126.053 185.564 124.781 185.672 123.701 185.672C123.173 185.672 122.573 185.66 121.901 185.636C121.253 185.612 120.749 185.588 120.389 185.564C119.141 185.468 118.145 185.42 117.401 185.42C117.089 185.804 116.837 186.212 116.645 186.644C116.477 187.052 116.285 187.568 116.069 188.192C115.709 189.248 115.361 190.052 115.025 190.604C114.809 190.964 114.389 191.144 113.765 191.144C113.237 191.144 112.745 191.036 112.289 190.82C111.857 190.58 111.641 190.256 111.641 189.848C111.833 188.936 112.133 187.976 112.541 186.968C112.973 185.936 113.585 184.568 114.377 182.864L115.817 179.336C116.609 177.32 117.329 175.592 117.977 174.152C118.649 172.712 119.525 171.008 120.605 169.04C120.749 168.752 120.989 168.512 121.325 168.32C121.661 168.104 122.033 167.996 122.441 167.996C122.897 167.996 123.221 168.032 123.413 168.104C123.629 168.152 123.797 168.248 123.917 168.392C124.037 168.512 124.217 168.776 124.457 169.184C125.273 170.456 125.969 171.764 126.545 173.108C127.145 174.452 127.901 176.312 128.813 178.688L129.569 180.596C130.241 182.324 130.817 183.776 131.297 184.952C131.801 186.104 132.353 187.16 132.953 188.12C133.337 188.744 133.529 189.176 133.529 189.416C133.529 189.992 133.349 190.436 132.989 190.748C132.653 191.036 132.209 191.18 131.657 191.18C130.961 191.18 130.433 190.94 130.073 190.46ZM126.473 182.396C126.137 181.7 125.693 180.5 125.141 178.796C124.949 178.172 124.805 177.74 124.709 177.5C123.965 175.34 123.221 173.624 122.477 172.352C122.021 173.504 121.349 174.992 120.461 176.816C119.909 177.848 119.153 179.696 118.193 182.36C119.729 182.552 121.469 182.648 123.413 182.648C124.757 182.648 125.777 182.564 126.473 182.396ZM146.441 168.14C147.473 168.14 148.073 168.68 148.241 169.76C148.529 171.8 148.673 174.308 148.673 177.284L148.637 181.82V183.188C148.637 184.676 148.601 186.056 148.529 187.328C149.537 187.424 150.437 187.472 151.229 187.472C151.925 187.472 152.849 187.448 154.001 187.4L156.197 187.364C156.869 187.364 157.421 187.4 157.853 187.472C158.309 187.52 158.777 187.664 159.257 187.904C159.761 188.12 160.013 188.528 160.013 189.128C160.013 189.608 159.857 190.04 159.545 190.424C159.257 190.808 158.909 191 158.501 191C158.213 191 157.757 190.952 157.133 190.856C156.005 190.688 154.925 190.604 153.893 190.604C153.557 190.604 153.173 190.628 152.741 190.676C152.333 190.7 152.033 190.712 151.841 190.712C151.265 190.784 150.689 190.82 150.113 190.82C148.937 190.82 147.881 190.76 146.945 190.64C146.465 190.592 145.985 190.412 145.505 190.1C145.025 189.764 144.785 189.284 144.785 188.66C144.785 187.916 144.821 186.992 144.893 185.888C144.989 183.776 145.037 181.892 145.037 180.236C145.037 179.276 145.001 178.244 144.929 177.14C144.857 176.036 144.809 175.316 144.785 174.98C144.617 173.012 144.533 171.332 144.533 169.94C144.533 169.316 144.677 168.86 144.965 168.572C145.277 168.284 145.769 168.14 146.441 168.14ZM202.87 184.484C202.87 185.612 202.606 186.584 202.078 187.4C201.574 188.192 200.734 188.924 199.558 189.596C198.766 190.076 197.842 190.436 196.786 190.676C195.73 190.916 194.662 191.036 193.582 191.036C192.478 191.036 191.11 190.676 189.478 189.956C188.302 189.38 187.366 188.696 186.67 187.904C185.998 187.112 185.662 186.248 185.662 185.312C185.662 184.664 185.806 184.196 186.094 183.908C186.382 183.596 186.85 183.44 187.498 183.44C187.834 183.44 188.182 183.584 188.542 183.872C188.902 184.136 189.118 184.4 189.19 184.664C189.526 185.648 190.114 186.404 190.954 186.932C191.794 187.436 192.838 187.688 194.086 187.688C195.526 187.688 196.726 187.424 197.686 186.896C198.67 186.368 199.162 185.66 199.162 184.772C199.162 183.908 198.634 183.14 197.578 182.468C196.522 181.796 195.442 181.328 194.338 181.064C192.754 180.632 191.35 180.116 190.126 179.516C188.854 178.892 187.906 178.124 187.282 177.212C186.658 176.3 186.346 175.34 186.346 174.332C186.346 173.396 186.67 172.448 187.318 171.488C187.966 170.504 188.734 169.796 189.622 169.364C190.102 169.124 190.918 168.872 192.07 168.608C193.246 168.32 194.098 168.176 194.626 168.176C195.322 168.176 196.09 168.26 196.93 168.428C197.77 168.596 198.454 168.836 198.982 169.148C200.038 169.748 200.818 170.288 201.322 170.768C201.826 171.248 202.078 171.848 202.078 172.568C202.078 173 201.91 173.384 201.574 173.72C201.262 174.056 200.71 174.224 199.918 174.224C199.726 174.224 199.534 174.14 199.342 173.972C199.15 173.804 198.91 173.552 198.622 173.216C198.238 172.712 197.866 172.376 197.506 172.208C197.146 172.088 196.618 171.956 195.922 171.812C195.25 171.668 194.65 171.596 194.122 171.596C193.546 171.596 192.946 171.716 192.322 171.956C191.698 172.196 191.17 172.544 190.738 173C190.33 173.432 190.126 173.936 190.126 174.512C190.126 174.992 190.342 175.412 190.774 175.772C191.23 176.108 191.77 176.384 192.394 176.6C193.114 176.888 193.894 177.14 194.734 177.356C195.838 177.692 196.738 178.004 197.434 178.292C198.154 178.556 198.85 178.892 199.522 179.3C200.698 179.996 201.55 180.716 202.078 181.46C202.606 182.18 202.87 183.188 202.87 184.484ZM212.645 170.012C212.645 168.98 213.401 168.464 214.913 168.464C215.561 168.464 216.797 168.488 218.621 168.536C220.637 168.632 222.161 168.68 223.193 168.68C224.033 168.68 225.053 168.632 226.253 168.536C227.069 168.488 227.585 168.464 227.801 168.464C229.121 168.512 230.237 168.752 231.149 169.184C231.413 169.304 231.629 169.448 231.797 169.616C231.965 169.784 232.049 170.06 232.049 170.444C232.049 170.972 231.881 171.428 231.545 171.812C231.209 172.172 230.801 172.352 230.321 172.352C229.793 172.352 229.025 172.28 228.017 172.136C227.129 171.968 226.349 171.884 225.677 171.884C225.029 171.884 224.537 171.896 224.201 171.92C224.129 172.712 224.093 174.608 224.093 177.608C224.093 181.184 224.201 184.808 224.417 188.48L224.489 189.524C224.489 190.508 223.925 191 222.797 191C221.909 191 221.309 190.796 220.997 190.388C220.685 189.956 220.529 189.308 220.529 188.444C220.529 186.74 220.481 184.616 220.385 182.072C220.289 179.96 220.241 178.46 220.241 177.572C220.241 176.972 220.313 175.136 220.457 172.064L216.245 172.1C214.901 172.1 213.965 171.98 213.437 171.74C212.909 171.476 212.645 170.9 212.645 170.012ZM252.841 168.104C254.449 168.104 255.913 168.308 257.233 168.716C258.553 169.1 259.633 169.676 260.473 170.444C261.985 171.812 263.041 173.312 263.641 174.944C264.265 176.552 264.577 178.616 264.577 181.136C264.577 181.664 264.505 182.144 264.361 182.576C264.241 183.008 264.037 183.56 263.749 184.232C263.389 184.976 263.173 185.564 263.101 185.996C262.621 186.836 261.829 187.64 260.725 188.408C259.645 189.176 258.469 189.8 257.197 190.28C255.925 190.76 254.809 191 253.849 191C249.217 191 245.917 189.416 243.949 186.248C243.397 185.36 242.965 184.436 242.653 183.476C242.365 182.516 242.221 181.58 242.221 180.668C242.221 178.22 242.653 176.096 243.517 174.296C244.405 172.472 245.629 171.056 247.189 170.048C248.125 169.496 249.097 169.04 250.105 168.68C251.137 168.296 252.049 168.104 252.841 168.104ZM245.965 180.776C245.965 182.072 246.253 183.14 246.829 183.98C247.429 184.82 248.341 185.732 249.565 186.716C250.573 187.1 251.257 187.352 251.617 187.472C251.977 187.568 252.385 187.616 252.841 187.616C255.265 187.616 257.197 186.956 258.637 185.636C260.077 184.316 260.797 182.504 260.797 180.2C260.797 178.376 260.593 176.936 260.185 175.88C259.777 174.824 259.045 173.876 257.989 173.036C257.437 172.58 256.729 172.244 255.865 172.028C255.025 171.812 254.113 171.704 253.129 171.704C251.641 171.704 250.357 172.148 249.277 173.036C248.197 173.9 247.369 175.028 246.793 176.42C246.241 177.812 245.965 179.264 245.965 180.776ZM294.515 171.02C294.875 171.452 295.127 171.8 295.271 172.064C295.415 172.328 295.487 172.58 295.487 172.82C295.487 173.108 295.295 173.444 294.911 173.828C294.551 174.212 294.191 174.404 293.831 174.404C293.351 174.404 292.967 174.332 292.679 174.188C292.391 174.044 292.151 173.816 291.959 173.504C291.815 173.288 291.479 173.012 290.951 172.676C290.423 172.316 289.823 172.016 289.151 171.776C288.479 171.512 287.855 171.38 287.279 171.38C286.343 171.38 285.371 171.608 284.363 172.064C283.379 172.496 282.587 173.06 281.987 173.756C281.483 174.38 281.027 175.316 280.619 176.564C280.211 177.788 280.007 178.952 280.007 180.056C280.007 181.448 280.307 182.732 280.907 183.908C281.531 185.06 282.419 185.984 283.571 186.68C284.747 187.376 286.151 187.724 287.783 187.724C288.671 187.724 289.427 187.592 290.051 187.328C290.699 187.064 291.395 186.68 292.139 186.176C292.715 185.816 293.159 185.552 293.471 185.384C293.807 185.216 294.179 185.132 294.587 185.132C294.971 185.132 295.331 185.3 295.667 185.636C296.027 185.972 296.207 186.308 296.207 186.644C296.207 187.268 295.835 187.892 295.091 188.516C294.179 189.26 293.339 189.824 292.571 190.208C291.803 190.568 291.011 190.808 290.195 190.928C289.403 191.024 288.383 191.072 287.135 191.072C285.479 191.072 283.799 190.676 282.095 189.884C280.415 189.092 279.119 188.132 278.207 187.004C277.727 186.308 277.259 185.312 276.803 184.016C276.371 182.696 276.155 181.628 276.155 180.812C276.155 178.772 276.503 176.804 277.199 174.908C277.895 173.012 278.891 171.488 280.187 170.336C281.051 169.544 282.119 168.968 283.391 168.608C284.687 168.224 285.935 168.032 287.135 168.032C288.671 168.032 289.991 168.284 291.095 168.788C292.223 169.292 293.363 170.036 294.515 171.02ZM327.404 188.264C327.644 188.384 327.824 188.54 327.944 188.732C328.088 188.924 328.16 189.2 328.16 189.56C328.16 190.016 327.98 190.388 327.62 190.676C327.284 190.94 326.888 191.072 326.432 191.072C325.904 191.072 325.304 190.94 324.632 190.676C323.288 190.076 321.968 188.972 320.672 187.364C319.4 185.732 317.864 183.392 316.064 180.344C314.696 181.4 313.304 182.384 311.888 183.296C311.888 183.8 311.9 184.388 311.924 185.06C311.972 185.708 311.996 186.188 311.996 186.5C312.044 187.892 312.068 188.816 312.068 189.272C312.068 189.68 311.936 190.076 311.672 190.46C311.408 190.82 311.012 191 310.484 191C309.716 191 309.164 190.88 308.828 190.64C308.492 190.376 308.288 190.004 308.216 189.524C308.024 188.324 307.928 187.172 307.928 186.068C307.928 184.82 308.024 183.02 308.216 180.668C308.408 178.412 308.504 176.72 308.504 175.592C308.504 175.16 308.48 174.536 308.432 173.72C308.408 173.072 308.336 172.472 308.216 171.92C308.12 171.152 308.072 170.612 308.072 170.3C308.072 169.532 308.24 168.98 308.576 168.644C308.912 168.308 309.428 168.14 310.124 168.14C310.652 168.14 311.084 168.296 311.42 168.608C311.78 168.896 311.984 169.292 312.032 169.796C312.152 171.836 312.212 173.408 312.212 174.512C312.188 175.112 312.14 175.976 312.068 177.104C312.02 178.208 311.972 178.904 311.924 179.192C312.74 178.736 314.336 177.428 316.712 175.268C319.112 173.084 320.816 171.368 321.824 170.12L322.292 169.58C322.676 169.076 323 168.728 323.264 168.536C323.528 168.344 323.888 168.248 324.344 168.248C324.8 168.248 325.208 168.404 325.568 168.716C325.952 169.004 326.144 169.352 326.144 169.76C326.144 170.552 325.736 171.356 324.92 172.172C322.928 174.236 320.936 176.156 318.944 177.932C321.752 183.188 324.572 186.632 327.404 188.264Z" fill="white"/>
<path d="M18.5642 187.4L17.3048 186.585L17.2987 186.595L18.5642 187.4ZM16.0442 189.596L15.3 188.294L15.2832 188.303L15.2667 188.313L16.0442 189.596ZM13.2722 190.676L13.6046 192.139L13.2722 190.676ZM5.96416 189.956L5.30436 191.303L5.33128 191.316L5.3587 191.328L5.96416 189.956ZM3.15616 187.904L2.0124 188.874L2.02082 188.884L2.02941 188.894L3.15616 187.904ZM2.58016 183.908L3.64082 184.969L3.66202 184.947L3.68236 184.925L2.58016 183.908ZM5.02816 183.872L4.09112 185.043L4.11571 185.063L4.14111 185.082L5.02816 183.872ZM5.67616 184.664L4.22901 185.059L4.24141 185.104L4.25663 185.149L5.67616 184.664ZM7.44016 186.932L6.6419 188.202L6.65507 188.21L6.66842 188.218L7.44016 186.932ZM14.1722 186.896L13.4629 185.574L13.4561 185.578L13.4493 185.582L14.1722 186.896ZM14.0642 182.468L14.8695 181.203L14.8695 181.203L14.0642 182.468ZM10.8242 181.064L10.4295 182.511L10.4523 182.517L10.4753 182.523L10.8242 181.064ZM6.61216 179.516L5.95152 180.863L5.95192 180.863L6.61216 179.516ZM3.76816 177.212L2.5302 178.059L2.5302 178.059L3.76816 177.212ZM3.80416 171.488L5.04743 172.327L5.05221 172.32L5.05691 172.313L3.80416 171.488ZM6.10816 169.364L6.76436 170.713L6.77169 170.709L6.77898 170.706L6.10816 169.364ZM8.55616 168.608L8.89122 170.07L8.90211 170.068L8.91296 170.065L8.55616 168.608ZM13.4162 168.428L13.7103 166.957L13.7103 166.957L13.4162 168.428ZM15.4682 169.148L14.7051 170.439L14.7161 170.446L14.7271 170.452L15.4682 169.148ZM18.0602 173.72L16.9995 172.659L16.9799 172.679L16.961 172.699L18.0602 173.72ZM15.8282 173.972L14.8404 175.101L14.8404 175.101L15.8282 173.972ZM15.1082 173.216L13.915 174.125L13.9412 174.159L13.9693 174.192L15.1082 173.216ZM13.9922 172.208L14.6265 170.849L14.5483 170.812L14.4665 170.785L13.9922 172.208ZM12.4082 171.812L12.0939 173.279L12.1042 173.281L12.4082 171.812ZM8.80816 171.956L9.34663 173.356L9.34663 173.356L8.80816 171.956ZM7.22416 173L6.13523 171.968L6.13364 171.97L7.22416 173ZM7.26016 175.772L6.29988 176.924L6.3343 176.953L6.37036 176.98L7.26016 175.772ZM8.88016 176.6L9.43724 175.207L9.40433 175.194L9.37082 175.183L8.88016 176.6ZM11.2202 177.356L11.6569 175.921L11.6255 175.911L11.5937 175.903L11.2202 177.356ZM13.9202 178.292L13.3466 179.678L13.375 179.69L13.4038 179.7L13.9202 178.292ZM16.0082 179.3L15.2297 180.582L15.2369 180.587L15.2442 180.591L16.0082 179.3ZM18.5642 181.46L17.3409 182.328L17.3477 182.338L17.3546 182.347L18.5642 181.46ZM17.8562 184.484C17.8562 185.37 17.6518 186.049 17.3048 186.585L19.8235 188.215C20.5325 187.119 20.8562 185.854 20.8562 184.484H17.8562ZM17.2987 186.595C16.9705 187.11 16.3518 187.693 15.3 188.294L16.7884 190.898C18.0885 190.155 19.1498 189.274 19.8297 188.205L17.2987 186.595ZM15.2667 188.313C14.6335 188.697 13.8647 189.003 12.9397 189.213L13.6046 192.139C14.7917 191.869 15.8708 191.455 16.8216 190.879L15.2667 188.313ZM12.9397 189.213C11.9925 189.429 11.036 189.536 10.0682 189.536V192.536C11.2603 192.536 12.4398 192.403 13.6046 192.139L12.9397 189.213ZM10.0682 189.536C9.26203 189.536 8.11444 189.265 6.56962 188.584L5.3587 191.328C7.07788 192.087 8.66628 192.536 10.0682 192.536V189.536ZM6.62396 188.609C5.58401 188.1 4.82086 187.526 4.28291 186.914L2.02941 188.894C2.88346 189.866 3.99231 190.66 5.30436 191.303L6.62396 188.609ZM4.29992 186.934C3.83092 186.381 3.64816 185.853 3.64816 185.312H0.648159C0.648159 186.643 1.13739 187.843 2.0124 188.874L4.29992 186.934ZM3.64816 185.312C3.64816 185.092 3.67338 184.97 3.68983 184.916C3.70433 184.869 3.70152 184.908 3.64082 184.969L1.5195 182.847C0.822596 183.544 0.648159 184.493 0.648159 185.312H3.64816ZM3.68236 184.925C3.62869 184.984 3.58853 184.991 3.6215 184.98C3.66315 184.966 3.77381 184.94 3.98416 184.94V181.94C3.13639 181.94 2.17042 182.14 1.47795 182.891L3.68236 184.925ZM3.98416 184.94C3.93292 184.94 3.90953 184.928 3.92363 184.934C3.94156 184.941 3.99783 184.969 4.09112 185.043L5.9652 182.701C5.43729 182.278 4.76809 181.94 3.98416 181.94V184.94ZM4.14111 185.082C4.19315 185.12 4.23102 185.151 4.25757 185.176C4.28422 185.2 4.29652 185.215 4.29922 185.218C4.30582 185.226 4.26028 185.173 4.22901 185.059L7.1233 184.269C6.92113 183.528 6.38896 183.01 5.9152 182.662L4.14111 185.082ZM4.25663 185.149C4.69791 186.441 5.49625 187.482 6.6419 188.202L8.23842 185.662C7.70406 185.326 7.3264 184.855 7.09568 184.179L4.25663 185.149ZM6.66842 188.218C7.79732 188.896 9.12568 189.188 10.5722 189.188V186.188C9.52263 186.188 8.763 185.976 8.2119 185.646L6.66842 188.218ZM10.5722 189.188C12.188 189.188 13.6548 188.892 14.895 188.21L13.4493 185.582C12.7695 185.956 11.8363 186.188 10.5722 186.188V189.188ZM14.8814 188.218C16.2045 187.508 17.1482 186.362 17.1482 184.772H14.1482C14.1482 184.958 14.1078 185.228 13.4629 185.574L14.8814 188.218ZM17.1482 184.772C17.1482 183.188 16.1479 182.016 14.8695 181.203L13.2588 183.733C14.0924 184.264 14.1482 184.628 14.1482 184.772H17.1482ZM14.8695 181.203C13.6874 180.45 12.4546 179.912 11.173 179.605L10.4753 182.523C11.4017 182.744 12.3289 183.142 13.2588 183.733L14.8695 181.203ZM11.2188 179.617C9.70845 179.205 8.39608 178.72 7.2724 178.169L5.95192 180.863C7.27624 181.512 8.77187 182.059 10.4295 182.511L11.2188 179.617ZM7.2728 178.169C6.16901 177.628 5.44837 177.011 5.00612 176.365L2.5302 178.059C3.33595 179.237 4.51131 180.156 5.95152 180.863L7.2728 178.169ZM5.00612 176.365C4.53564 175.677 4.33216 175.009 4.33216 174.332H1.33216C1.33216 175.671 1.75268 176.923 2.5302 178.059L5.00612 176.365ZM4.33216 174.332C4.33216 173.759 4.52678 173.099 5.04743 172.327L2.56089 170.649C1.78554 171.797 1.33216 173.033 1.33216 174.332H4.33216ZM5.05691 172.313C5.58549 171.51 6.16172 171.006 6.76436 170.713L5.45196 168.015C4.2786 168.586 3.31883 169.498 2.5514 170.663L5.05691 172.313ZM6.77898 170.706C7.08651 170.552 7.7508 170.331 8.89122 170.07L8.22109 167.146C7.05751 167.413 6.08981 167.696 5.43734 168.022L6.77898 170.706ZM8.91296 170.065C10.083 169.778 10.781 169.676 11.1122 169.676V166.676C10.3873 166.676 9.38136 166.862 8.19936 167.151L8.91296 170.065ZM11.1122 169.676C11.6899 169.676 12.3576 169.746 13.122 169.899L13.7103 166.957C12.7947 166.774 11.9265 166.676 11.1122 166.676V169.676ZM13.122 169.899C13.8572 170.046 14.3672 170.24 14.7051 170.439L16.2313 167.857C15.5131 167.432 14.6551 167.146 13.7103 166.957L13.122 169.899ZM14.7271 170.452C15.7431 171.029 16.4002 171.499 16.7737 171.854L18.8426 169.682C18.2081 169.077 17.3053 168.467 16.2092 167.844L14.7271 170.452ZM16.7737 171.854C16.9691 172.04 17.0642 172.243 17.0642 172.568H20.0642C20.0642 171.453 19.6553 170.456 18.8426 169.682L16.7737 171.854ZM17.0642 172.568C17.0642 172.578 17.0632 172.582 17.0635 172.581C17.0637 172.579 17.0642 172.578 17.0639 172.579C17.0636 172.58 17.0606 172.586 17.0518 172.599C17.0428 172.612 17.0267 172.632 16.9995 172.659L19.1208 174.781C19.7072 174.194 20.0642 173.439 20.0642 172.568H17.0642ZM16.961 172.699C17.0263 172.629 17.0625 172.636 16.9754 172.663C16.8826 172.691 16.7031 172.724 16.4042 172.724V175.724C17.3277 175.724 18.4148 175.542 19.1594 174.741L16.961 172.699ZM16.4042 172.724C16.6807 172.724 16.8257 172.852 16.8159 172.843L14.8404 175.101C15.2147 175.428 15.7436 175.724 16.4042 175.724V172.724ZM16.8159 172.843C16.7031 172.744 16.5169 172.555 16.247 172.24L13.9693 174.192C14.2754 174.549 14.5693 174.864 14.8404 175.101L16.8159 172.843ZM16.3013 172.307C15.8487 171.713 15.2996 171.163 14.6265 170.849L13.3578 173.567C13.4047 173.589 13.5997 173.711 13.915 174.125L16.3013 172.307ZM14.4665 170.785C14.0218 170.637 13.4253 170.491 12.7121 170.343L12.1042 173.281C12.7831 173.421 13.2425 173.539 13.5178 173.631L14.4665 170.785ZM12.7225 170.345C11.9762 170.185 11.2679 170.096 10.6082 170.096V173.096C11.0044 173.096 11.4961 173.151 12.0939 173.279L12.7225 170.345ZM10.6082 170.096C9.82101 170.096 9.03833 170.26 8.26969 170.556L9.34663 173.356C9.82599 173.172 10.2433 173.096 10.6082 173.096V170.096ZM8.26969 170.556C7.45076 170.871 6.73077 171.34 6.13523 171.968L8.31309 174.032C8.58155 173.748 8.91756 173.521 9.34663 173.356L8.26969 170.556ZM6.13364 171.97C5.47188 172.671 5.11216 173.54 5.11216 174.512H8.11216C8.11216 174.332 8.16044 174.193 8.31468 174.03L6.13364 171.97ZM5.11216 174.512C5.11216 175.516 5.5911 176.334 6.29988 176.924L8.22044 174.62C8.13006 174.544 8.10828 174.501 8.10809 174.501C8.10778 174.5 8.10969 174.504 8.11124 174.511C8.11276 174.517 8.11216 174.518 8.11216 174.512H5.11216ZM6.37036 176.98C6.9663 177.419 7.64573 177.76 8.38949 178.017L9.37082 175.183C8.86659 175.008 8.46602 174.797 8.14996 174.564L6.37036 176.98ZM8.32307 177.993C9.10942 178.307 9.95139 178.579 10.8466 178.809L11.5937 175.903C10.8089 175.701 10.0909 175.469 9.43724 175.207L8.32307 177.993ZM10.7834 178.791C11.8626 179.119 12.7123 179.416 13.3466 179.678L14.4937 176.906C13.736 176.592 12.7857 176.265 11.6569 175.921L10.7834 178.791ZM13.4038 179.7C14.0303 179.93 14.6387 180.223 15.2297 180.582L16.7866 178.018C16.0336 177.561 15.2501 177.182 14.4365 176.884L13.4038 179.7ZM15.2442 180.591C16.3211 181.228 16.9798 181.819 17.3409 182.328L19.7874 180.592C19.0925 179.613 18.0472 178.764 16.7721 178.009L15.2442 180.591ZM17.3546 182.347C17.6259 182.717 17.8562 183.369 17.8562 184.484H20.8562C20.8562 183.007 20.5584 181.643 19.7738 180.573L17.3546 182.347ZM45.619 168.716L45.176 170.149L45.188 170.153L45.2 170.156L45.619 168.716ZM48.859 170.444L47.8468 171.551L47.8526 171.556L48.859 170.444ZM52.027 174.944L50.6191 175.462L50.6238 175.474L50.6286 175.487L52.027 174.944ZM52.747 182.576L51.324 182.102L51.3119 182.138L51.3017 182.175L52.747 182.576ZM52.135 184.232L53.4852 184.885L53.5002 184.854L53.5137 184.823L52.135 184.232ZM51.487 185.996L52.7894 186.74L52.9225 186.507L52.9666 186.243L51.487 185.996ZM49.111 188.408L48.2544 187.177L48.248 187.181L48.2417 187.186L49.111 188.408ZM32.335 186.248L33.6092 185.456L33.6089 185.456L32.335 186.248ZM31.039 183.476L29.6023 183.907L29.6072 183.923L29.6125 183.94L31.039 183.476ZM31.903 174.296L30.5543 173.639L30.5507 173.647L31.903 174.296ZM35.575 170.048L34.813 168.756L34.7866 168.772L34.7609 168.788L35.575 170.048ZM38.491 168.68L38.9955 170.093L39.0048 170.089L39.0141 170.086L38.491 168.68ZM35.215 183.98L33.9779 184.828L33.986 184.84L33.9944 184.852L35.215 183.98ZM37.951 186.716L37.0112 187.885L37.1957 188.033L37.417 188.118L37.951 186.716ZM40.003 187.472L39.5287 188.895L39.5722 188.91L39.6165 188.921L40.003 187.472ZM47.023 185.636L48.0366 186.742L48.0366 186.742L47.023 185.636ZM48.571 175.88L47.1718 176.421L47.1718 176.421L48.571 175.88ZM46.375 173.036L45.4197 174.192L45.4304 174.201L45.4412 174.21L46.375 173.036ZM44.251 172.028L43.8774 173.481L43.8872 173.483L44.251 172.028ZM37.663 173.036L38.6 174.207L38.6079 174.201L38.6157 174.195L37.663 173.036ZM35.179 176.42L33.793 175.846L33.7887 175.857L33.7846 175.867L35.179 176.42ZM41.227 169.604C42.7088 169.604 44.0208 169.792 45.176 170.149L46.062 167.283C44.5772 166.824 42.9612 166.604 41.227 166.604V169.604ZM45.2 170.156C46.3446 170.489 47.2081 170.967 47.8468 171.551L49.8712 169.337C48.8299 168.385 47.5334 167.711 46.038 167.276L45.2 170.156ZM47.8526 171.556C49.2157 172.79 50.1162 174.094 50.6191 175.462L53.4349 174.426C52.7378 172.53 51.5263 170.834 49.8654 169.332L47.8526 171.556ZM50.6286 175.487C51.1621 176.861 51.463 178.724 51.463 181.136H54.463C54.463 178.508 54.1399 176.243 53.4254 174.401L50.6286 175.487ZM51.463 181.136C51.463 181.528 51.4096 181.845 51.324 182.102L54.17 183.05C54.3724 182.443 54.463 181.8 54.463 181.136H51.463ZM51.3017 182.175C51.2073 182.515 51.0321 182.998 50.7563 183.641L53.5137 184.823C53.8139 184.122 54.0468 183.501 54.1923 182.977L51.3017 182.175ZM50.7848 183.579C50.4073 184.359 50.1153 185.102 50.0074 185.749L52.9666 186.243C53.0027 186.026 53.1427 185.593 53.4852 184.885L50.7848 183.579ZM50.1846 185.252C49.8496 185.838 49.2425 186.489 48.2544 187.177L49.9676 189.639C51.1875 188.791 52.1644 187.834 52.7894 186.74L50.1846 185.252ZM48.2417 187.186C47.2694 187.877 46.208 188.441 45.0534 188.877L46.1126 191.683C47.502 191.159 48.7926 190.475 49.9803 189.63L48.2417 187.186ZM45.0534 188.877C43.8858 189.317 42.9557 189.5 42.235 189.5V192.5C43.4343 192.5 44.7362 192.203 46.1126 191.683L45.0534 188.877ZM42.235 189.5C37.9772 189.5 35.235 188.074 33.6092 185.456L31.0608 187.04C33.371 190.758 37.2288 192.5 42.235 192.5V189.5ZM33.6089 185.456C33.1186 184.667 32.7388 183.853 32.4656 183.012L29.6125 183.94C29.9632 185.019 30.4474 186.053 31.0611 187.04L33.6089 185.456ZM32.4757 183.045C32.2256 182.211 32.107 181.42 32.107 180.668H29.107C29.107 181.74 29.2764 182.821 29.6023 183.907L32.4757 183.045ZM32.107 180.668C32.107 178.395 32.508 176.502 33.2553 174.945L30.5507 173.647C29.57 175.69 29.107 178.045 29.107 180.668H32.107ZM33.2517 174.953C34.0313 173.351 35.08 172.154 36.3891 171.308L34.7609 168.788C32.9501 169.958 31.5507 171.593 30.5543 173.639L33.2517 174.953ZM36.337 171.34C37.1924 170.836 38.0783 170.42 38.9955 170.093L37.9865 167.267C36.8877 167.66 35.8296 168.156 34.813 168.756L36.337 171.34ZM39.0141 170.086C39.9393 169.742 40.6684 169.604 41.227 169.604V166.604C40.2016 166.604 39.1067 166.85 37.9679 167.274L39.0141 170.086ZM32.851 180.776C32.851 182.292 33.1893 183.678 33.9779 184.828L36.4521 183.132C36.0887 182.602 35.851 181.852 35.851 180.776H32.851ZM33.9944 184.852C34.7039 185.845 35.7298 186.855 37.0112 187.885L38.8908 185.547C37.7242 184.609 36.9261 183.795 36.4356 183.108L33.9944 184.852ZM37.417 188.118C38.4213 188.5 39.134 188.763 39.5287 188.895L40.4773 186.049C40.152 185.941 39.4967 185.7 38.485 185.314L37.417 188.118ZM39.6165 188.921C40.127 189.057 40.6685 189.116 41.227 189.116V186.116C40.8735 186.116 40.599 186.079 40.3895 186.023L39.6165 188.921ZM41.227 189.116C43.9318 189.116 46.2574 188.373 48.0366 186.742L46.0094 184.53C44.9086 185.539 43.3702 186.116 41.227 186.116V189.116ZM48.0366 186.742C49.8424 185.086 50.683 182.842 50.683 180.2H47.683C47.683 182.166 47.0836 183.546 46.0094 184.53L48.0366 186.742ZM50.683 180.2C50.683 178.29 50.4731 176.641 49.9702 175.339L47.1718 176.421C47.4849 177.231 47.683 178.462 47.683 180.2H50.683ZM49.9702 175.339C49.4491 173.991 48.5332 172.836 47.3088 171.862L45.4412 174.21C46.3288 174.916 46.8769 175.657 47.1718 176.421L49.9702 175.339ZM47.3303 171.88C46.5691 171.251 45.6442 170.83 44.6148 170.573L43.8872 173.483C44.5858 173.658 45.0769 173.909 45.4197 174.192L47.3303 171.88ZM44.6246 170.575C43.6474 170.324 42.6084 170.204 41.515 170.204V173.204C42.3896 173.204 43.1746 173.3 43.8774 173.481L44.6246 170.575ZM41.515 170.204C39.7036 170.204 38.0768 170.754 36.7103 171.877L38.6157 174.195C39.4092 173.542 40.3505 173.204 41.515 173.204V170.204ZM36.726 171.865C35.4309 172.901 34.4569 174.242 33.793 175.846L36.565 176.994C37.0531 175.814 37.7351 174.899 38.6 174.207L36.726 171.865ZM33.7846 175.867C33.1622 177.437 32.851 179.077 32.851 180.776H35.851C35.851 179.451 36.0919 178.187 36.5734 176.973L33.7846 175.867ZM82.9009 171.668L81.7459 172.625L81.7486 172.628L82.9009 171.668ZM83.6569 172.712L82.3401 173.43L82.3401 173.43L83.6569 172.712ZM83.2969 174.476L82.2363 173.415L82.2192 173.432L82.2026 173.45L83.2969 174.476ZM81.0649 174.836L81.7358 173.494L81.7358 173.494L81.0649 174.836ZM80.3449 174.152L81.6224 173.366L81.6174 173.358L81.6122 173.349L80.3449 174.152ZM78.7609 172.244L77.7221 173.326L77.7336 173.337L77.7454 173.348L78.7609 172.244ZM70.3369 173.756L69.1981 172.78L69.1869 172.793L69.176 172.806L70.3369 173.756ZM70.3369 185.42L69.2058 186.405L69.2113 186.411L69.2168 186.418L70.3369 185.42ZM78.6529 187.22L79.0812 188.658L79.0908 188.655L79.1004 188.652L78.6529 187.22ZM81.3889 185.492L82.5327 186.462L84.6289 183.992H81.3889V185.492ZM81.3529 185.492L80.264 184.46L77.8656 186.992H81.3529V185.492ZM84.0529 185.312L82.9923 186.373L83.0106 186.391L83.0295 186.409L84.0529 185.312ZM84.4129 187.292L83.0283 186.715L83.015 186.747L83.0033 186.779L84.4129 187.292ZM83.8369 188.192L84.9457 189.202L84.961 189.185L84.9758 189.168L83.8369 188.192ZM80.0569 190.46L80.4477 191.908L80.4554 191.906L80.4631 191.904L80.0569 190.46ZM70.2289 189.92L69.5321 191.248L69.541 191.253L70.2289 189.92ZM66.5929 187.004L65.3581 187.856L65.3926 187.906L65.4309 187.953L66.5929 187.004ZM65.1889 184.016L63.7633 184.483L63.7685 184.498L63.774 184.514L65.1889 184.016ZM65.4769 174.872L64.0575 174.387L64.0539 174.398L65.4769 174.872ZM68.3569 170.336L69.3522 171.458L69.3607 171.451L69.3691 171.443L68.3569 170.336ZM71.9929 168.608L71.6395 167.15L71.6395 167.15L71.9929 168.608ZM79.0489 168.5L78.4688 169.883L78.4954 169.894L78.5223 169.904L79.0489 168.5ZM81.0289 169.688L80.0175 170.796L80.031 170.808L80.0447 170.82L81.0289 169.688ZM81.7486 172.628C82.09 173.038 82.2672 173.297 82.3401 173.43L84.9738 171.994C84.7587 171.599 84.4319 171.162 84.0533 170.708L81.7486 172.628ZM82.3401 173.43C82.3667 173.479 82.3751 173.506 82.3767 173.511C82.3779 173.515 82.3729 173.5 82.3729 173.468H85.3729C85.3729 172.921 85.2081 172.423 84.9738 171.994L82.3401 173.43ZM82.3729 173.468C82.3729 173.276 82.4359 173.175 82.4266 173.192C82.4237 173.197 82.4099 173.22 82.3776 173.26C82.3456 173.3 82.2998 173.352 82.2363 173.415L84.3576 175.537C84.8004 175.094 85.3729 174.385 85.3729 173.468H82.3729ZM82.2026 173.45C82.1548 173.501 82.1169 173.535 82.0899 173.557C82.063 173.578 82.0498 173.585 82.0511 173.584C82.0529 173.584 82.0696 173.575 82.1004 173.567C82.1321 173.558 82.172 173.552 82.2169 173.552V176.552C83.1517 176.552 83.8798 176.047 84.3912 175.502L82.2026 173.45ZM82.2169 173.552C82.0496 173.552 81.9284 173.539 81.8454 173.524C81.7623 173.508 81.7319 173.492 81.7358 173.494L80.3941 176.178C80.9674 176.464 81.6089 176.552 82.2169 176.552V173.552ZM81.7358 173.494C81.7309 173.492 81.6886 173.473 81.6224 173.366L79.0675 174.938C79.3853 175.455 79.823 175.892 80.3941 176.178L81.7358 173.494ZM81.6122 173.349C81.089 172.523 80.4775 171.785 79.7765 171.14L77.7454 173.348C78.2443 173.807 78.6888 174.341 79.0777 174.955L81.6122 173.349ZM79.7997 171.162C78.8634 170.263 77.6572 169.88 76.3489 169.88V172.88C77.0567 172.88 77.4585 173.073 77.7221 173.326L79.7997 171.162ZM76.3489 169.88C75.1383 169.88 73.8532 170.159 72.5133 170.658L73.5606 173.47C74.6687 173.057 75.5916 172.88 76.3489 172.88V169.88ZM72.5133 170.658C71.1563 171.164 69.9997 171.845 69.1981 172.78L71.4758 174.732C71.8262 174.323 72.4696 173.876 73.5606 173.47L72.5133 170.658ZM69.176 172.806C67.6057 174.725 66.8929 177.192 66.8929 180.056H69.8929C69.8929 177.688 70.4761 175.955 71.4979 174.706L69.176 172.806ZM66.8929 180.056C66.8929 182.483 67.6573 184.627 69.2058 186.405L71.4681 184.435C70.4245 183.237 69.8929 181.805 69.8929 180.056H66.8929ZM69.2168 186.418C70.8743 188.279 73.0124 189.224 75.5209 189.224V186.224C73.8535 186.224 72.5356 185.633 71.4571 184.422L69.2168 186.418ZM75.5209 189.224C76.6543 189.224 77.8443 189.026 79.0812 188.658L78.2247 185.782C77.2056 186.086 76.3075 186.224 75.5209 186.224V189.224ZM79.1004 188.652C80.4787 188.221 81.6488 187.504 82.5327 186.462L80.2452 184.522C79.7851 185.064 79.1312 185.499 78.2055 185.788L79.1004 188.652ZM81.3889 183.992H81.3529V186.992H81.3889V183.992ZM82.4419 186.524C82.5807 186.377 82.7221 186.308 82.9729 186.308V183.308C81.9277 183.308 80.9892 183.695 80.264 184.46L82.4419 186.524ZM82.9729 186.308C82.9586 186.308 82.9422 186.306 82.926 186.303C82.91 186.299 82.8999 186.295 82.8966 186.293C82.8905 186.29 82.9243 186.305 82.9923 186.373L85.1136 184.251C84.5671 183.705 83.8448 183.308 82.9729 183.308V186.308ZM83.0295 186.409C83.0744 186.451 83.103 186.483 83.1199 186.504C83.1368 186.525 83.1397 186.532 83.1357 186.524C83.1315 186.516 83.1203 186.493 83.1103 186.456C83.1001 186.418 83.0929 186.372 83.0929 186.32H86.0929C86.0929 185.407 85.5977 184.702 85.0764 184.215L83.0295 186.409ZM83.0929 186.32C83.0929 186.512 83.0614 186.636 83.0283 186.715L85.7976 187.869C86.0045 187.372 86.0929 186.848 86.0929 186.32H83.0929ZM83.0033 186.779C82.994 186.805 82.9284 186.947 82.6981 187.216L84.9758 189.168C85.3215 188.765 85.6399 188.307 85.8226 187.805L83.0033 186.779ZM82.7281 187.182C81.9504 188.035 80.9424 188.653 79.6508 189.016L80.4631 191.904C82.2435 191.403 83.7554 190.509 84.9457 189.202L82.7281 187.182ZM79.6662 189.012C78.3079 189.378 76.7153 189.572 74.8729 189.572V192.572C76.9186 192.572 78.782 192.358 80.4477 191.908L79.6662 189.012ZM74.8729 189.572C73.5143 189.572 72.2013 189.25 70.9169 188.587L69.541 191.253C71.2326 192.126 73.0155 192.572 74.8729 192.572V189.572ZM70.9258 188.592C69.6248 187.909 68.5761 187.061 67.7549 186.055L65.4309 187.953C66.5298 189.299 67.9051 190.395 69.5321 191.248L70.9258 188.592ZM67.8278 186.152C67.4553 185.612 67.0396 184.756 66.6039 183.518L63.774 184.514C64.2503 185.868 64.7706 187.004 65.3581 187.856L67.8278 186.152ZM66.6145 183.549C66.2024 182.29 66.0409 181.397 66.0409 180.812H63.0409C63.0409 181.859 63.3115 183.102 63.7633 184.483L66.6145 183.549ZM66.0409 180.812C66.0409 178.876 66.3298 177.057 66.9 175.346L64.0539 174.398C63.376 176.431 63.0409 178.572 63.0409 180.812H66.0409ZM66.8963 175.357C67.4755 173.663 68.3064 172.386 69.3522 171.458L67.3617 169.214C65.8635 170.542 64.7744 172.289 64.0575 174.387L66.8963 175.357ZM69.3691 171.443C69.9593 170.903 70.9084 170.414 72.3463 170.066L71.6395 167.15C69.9095 167.57 68.4346 168.233 67.3448 169.229L69.3691 171.443ZM72.3463 170.066C73.8405 169.704 75.172 169.532 76.3489 169.532V166.532C74.8859 166.532 73.3134 166.744 71.6395 167.15L72.3463 170.066ZM76.3489 169.532C77.2643 169.532 77.9558 169.668 78.4688 169.883L79.629 167.117C78.6541 166.708 77.5456 166.532 76.3489 166.532V169.532ZM78.5223 169.904C79.1287 170.132 79.6199 170.433 80.0175 170.796L82.0403 168.58C81.334 167.935 80.5052 167.444 79.5756 167.096L78.5223 169.904ZM80.0447 170.82C80.5131 171.227 81.0793 171.821 81.7459 172.625L84.056 170.711C83.3306 169.835 82.6488 169.109 82.0132 168.556L80.0447 170.82ZM96.9618 190.46L95.6818 191.242L95.6973 191.267L95.7137 191.292L96.9618 190.46ZM96.5658 188.624L95.0658 188.612V188.624H96.5658ZM96.6018 183.944L98.1017 183.956L98.102 183.912L98.0999 183.869L96.6018 183.944ZM96.5658 183.224L98.0639 183.149L98.0637 183.145L96.5658 183.224ZM96.3858 177.572L94.8866 177.522L94.8858 177.547V177.572H96.3858ZM96.5298 173.288L98.0289 173.338L98.0293 173.326L98.0295 173.313L96.5298 173.288ZM96.5658 171.128L98.0655 171.153L98.0658 171.14V171.128H96.5658ZM96.6378 169.472L95.1493 169.286L95.1493 169.286L96.6378 169.472ZM97.1058 168.536L98.1148 169.646L98.1148 169.646L97.1058 168.536ZM99.9138 168.716L98.7802 169.698L98.7971 169.718L98.8146 169.737L99.9138 168.716ZM100.382 170.48L101.88 170.551L101.882 170.516V170.48H100.382ZM100.346 171.236L101.844 171.311L101.844 171.307L100.346 171.236ZM100.274 179.408L98.7746 179.457L98.7746 179.458L100.274 179.408ZM100.382 182.468L98.8829 182.528L98.8834 182.538L100.382 182.468ZM100.094 190.64L99.0331 189.579L99.0119 189.601L98.9916 189.623L100.094 190.64ZM98.4738 189.608C98.2564 189.608 98.1633 189.574 98.1466 189.567C98.1407 189.565 98.1507 189.568 98.1681 189.583C98.186 189.597 98.2005 189.614 98.2098 189.628L95.7137 191.292C96.3798 192.291 97.4641 192.608 98.4738 192.608V189.608ZM98.2417 189.678C98.1812 189.579 98.0658 189.283 98.0658 188.624H95.0658C95.0658 189.549 95.2143 190.477 95.6818 191.242L98.2417 189.678ZM98.0657 188.636L98.1017 183.956L95.1018 183.932L95.0658 188.612L98.0657 188.636ZM98.0999 183.869L98.0639 183.149L95.0676 183.299L95.1036 184.019L98.0999 183.869ZM98.0637 183.145C97.9444 180.879 97.8858 179.024 97.8858 177.572H94.8858C94.8858 179.096 94.9471 181.009 95.0678 183.303L98.0637 183.145ZM97.8849 177.622L98.0289 173.338L95.0306 173.238L94.8866 177.522L97.8849 177.622ZM98.0295 173.313L98.0655 171.153L95.066 171.103L95.03 173.263L98.0295 173.313ZM98.0658 171.128C98.0658 170.427 98.0898 169.949 98.1262 169.658L95.1493 169.286C95.0897 169.763 95.0658 170.389 95.0658 171.128H98.0658ZM98.1262 169.658C98.1289 169.637 98.132 169.624 98.1334 169.619C98.1348 169.615 98.1349 169.616 98.1324 169.621C98.1298 169.626 98.1262 169.632 98.1217 169.638C98.1174 169.644 98.1144 169.646 98.1148 169.646L96.0967 167.426C95.5446 167.928 95.2377 168.579 95.1493 169.286L98.1262 169.658ZM98.1148 169.646C98.042 169.712 97.9938 169.719 98.0308 169.708C98.072 169.697 98.1756 169.676 98.3658 169.676V166.676C97.6334 166.676 96.7636 166.82 96.0967 167.426L98.1148 169.646ZM98.3658 169.676C98.6078 169.676 98.7409 169.707 98.7987 169.727C98.8462 169.744 98.8197 169.744 98.7802 169.698L101.047 167.734C100.331 166.907 99.2965 166.676 98.3658 166.676V169.676ZM98.8146 169.737C98.7577 169.675 98.7801 169.663 98.8149 169.794C98.8497 169.925 98.8818 170.144 98.8818 170.48H101.882C101.882 169.544 101.726 168.463 101.013 167.695L98.8146 169.737ZM98.8835 170.409L98.8475 171.165L101.844 171.307L101.88 170.551L98.8835 170.409ZM98.8476 171.161C98.7513 173.087 98.7018 174.569 98.7018 175.592H101.702C101.702 174.647 101.748 173.225 101.844 171.311L98.8476 171.161ZM98.7018 175.592C98.7018 176.693 98.7262 177.982 98.7746 179.457L101.773 179.359C101.725 177.906 101.702 176.651 101.702 175.592H98.7018ZM98.7746 179.458C98.8226 180.898 98.8587 181.922 98.883 182.528L101.881 182.408C101.857 181.814 101.821 180.798 101.773 179.358L98.7746 179.458ZM98.8834 182.538C99.0027 185.091 99.0618 187.274 99.0618 189.092H102.062C102.062 187.214 102.001 184.981 101.88 182.398L98.8834 182.538ZM99.0618 189.092C99.0618 189.351 99.0328 189.506 99.0089 189.585C98.9868 189.658 98.9796 189.633 99.0331 189.579L101.154 191.701C101.881 190.974 102.062 189.97 102.062 189.092H99.0618ZM98.9916 189.623C99.0841 189.522 99.1463 189.524 99.0564 189.55C98.9644 189.577 98.7816 189.608 98.4738 189.608V192.608C99.3552 192.608 100.459 192.456 101.196 191.657L98.9916 189.623ZM130.073 190.46L131.273 189.56L131.265 189.549L130.073 190.46ZM129.317 189.308L127.943 189.909L127.966 189.963L127.994 190.014L129.317 189.308ZM128.669 187.724L130.065 187.176L130.062 187.167L128.669 187.724ZM127.517 185.348L128.765 184.516L128.238 183.725L127.298 183.864L127.517 185.348ZM121.901 185.636L121.846 187.135L121.848 187.135L121.901 185.636ZM120.389 185.564L120.274 187.06L120.282 187.06L120.29 187.061L120.389 185.564ZM117.401 185.42V183.92H116.687L116.237 184.474L117.401 185.42ZM116.645 186.644L115.275 186.035L115.266 186.054L115.258 186.073L116.645 186.644ZM116.069 188.192L114.652 187.701L114.65 187.708L116.069 188.192ZM115.025 190.604L113.744 189.824L113.739 189.832L115.025 190.604ZM112.289 190.82L111.561 192.131L111.603 192.155L111.647 192.176L112.289 190.82ZM111.641 189.848L110.173 189.539L110.141 189.692V189.848H111.641ZM112.541 186.968L111.158 186.389L111.154 186.397L111.151 186.405L112.541 186.968ZM114.377 182.864L115.738 183.496L115.753 183.464L115.766 183.431L114.377 182.864ZM115.817 179.336L117.206 179.903L117.21 179.894L117.213 179.884L115.817 179.336ZM117.977 174.152L116.618 173.518L116.614 173.527L116.609 173.536L117.977 174.152ZM120.605 169.04L121.92 169.762L121.934 169.736L121.947 169.711L120.605 169.04ZM121.325 168.32L122.07 169.622L122.104 169.603L122.136 169.582L121.325 168.32ZM123.413 168.104L122.887 169.508L122.985 169.545L123.088 169.568L123.413 168.104ZM123.917 168.392L122.765 169.352L122.809 169.405L122.857 169.453L123.917 168.392ZM124.457 169.184L123.164 169.945L123.179 169.97L123.195 169.994L124.457 169.184ZM126.545 173.108L125.167 173.699L125.171 173.709L125.176 173.719L126.545 173.108ZM128.813 178.688L127.413 179.226L127.416 179.233L127.419 179.241L128.813 178.688ZM129.569 180.596L130.967 180.052L130.964 180.043L129.569 180.596ZM131.297 184.952L129.909 185.519L129.916 185.536L129.923 185.553L131.297 184.952ZM132.953 188.12L134.231 187.334L134.225 187.325L132.953 188.12ZM132.989 190.748L133.966 191.887L133.972 191.882L132.989 190.748ZM126.473 182.396L126.825 183.854L128.632 183.418L127.824 181.744L126.473 182.396ZM125.141 178.796L123.708 179.237L123.711 179.248L123.714 179.258L125.141 178.796ZM124.709 177.5L123.291 177.988L123.303 178.023L123.317 178.057L124.709 177.5ZM122.477 172.352L123.772 171.595L122.217 168.935L121.083 171.8L122.477 172.352ZM120.461 176.816L121.784 177.523L121.797 177.498L121.81 177.473L120.461 176.816ZM118.193 182.36L116.782 181.851L116.146 183.616L118.007 183.848L118.193 182.36ZM131.265 189.549C130.99 189.19 130.786 188.875 130.641 188.602L127.994 190.014C128.232 190.461 128.532 190.914 128.882 191.371L131.265 189.549ZM130.692 188.707C130.535 188.348 130.327 187.84 130.065 187.176L127.273 188.272C127.54 188.952 127.764 189.5 127.943 189.909L130.692 188.707ZM130.062 187.167C129.62 186.061 129.19 185.153 128.765 184.516L126.269 186.18C126.517 186.551 126.855 187.227 127.277 188.281L130.062 187.167ZM127.298 183.864C125.882 184.073 124.687 184.172 123.701 184.172V187.172C124.876 187.172 126.224 187.055 127.736 186.832L127.298 183.864ZM123.701 184.172C123.195 184.172 122.614 184.16 121.955 184.137L121.848 187.135C122.533 187.16 123.151 187.172 123.701 187.172V184.172ZM121.957 184.137C121.314 184.113 120.827 184.09 120.489 184.067L120.29 187.061C120.671 187.086 121.193 187.111 121.846 187.135L121.957 184.137ZM120.504 184.068C119.24 183.971 118.201 183.92 117.401 183.92V186.92C118.09 186.92 119.043 186.965 120.274 187.06L120.504 184.068ZM116.237 184.474C115.846 184.956 115.523 185.476 115.275 186.035L118.016 187.253C118.152 186.948 118.333 186.652 118.565 186.366L116.237 184.474ZM115.258 186.073C115.075 186.517 114.873 187.062 114.652 187.701L117.487 188.683C117.698 188.074 117.879 187.587 118.032 187.215L115.258 186.073ZM114.65 187.708C114.303 188.724 113.997 189.409 113.744 189.824L116.307 191.384C116.726 190.695 117.115 189.772 117.489 188.676L114.65 187.708ZM113.739 189.832C113.769 189.783 113.808 189.736 113.854 189.697C113.899 189.659 113.938 189.639 113.957 189.63C113.976 189.622 113.973 189.626 113.94 189.632C113.907 189.638 113.851 189.644 113.765 189.644V192.644C114.639 192.644 115.707 192.383 116.312 191.376L113.739 189.832ZM113.765 189.644C113.449 189.644 113.177 189.581 112.931 189.464L111.647 192.176C112.313 192.491 113.026 192.644 113.765 192.644V189.644ZM113.018 189.509C112.956 189.474 112.996 189.482 113.051 189.565C113.079 189.607 113.104 189.658 113.12 189.714C113.137 189.769 113.141 189.816 113.141 189.848H110.141C110.141 190.925 110.772 191.693 111.561 192.131L113.018 189.509ZM113.109 190.157C113.28 189.345 113.552 188.47 113.932 187.531L111.151 186.405C110.715 187.482 110.386 188.527 110.173 189.539L113.109 190.157ZM113.925 187.547C114.346 186.541 114.949 185.193 115.738 183.496L113.017 182.232C112.222 183.943 111.6 185.331 111.158 186.389L113.925 187.547ZM115.766 183.431L117.206 179.903L114.429 178.769L112.989 182.297L115.766 183.431ZM117.213 179.884C118 177.883 118.71 176.179 119.345 174.768L116.609 173.536C115.949 175.005 115.219 176.757 114.421 178.788L117.213 179.884ZM119.337 174.786C119.99 173.385 120.85 171.712 121.92 169.762L119.29 168.318C118.2 170.304 117.308 172.039 116.618 173.518L119.337 174.786ZM121.947 169.711C121.943 169.719 121.942 169.717 121.954 169.705C121.968 169.691 122.001 169.661 122.07 169.622L120.581 167.018C120.041 167.326 119.565 167.767 119.264 168.369L121.947 169.711ZM122.136 169.582C122.225 169.525 122.314 169.496 122.441 169.496V166.496C121.752 166.496 121.098 166.683 120.514 167.058L122.136 169.582ZM122.441 169.496C122.634 169.496 122.77 169.504 122.861 169.514C122.905 169.519 122.929 169.523 122.937 169.525C122.947 169.527 122.927 169.524 122.887 169.508L123.94 166.7C123.474 166.525 122.911 166.496 122.441 166.496V169.496ZM123.088 169.568C123.07 169.564 123.021 169.551 122.957 169.514C122.891 169.476 122.823 169.422 122.765 169.352L125.07 167.432C124.701 166.989 124.218 166.746 123.739 166.64L123.088 169.568ZM122.857 169.453C122.829 169.425 122.822 169.414 122.837 169.432C122.849 169.449 122.871 169.478 122.903 169.525C122.968 169.62 123.054 169.757 123.164 169.945L125.75 168.423C125.522 168.035 125.253 167.607 124.978 167.331L122.857 169.453ZM123.195 169.994C123.968 171.199 124.624 172.433 125.167 173.699L127.924 172.517C127.314 171.095 126.579 169.713 125.72 168.374L123.195 169.994ZM125.176 173.719C125.76 175.028 126.505 176.859 127.413 179.226L130.214 178.15C129.298 175.765 128.531 173.876 127.915 172.497L125.176 173.719ZM127.419 179.241L128.175 181.149L130.964 180.043L130.208 178.135L127.419 179.241ZM128.171 181.14C128.845 182.872 129.424 184.333 129.909 185.519L132.686 184.385C132.21 183.219 131.638 181.776 130.967 180.052L128.171 181.14ZM129.923 185.553C130.453 186.765 131.039 187.887 131.681 188.915L134.225 187.325C133.668 186.433 133.149 185.443 132.672 184.351L129.923 185.553ZM131.676 188.906C131.85 189.189 131.956 189.39 132.015 189.521C132.043 189.586 132.052 189.614 132.051 189.612C132.05 189.61 132.046 189.593 132.041 189.564C132.036 189.535 132.029 189.484 132.029 189.416H135.029C135.029 188.968 134.871 188.56 134.756 188.303C134.622 188.002 134.441 187.675 134.231 187.334L131.676 188.906ZM132.029 189.416C132.029 189.549 132.009 189.607 132.004 189.617C132.002 189.623 132.002 189.622 132.005 189.617C132.008 189.613 132.01 189.612 132.007 189.614L133.972 191.882C134.729 191.225 135.029 190.328 135.029 189.416H132.029ZM132.013 189.609C132.011 189.611 131.943 189.68 131.657 189.68V192.68C132.476 192.68 133.295 192.461 133.966 191.887L132.013 189.609ZM131.657 189.68C131.348 189.68 131.302 189.599 131.273 189.56L128.873 191.36C129.564 192.281 130.575 192.68 131.657 192.68V189.68ZM127.824 181.744C127.537 181.149 127.119 180.035 126.568 178.334L123.714 179.258C124.267 180.965 124.738 182.251 125.122 183.048L127.824 181.744ZM126.575 178.355C126.384 177.733 126.224 177.247 126.102 176.943L123.317 178.057C123.387 178.233 123.515 178.611 123.708 179.237L126.575 178.355ZM126.128 177.011C125.367 174.803 124.585 172.985 123.772 171.595L121.183 173.109C121.857 174.263 122.564 175.877 123.291 177.988L126.128 177.011ZM121.083 171.8C120.647 172.901 119.993 174.351 119.113 176.159L121.81 177.473C122.706 175.633 123.396 174.107 123.872 172.904L121.083 171.8ZM119.139 176.109C118.53 177.247 117.742 179.188 116.782 181.851L119.604 182.869C120.565 180.204 121.289 178.449 121.784 177.523L119.139 176.109ZM118.007 183.848C119.618 184.05 121.422 184.148 123.413 184.148V181.148C121.517 181.148 119.84 181.054 118.379 180.872L118.007 183.848ZM123.413 184.148C124.792 184.148 125.954 184.064 126.825 183.854L126.121 180.938C125.601 181.064 124.723 181.148 123.413 181.148V184.148ZM148.241 169.76L149.726 169.55L149.724 169.54L149.723 169.529L148.241 169.76ZM148.673 177.284L150.173 177.296V177.284H148.673ZM148.637 181.82L147.137 181.808V181.82H148.637ZM148.529 187.328L147.031 187.243L146.949 188.684L148.386 188.821L148.529 187.328ZM154.001 187.4L153.976 185.9L153.957 185.901L153.938 185.901L154.001 187.4ZM156.197 187.364V185.864H156.184L156.172 185.864L156.197 187.364ZM157.853 187.472L157.606 188.952L157.651 188.959L157.696 188.964L157.853 187.472ZM159.257 187.904L158.586 189.246L158.625 189.265L158.666 189.283L159.257 187.904ZM159.545 190.424L158.38 189.478L158.362 189.501L158.345 189.524L159.545 190.424ZM157.133 190.856L157.361 189.373L157.354 189.372L157.133 190.856ZM152.741 190.676L152.829 192.173L152.868 192.171L152.906 192.167L152.741 190.676ZM151.841 190.712V189.212H151.747L151.655 189.224L151.841 190.712ZM146.945 190.64L147.135 189.152L147.115 189.15L147.094 189.147L146.945 190.64ZM145.505 190.1L144.644 191.329L144.666 191.344L144.687 191.358L145.505 190.1ZM144.893 185.888L146.389 185.986L146.39 185.971L146.391 185.956L144.893 185.888ZM144.929 177.14L143.432 177.238L143.432 177.238L144.929 177.14ZM144.785 174.98L146.281 174.873L146.28 174.863L146.279 174.852L144.785 174.98ZM144.965 168.572L143.947 167.47L143.925 167.49L143.904 167.511L144.965 168.572ZM146.441 169.64C146.57 169.64 146.637 169.657 146.662 169.665C146.683 169.672 146.675 169.673 146.661 169.66C146.627 169.629 146.709 169.671 146.758 169.991L149.723 169.529C149.605 168.769 149.303 168.001 148.668 167.43C148.023 166.849 147.221 166.64 146.441 166.64V169.64ZM146.755 169.97C147.03 171.917 147.173 174.35 147.173 177.284H150.173C150.173 174.266 150.027 171.683 149.726 169.55L146.755 169.97ZM147.173 177.272L147.137 181.808L150.137 181.832L150.173 177.296L147.173 177.272ZM147.137 181.82V183.188H150.137V181.82H147.137ZM147.137 183.188C147.137 184.652 147.101 186.004 147.031 187.243L150.026 187.413C150.1 186.108 150.137 184.7 150.137 183.188H147.137ZM148.386 188.821C149.429 188.921 150.378 188.972 151.229 188.972V185.972C150.495 185.972 149.644 185.927 148.671 185.835L148.386 188.821ZM151.229 188.972C151.955 188.972 152.902 188.947 154.063 188.899L153.938 185.901C152.795 185.949 151.895 185.972 151.229 185.972V188.972ZM154.025 188.9L156.221 188.864L156.172 185.864L153.976 185.9L154.025 188.9ZM156.197 188.864C156.825 188.864 157.286 188.898 157.606 188.952L158.099 185.992C157.555 185.902 156.913 185.864 156.197 185.864V188.864ZM157.696 188.964C157.945 188.99 158.24 189.073 158.586 189.246L159.927 186.562C159.314 186.255 158.672 186.05 158.01 185.98L157.696 188.964ZM158.666 189.283C158.676 189.287 158.66 189.282 158.633 189.259C158.603 189.235 158.573 189.201 158.547 189.16C158.494 189.074 158.513 189.037 158.513 189.128H161.513C161.513 188.619 161.405 188.078 161.1 187.584C160.789 187.081 160.341 186.737 159.848 186.525L158.666 189.283ZM158.513 189.128C158.513 189.252 158.483 189.353 158.38 189.478L160.709 191.37C161.231 190.727 161.513 189.964 161.513 189.128H158.513ZM158.345 189.524C158.302 189.581 158.297 189.568 158.343 189.543C158.366 189.53 158.394 189.518 158.426 189.51C158.458 189.502 158.484 189.5 158.501 189.5V192.5C159.468 192.5 160.23 192.01 160.745 191.324L158.345 189.524ZM158.501 189.5C158.336 189.5 157.976 189.468 157.361 189.373L156.905 192.339C157.537 192.436 158.09 192.5 158.501 192.5V189.5ZM157.354 189.372C156.16 189.195 155.006 189.104 153.893 189.104V192.104C154.843 192.104 155.849 192.181 156.912 192.34L157.354 189.372ZM153.893 189.104C153.488 189.104 153.047 189.133 152.575 189.185L152.906 192.167C153.298 192.123 153.625 192.104 153.893 192.104V189.104ZM152.653 189.179C152.249 189.202 151.986 189.212 151.841 189.212V192.212C152.079 192.212 152.416 192.198 152.829 192.173L152.653 189.179ZM151.655 189.224C151.14 189.288 150.626 189.32 150.113 189.32V192.32C150.751 192.32 151.389 192.28 152.027 192.2L151.655 189.224ZM150.113 189.32C148.986 189.32 147.995 189.262 147.135 189.152L146.754 192.128C147.766 192.258 148.888 192.32 150.113 192.32V189.32ZM147.094 189.147C146.893 189.127 146.639 189.048 146.322 188.842L144.687 191.358C145.331 191.776 146.036 192.057 146.795 192.133L147.094 189.147ZM146.365 188.871C146.335 188.85 146.32 188.835 146.314 188.829C146.309 188.823 146.307 188.819 146.306 188.817C146.306 188.817 146.285 188.777 146.285 188.66H143.285C143.285 189.736 143.734 190.691 144.644 191.329L146.365 188.871ZM146.285 188.66C146.285 187.96 146.319 187.071 146.389 185.986L143.396 185.79C143.323 186.913 143.285 187.872 143.285 188.66H146.285ZM146.391 185.956C146.488 183.827 146.537 181.92 146.537 180.236H143.537C143.537 181.864 143.489 183.725 143.394 185.82L146.391 185.956ZM146.537 180.236C146.537 179.239 146.499 178.174 146.425 177.042L143.432 177.238C143.502 178.314 143.537 179.313 143.537 180.236H146.537ZM146.425 177.042C146.354 175.939 146.305 175.215 146.281 174.873L143.288 175.087C143.312 175.417 143.36 176.133 143.432 177.238L146.425 177.042ZM146.279 174.852C146.113 172.911 146.033 171.276 146.033 169.94H143.033C143.033 171.388 143.12 173.113 143.29 175.108L146.279 174.852ZM146.033 169.94C146.033 169.737 146.057 169.627 146.071 169.582C146.083 169.543 146.079 169.579 146.025 169.633L143.904 167.511C143.216 168.199 143.033 169.126 143.033 169.94H146.033ZM145.982 169.674C145.936 169.716 145.92 169.708 145.989 169.688C146.063 169.666 146.206 169.64 146.441 169.64V166.64C145.602 166.64 144.659 166.812 143.947 167.47L145.982 169.674ZM202.078 187.4L200.819 186.585L200.813 186.595L202.078 187.4ZM199.558 189.596L198.814 188.294L198.797 188.303L198.781 188.313L199.558 189.596ZM196.786 190.676L197.119 192.139L196.786 190.676ZM189.478 189.956L188.819 191.303L188.845 191.316L188.873 191.328L189.478 189.956ZM186.67 187.904L185.527 188.874L185.535 188.884L185.544 188.894L186.67 187.904ZM186.094 183.908L187.155 184.969L187.176 184.947L187.197 184.925L186.094 183.908ZM188.542 183.872L187.605 185.043L187.63 185.063L187.655 185.082L188.542 183.872ZM189.19 184.664L187.743 185.059L187.756 185.104L187.771 185.149L189.19 184.664ZM190.954 186.932L190.156 188.202L190.169 188.21L190.183 188.218L190.954 186.932ZM197.686 186.896L196.977 185.574L196.97 185.578L196.964 185.582L197.686 186.896ZM197.578 182.468L198.384 181.203L198.384 181.203L197.578 182.468ZM194.338 181.064L193.944 182.511L193.967 182.517L193.99 182.523L194.338 181.064ZM190.126 179.516L189.466 180.863L189.466 180.863L190.126 179.516ZM187.282 177.212L186.044 178.059L186.044 178.059L187.282 177.212ZM187.318 171.488L188.562 172.327L188.566 172.32L188.571 172.313L187.318 171.488ZM189.622 169.364L190.279 170.713L190.286 170.709L190.293 170.706L189.622 169.364ZM192.07 168.608L192.405 170.07L192.416 170.068L192.427 170.065L192.07 168.608ZM196.93 168.428L197.225 166.957L197.225 166.957L196.93 168.428ZM198.982 169.148L198.219 170.439L198.23 170.446L198.241 170.452L198.982 169.148ZM201.574 173.72L200.514 172.659L200.494 172.679L200.475 172.699L201.574 173.72ZM199.342 173.972L198.355 175.101L198.355 175.101L199.342 173.972ZM198.622 173.216L197.429 174.125L197.455 174.159L197.483 174.192L198.622 173.216ZM197.506 172.208L198.141 170.849L198.063 170.812L197.981 170.785L197.506 172.208ZM195.922 171.812L195.608 173.279L195.618 173.281L195.922 171.812ZM192.322 171.956L192.861 173.356L192.861 173.356L192.322 171.956ZM190.738 173L189.649 171.968L189.648 171.97L190.738 173ZM190.774 175.772L189.814 176.924L189.849 176.953L189.885 176.98L190.774 175.772ZM192.394 176.6L192.951 175.207L192.919 175.194L192.885 175.183L192.394 176.6ZM194.734 177.356L195.171 175.921L195.14 175.911L195.108 175.903L194.734 177.356ZM197.434 178.292L196.861 179.678L196.889 179.69L196.918 179.7L197.434 178.292ZM199.522 179.3L198.744 180.582L198.751 180.587L198.758 180.591L199.522 179.3ZM202.078 181.46L200.855 182.328L200.862 182.338L200.869 182.347L202.078 181.46ZM201.37 184.484C201.37 185.37 201.166 186.049 200.819 186.585L203.338 188.215C204.047 187.119 204.37 185.854 204.37 184.484H201.37ZM200.813 186.595C200.485 187.11 199.866 187.693 198.814 188.294L200.303 190.898C201.603 190.155 202.664 189.274 203.344 188.205L200.813 186.595ZM198.781 188.313C198.148 188.697 197.379 189.003 196.454 189.213L197.119 192.139C198.306 191.869 199.385 191.455 200.336 190.879L198.781 188.313ZM196.454 189.213C195.507 189.429 194.55 189.536 193.582 189.536V192.536C194.775 192.536 195.954 192.403 197.119 192.139L196.454 189.213ZM193.582 189.536C192.776 189.536 191.629 189.265 190.084 188.584L188.873 191.328C190.592 192.087 192.181 192.536 193.582 192.536V189.536ZM190.138 188.609C189.098 188.1 188.335 187.526 187.797 186.914L185.544 188.894C186.398 189.866 187.507 190.66 188.819 191.303L190.138 188.609ZM187.814 186.934C187.345 186.381 187.162 185.853 187.162 185.312H184.162C184.162 186.643 184.652 187.843 185.527 188.874L187.814 186.934ZM187.162 185.312C187.162 185.092 187.188 184.97 187.204 184.916C187.219 184.869 187.216 184.908 187.155 184.969L185.034 182.847C184.337 183.544 184.162 184.493 184.162 185.312H187.162ZM187.197 184.925C187.143 184.984 187.103 184.991 187.136 184.98C187.177 184.966 187.288 184.94 187.498 184.94V181.94C186.651 181.94 185.685 182.14 184.992 182.891L187.197 184.925ZM187.498 184.94C187.447 184.94 187.424 184.928 187.438 184.934C187.456 184.941 187.512 184.969 187.605 185.043L189.479 182.701C188.952 182.278 188.282 181.94 187.498 181.94V184.94ZM187.655 185.082C187.707 185.12 187.745 185.151 187.772 185.176C187.798 185.2 187.811 185.215 187.813 185.218C187.82 185.226 187.774 185.173 187.743 185.059L190.638 184.269C190.435 183.528 189.903 183.01 189.429 182.662L187.655 185.082ZM187.771 185.149C188.212 186.441 189.01 187.482 190.156 188.202L191.753 185.662C191.218 185.326 190.841 184.855 190.61 184.179L187.771 185.149ZM190.183 188.218C191.312 188.896 192.64 189.188 194.086 189.188V186.188C193.037 186.188 192.277 185.976 191.726 185.646L190.183 188.218ZM194.086 189.188C195.702 189.188 197.169 188.892 198.409 188.21L196.964 185.582C196.284 185.956 195.351 186.188 194.086 186.188V189.188ZM198.396 188.218C199.719 187.508 200.662 186.362 200.662 184.772H197.662C197.662 184.958 197.622 185.228 196.977 185.574L198.396 188.218ZM200.662 184.772C200.662 183.188 199.662 182.016 198.384 181.203L196.773 183.733C197.607 184.264 197.662 184.628 197.662 184.772H200.662ZM198.384 181.203C197.202 180.45 195.969 179.912 194.687 179.605L193.99 182.523C194.916 182.744 195.843 183.142 196.773 183.733L198.384 181.203ZM194.733 179.617C193.223 179.205 191.91 178.72 190.787 178.169L189.466 180.863C190.79 181.512 192.286 182.059 193.944 182.511L194.733 179.617ZM190.787 178.169C189.683 177.628 188.963 177.011 188.52 176.365L186.044 178.059C186.85 179.237 188.026 180.156 189.466 180.863L190.787 178.169ZM188.52 176.365C188.05 175.677 187.846 175.009 187.846 174.332H184.846C184.846 175.671 185.267 176.923 186.044 178.059L188.52 176.365ZM187.846 174.332C187.846 173.759 188.041 173.099 188.562 172.327L186.075 170.649C185.3 171.797 184.846 173.033 184.846 174.332H187.846ZM188.571 172.313C189.1 171.51 189.676 171.006 190.279 170.713L188.966 168.015C187.793 168.586 186.833 169.498 186.066 170.663L188.571 172.313ZM190.293 170.706C190.601 170.552 191.265 170.331 192.405 170.07L191.735 167.146C190.572 167.413 189.604 167.696 188.952 168.022L190.293 170.706ZM192.427 170.065C193.597 169.778 194.295 169.676 194.626 169.676V166.676C193.902 166.676 192.896 166.862 191.714 167.151L192.427 170.065ZM194.626 169.676C195.204 169.676 195.872 169.746 196.636 169.899L197.225 166.957C196.309 166.774 195.441 166.676 194.626 166.676V169.676ZM196.636 169.899C197.371 170.046 197.881 170.24 198.219 170.439L199.745 167.857C199.027 167.432 198.169 167.146 197.225 166.957L196.636 169.899ZM198.241 170.452C199.257 171.029 199.914 171.499 200.288 171.854L202.357 169.682C201.722 169.077 200.819 168.467 199.723 167.844L198.241 170.452ZM200.288 171.854C200.483 172.04 200.578 172.243 200.578 172.568H203.578C203.578 171.453 203.169 170.456 202.357 169.682L200.288 171.854ZM200.578 172.568C200.578 172.578 200.577 172.582 200.578 172.581C200.578 172.579 200.578 172.578 200.578 172.579C200.578 172.58 200.575 172.586 200.566 172.599C200.557 172.612 200.541 172.632 200.514 172.659L202.635 174.781C203.221 174.194 203.578 173.439 203.578 172.568H200.578ZM200.475 172.699C200.541 172.629 200.577 172.636 200.49 172.663C200.397 172.691 200.217 172.724 199.918 172.724V175.724C200.842 175.724 201.929 175.542 202.674 174.741L200.475 172.699ZM199.918 172.724C200.195 172.724 200.34 172.852 200.33 172.843L198.355 175.101C198.729 175.428 199.258 175.724 199.918 175.724V172.724ZM200.33 172.843C200.217 172.744 200.031 172.555 199.761 172.24L197.483 174.192C197.79 174.549 198.083 174.864 198.355 175.101L200.33 172.843ZM199.816 172.307C199.363 171.713 198.814 171.163 198.141 170.849L196.872 173.567C196.919 173.589 197.114 173.711 197.429 174.125L199.816 172.307ZM197.981 170.785C197.536 170.637 196.939 170.491 196.226 170.343L195.618 173.281C196.297 173.421 196.757 173.539 197.032 173.631L197.981 170.785ZM196.237 170.345C195.49 170.185 194.782 170.096 194.122 170.096V173.096C194.519 173.096 195.01 173.151 195.608 173.279L196.237 170.345ZM194.122 170.096C193.335 170.096 192.553 170.26 191.784 170.556L192.861 173.356C193.34 173.172 193.758 173.096 194.122 173.096V170.096ZM191.784 170.556C190.965 170.871 190.245 171.34 189.649 171.968L191.827 174.032C192.096 173.748 192.432 173.521 192.861 173.356L191.784 170.556ZM189.648 171.97C188.986 172.671 188.626 173.54 188.626 174.512H191.626C191.626 174.332 191.675 174.193 191.829 174.03L189.648 171.97ZM188.626 174.512C188.626 175.516 189.105 176.334 189.814 176.924L191.735 174.62C191.644 174.544 191.623 174.501 191.622 174.501C191.622 174.5 191.624 174.504 191.625 174.511C191.627 174.517 191.626 174.518 191.626 174.512H188.626ZM189.885 176.98C190.481 177.419 191.16 177.76 191.904 178.017L192.885 175.183C192.381 175.008 191.98 174.797 191.664 174.564L189.885 176.98ZM191.837 177.993C192.624 178.307 193.466 178.579 194.361 178.809L195.108 175.903C194.323 175.701 193.605 175.469 192.951 175.207L191.837 177.993ZM194.298 178.791C195.377 179.119 196.226 179.416 196.861 179.678L198.008 176.906C197.25 176.592 196.3 176.265 195.171 175.921L194.298 178.791ZM196.918 179.7C197.544 179.93 198.153 180.223 198.744 180.582L200.301 178.018C199.548 177.561 198.764 177.182 197.951 176.884L196.918 179.7ZM198.758 180.591C199.835 181.228 200.494 181.819 200.855 182.328L203.302 180.592C202.607 179.613 201.561 178.764 200.286 178.009L198.758 180.591ZM200.869 182.347C201.14 182.717 201.37 183.369 201.37 184.484H204.37C204.37 183.007 204.073 181.643 203.288 180.573L200.869 182.347ZM218.621 168.536L218.693 167.038L218.677 167.037L218.661 167.037L218.621 168.536ZM226.253 168.536L226.165 167.039L226.149 167.04L226.134 167.041L226.253 168.536ZM227.801 168.464L227.856 166.965L227.828 166.964H227.801V168.464ZM231.149 169.184L230.507 170.54L230.518 170.545L230.529 170.55L231.149 169.184ZM231.797 169.616L232.858 168.555L232.858 168.555L231.797 169.616ZM231.545 171.812L232.642 172.835L232.658 172.818L232.674 172.8L231.545 171.812ZM228.017 172.136L227.738 173.61L227.772 173.616L227.805 173.621L228.017 172.136ZM224.201 171.92L224.094 170.424L222.823 170.515L222.707 171.784L224.201 171.92ZM224.417 188.48L222.92 188.568L222.92 188.576L222.921 188.583L224.417 188.48ZM224.489 189.524H225.989V189.472L225.986 189.421L224.489 189.524ZM220.997 190.388L219.781 191.266L219.793 191.283L219.806 191.299L220.997 190.388ZM220.385 182.072L221.884 182.015L221.884 182.004L220.385 182.072ZM220.457 172.064L221.956 172.134L222.03 170.551L220.444 170.564L220.457 172.064ZM216.245 172.1V173.6L216.258 173.6L216.245 172.1ZM213.437 171.74L212.766 173.082L212.791 173.094L212.817 173.106L213.437 171.74ZM214.145 170.012C214.145 169.937 214.158 169.945 214.135 169.993C214.108 170.048 214.07 170.082 214.058 170.09C214.056 170.091 214.106 170.057 214.254 170.023C214.401 169.99 214.616 169.964 214.913 169.964V166.964C214.033 166.964 213.109 167.106 212.367 167.612C211.522 168.189 211.145 169.074 211.145 170.012H214.145ZM214.913 169.964C215.539 169.964 216.755 169.987 218.582 170.035L218.661 167.037C216.839 166.989 215.584 166.964 214.913 166.964V169.964ZM218.55 170.034C220.572 170.131 222.125 170.18 223.193 170.18V167.18C222.198 167.18 220.703 167.133 218.693 167.038L218.55 170.034ZM223.193 170.18C224.086 170.18 225.148 170.129 226.373 170.031L226.134 167.041C224.958 167.135 223.98 167.18 223.193 167.18V170.18ZM226.341 170.033C227.172 169.985 227.639 169.964 227.801 169.964V166.964C227.532 166.964 226.966 166.991 226.165 167.039L226.341 170.033ZM227.747 169.963C228.923 170.006 229.827 170.217 230.507 170.54L231.791 167.828C230.648 167.287 229.319 167.018 227.856 166.965L227.747 169.963ZM230.529 170.55C230.664 170.611 230.72 170.66 230.737 170.677L232.858 168.555C232.538 168.236 232.163 167.997 231.77 167.818L230.529 170.55ZM230.737 170.677C230.613 170.553 230.566 170.433 230.551 170.386C230.539 170.344 230.549 170.354 230.549 170.444H233.549C233.549 169.897 233.438 169.136 232.858 168.555L230.737 170.677ZM230.549 170.444C230.549 170.623 230.504 170.724 230.416 170.824L232.674 172.8C233.258 172.132 233.549 171.321 233.549 170.444H230.549ZM230.449 170.789C230.426 170.813 230.409 170.827 230.399 170.834C230.389 170.841 230.384 170.844 230.382 170.845C230.38 170.845 230.377 170.847 230.37 170.848C230.362 170.85 230.347 170.852 230.321 170.852V173.852C231.229 173.852 232.03 173.491 232.642 172.835L230.449 170.789ZM230.321 170.852C229.902 170.852 229.219 170.792 228.229 170.651L227.805 173.621C228.832 173.768 229.684 173.852 230.321 173.852V170.852ZM228.296 170.662C227.345 170.482 226.468 170.384 225.677 170.384V173.384C226.23 173.384 226.913 173.454 227.738 173.61L228.296 170.662ZM225.677 170.384C225.02 170.384 224.485 170.396 224.094 170.424L224.308 173.416C224.59 173.396 225.039 173.384 225.677 173.384V170.384ZM222.707 171.784C222.628 172.659 222.593 174.631 222.593 177.608H225.593C225.593 174.585 225.631 172.765 225.695 172.056L222.707 171.784ZM222.593 177.608C222.593 181.214 222.702 184.868 222.92 188.568L225.915 188.392C225.7 184.748 225.593 181.154 225.593 177.608H222.593ZM222.921 188.583L222.993 189.627L225.986 189.421L225.914 188.377L222.921 188.583ZM222.989 189.524C222.989 189.63 222.974 189.657 222.982 189.634C222.987 189.622 222.997 189.6 223.015 189.573C223.034 189.546 223.056 189.522 223.08 189.501C223.13 189.457 223.158 189.456 223.119 189.467C223.075 189.48 222.975 189.5 222.797 189.5V192.5C223.546 192.5 224.388 192.341 225.052 191.761C225.756 191.147 225.989 190.305 225.989 189.524H222.989ZM222.797 189.5C222.457 189.5 222.26 189.459 222.164 189.427C222.079 189.398 222.126 189.395 222.189 189.477L219.806 191.299C220.555 192.279 221.773 192.5 222.797 192.5V189.5ZM222.213 189.51C222.169 189.448 222.029 189.172 222.029 188.444H219.029C219.029 189.444 219.202 190.464 219.781 191.266L222.213 189.51ZM222.029 188.444C222.029 186.714 221.981 184.57 221.884 182.015L218.886 182.129C218.982 184.662 219.029 186.766 219.029 188.444H222.029ZM221.884 182.004C221.788 179.892 221.741 178.423 221.741 177.572H218.741C218.741 178.497 218.791 180.028 218.887 182.14L221.884 182.004ZM221.741 177.572C221.741 177.016 221.811 175.225 221.956 172.134L218.959 171.994C218.816 175.047 218.741 176.928 218.741 177.572H221.741ZM220.444 170.564L216.232 170.6L216.258 173.6L220.47 173.564L220.444 170.564ZM216.245 170.6C214.905 170.6 214.263 170.468 214.058 170.374L212.817 173.106C213.667 173.492 214.897 173.6 216.245 173.6V170.6ZM214.108 170.398C214.13 170.409 214.158 170.428 214.182 170.454C214.206 170.479 214.211 170.495 214.207 170.485C214.193 170.455 214.145 170.321 214.145 170.012H211.145C211.145 171.149 211.497 172.447 212.766 173.082L214.108 170.398ZM257.233 168.716L256.79 170.149L256.802 170.153L256.814 170.156L257.233 168.716ZM260.473 170.444L259.461 171.551L259.467 171.556L260.473 170.444ZM263.641 174.944L262.233 175.462L262.238 175.474L262.243 175.487L263.641 174.944ZM264.361 182.576L262.938 182.102L262.926 182.138L262.916 182.175L264.361 182.576ZM263.749 184.232L265.099 184.885L265.114 184.854L265.128 184.823L263.749 184.232ZM263.101 185.996L264.403 186.74L264.536 186.507L264.58 186.243L263.101 185.996ZM260.725 188.408L259.868 187.177L259.862 187.181L259.856 187.186L260.725 188.408ZM243.949 186.248L245.223 185.456L245.223 185.456L243.949 186.248ZM242.653 183.476L241.216 183.907L241.221 183.923L241.226 183.94L242.653 183.476ZM243.517 174.296L242.168 173.639L242.165 173.647L243.517 174.296ZM247.189 170.048L246.427 168.756L246.401 168.772L246.375 168.788L247.189 170.048ZM250.105 168.68L250.609 170.093L250.619 170.089L250.628 170.086L250.105 168.68ZM246.829 183.98L245.592 184.828L245.6 184.84L245.608 184.852L246.829 183.98ZM249.565 186.716L248.625 187.885L248.81 188.033L249.031 188.118L249.565 186.716ZM251.617 187.472L251.143 188.895L251.186 188.91L251.23 188.921L251.617 187.472ZM258.637 185.636L259.65 186.742L259.65 186.742L258.637 185.636ZM260.185 175.88L258.786 176.421L258.786 176.421L260.185 175.88ZM257.989 173.036L257.034 174.192L257.044 174.201L257.055 174.21L257.989 173.036ZM255.865 172.028L255.491 173.481L255.501 173.483L255.865 172.028ZM249.277 173.036L250.214 174.207L250.222 174.201L250.23 174.195L249.277 173.036ZM246.793 176.42L245.407 175.846L245.403 175.857L245.399 175.867L246.793 176.42ZM252.841 169.604C254.323 169.604 255.635 169.792 256.79 170.149L257.676 167.283C256.191 166.824 254.575 166.604 252.841 166.604V169.604ZM256.814 170.156C257.959 170.489 258.822 170.967 259.461 171.551L261.485 169.337C260.444 168.385 259.147 167.711 257.652 167.276L256.814 170.156ZM259.467 171.556C260.83 172.79 261.73 174.094 262.233 175.462L265.049 174.426C264.352 172.53 263.14 170.834 261.479 169.332L259.467 171.556ZM262.243 175.487C262.776 176.861 263.077 178.724 263.077 181.136H266.077C266.077 178.508 265.754 176.243 265.039 174.401L262.243 175.487ZM263.077 181.136C263.077 181.528 263.024 181.845 262.938 182.102L265.784 183.05C265.986 182.443 266.077 181.8 266.077 181.136H263.077ZM262.916 182.175C262.821 182.515 262.646 182.998 262.37 183.641L265.128 184.823C265.428 184.122 265.661 183.501 265.806 182.977L262.916 182.175ZM262.399 183.579C262.021 184.359 261.729 185.102 261.621 185.749L264.58 186.243C264.617 186.026 264.757 185.593 265.099 184.885L262.399 183.579ZM261.799 185.252C261.463 185.838 260.856 186.489 259.868 187.177L261.582 189.639C262.801 188.791 263.778 187.834 264.403 186.74L261.799 185.252ZM259.856 187.186C258.883 187.877 257.822 188.441 256.667 188.877L257.726 191.683C259.116 191.159 260.407 190.475 261.594 189.63L259.856 187.186ZM256.667 188.877C255.5 189.317 254.57 189.5 253.849 189.5V192.5C255.048 192.5 256.35 192.203 257.726 191.683L256.667 188.877ZM253.849 189.5C249.591 189.5 246.849 188.074 245.223 185.456L242.675 187.04C244.985 190.758 248.843 192.5 253.849 192.5V189.5ZM245.223 185.456C244.732 184.667 244.353 183.853 244.079 183.012L241.226 183.94C241.577 185.019 242.061 186.053 242.675 187.04L245.223 185.456ZM244.09 183.045C243.839 182.211 243.721 181.42 243.721 180.668H240.721C240.721 181.74 240.89 182.821 241.216 183.907L244.09 183.045ZM243.721 180.668C243.721 178.395 244.122 176.502 244.869 174.945L242.165 173.647C241.184 175.69 240.721 178.045 240.721 180.668H243.721ZM244.866 174.953C245.645 173.351 246.694 172.154 248.003 171.308L246.375 168.788C244.564 169.958 243.165 171.593 242.168 173.639L244.866 174.953ZM247.951 171.34C248.806 170.836 249.692 170.42 250.609 170.093L249.6 167.267C248.502 167.66 247.443 168.156 246.427 168.756L247.951 171.34ZM250.628 170.086C251.553 169.742 252.282 169.604 252.841 169.604V166.604C251.815 166.604 250.721 166.85 249.582 167.274L250.628 170.086ZM244.465 180.776C244.465 182.292 244.803 183.678 245.592 184.828L248.066 183.132C247.703 182.602 247.465 181.852 247.465 180.776H244.465ZM245.608 184.852C246.318 185.845 247.344 186.855 248.625 187.885L250.505 185.547C249.338 184.609 248.54 183.795 248.05 183.108L245.608 184.852ZM249.031 188.118C250.035 188.5 250.748 188.763 251.143 188.895L252.091 186.049C251.766 185.941 251.111 185.7 250.099 185.314L249.031 188.118ZM251.23 188.921C251.741 189.057 252.282 189.116 252.841 189.116V186.116C252.487 186.116 252.213 186.079 252.003 186.023L251.23 188.921ZM252.841 189.116C255.546 189.116 257.871 188.373 259.65 186.742L257.623 184.53C256.523 185.539 254.984 186.116 252.841 186.116V189.116ZM259.65 186.742C261.456 185.086 262.297 182.842 262.297 180.2H259.297C259.297 182.166 258.697 183.546 257.623 184.53L259.65 186.742ZM262.297 180.2C262.297 178.29 262.087 176.641 261.584 175.339L258.786 176.421C259.099 177.231 259.297 178.462 259.297 180.2H262.297ZM261.584 175.339C261.063 173.991 260.147 172.836 258.923 171.862L257.055 174.21C257.943 174.916 258.491 175.657 258.786 176.421L261.584 175.339ZM258.944 171.88C258.183 171.251 257.258 170.83 256.229 170.573L255.501 173.483C256.2 173.658 256.691 173.909 257.034 174.192L258.944 171.88ZM256.238 170.575C255.261 170.324 254.222 170.204 253.129 170.204V173.204C254.003 173.204 254.788 173.3 255.491 173.481L256.238 170.575ZM253.129 170.204C251.317 170.204 249.691 170.754 248.324 171.877L250.23 174.195C251.023 173.542 251.964 173.204 253.129 173.204V170.204ZM248.34 171.865C247.045 172.901 246.071 174.242 245.407 175.846L248.179 176.994C248.667 175.814 249.349 174.899 250.214 174.207L248.34 171.865ZM245.399 175.867C244.776 177.437 244.465 179.077 244.465 180.776H247.465C247.465 179.451 247.706 178.187 248.187 176.973L245.399 175.867ZM294.515 171.02L295.667 170.06L295.586 169.962L295.489 169.879L294.515 171.02ZM294.911 173.828L293.85 172.767L293.833 172.784L293.817 172.802L294.911 173.828ZM292.679 174.188L292.008 175.53L292.008 175.53L292.679 174.188ZM291.959 173.504L293.236 172.718L293.222 172.695L293.207 172.672L291.959 173.504ZM290.951 172.676L290.106 173.915L290.125 173.929L290.146 173.941L290.951 172.676ZM289.151 171.776L288.602 173.172L288.624 173.181L288.646 173.189L289.151 171.776ZM284.363 172.064L284.966 173.437L284.973 173.434L284.981 173.431L284.363 172.064ZM281.987 173.756L280.851 172.777L280.835 172.795L280.82 172.813L281.987 173.756ZM280.619 176.564L282.042 177.038L282.045 177.03L280.619 176.564ZM280.907 183.908L279.571 184.59L279.579 184.606L279.588 184.622L280.907 183.908ZM283.571 186.68L282.795 187.964L282.807 187.971L283.571 186.68ZM290.051 187.328L289.485 185.939L289.476 185.943L289.466 185.947L290.051 187.328ZM292.139 186.176L291.344 184.904L291.32 184.919L291.298 184.934L292.139 186.176ZM293.471 185.384L292.8 184.042L292.78 184.053L292.76 184.063L293.471 185.384ZM295.667 185.636L294.606 186.697L294.624 186.715L294.643 186.733L295.667 185.636ZM295.091 188.516L296.039 189.678L296.047 189.672L296.055 189.665L295.091 188.516ZM292.571 190.208L293.208 191.566L293.225 191.558L293.242 191.55L292.571 190.208ZM290.195 190.928L290.375 192.417L290.394 192.415L290.413 192.412L290.195 190.928ZM282.095 189.884L281.455 191.241L281.463 191.244L282.095 189.884ZM278.207 187.004L276.972 187.856L277.004 187.903L277.04 187.947L278.207 187.004ZM276.803 184.016L275.377 184.483L275.382 184.498L275.388 184.514L276.803 184.016ZM277.199 174.908L278.607 175.425L278.607 175.425L277.199 174.908ZM280.187 170.336L281.183 171.457L281.192 171.449L281.2 171.442L280.187 170.336ZM283.391 168.608L283.799 170.051L283.808 170.049L283.817 170.046L283.391 168.608ZM291.095 168.788L290.472 170.153L290.483 170.158L291.095 168.788ZM293.363 171.98C293.704 172.39 293.881 172.649 293.954 172.782L296.588 171.346C296.373 170.951 296.046 170.514 295.667 170.06L293.363 171.98ZM293.954 172.782C293.981 172.831 293.989 172.858 293.991 172.863C293.992 172.867 293.987 172.852 293.987 172.82H296.987C296.987 172.273 296.822 171.775 296.588 171.346L293.954 172.782ZM293.987 172.82C293.987 172.628 294.05 172.527 294.04 172.544C294.038 172.549 294.024 172.572 293.992 172.612C293.96 172.652 293.914 172.704 293.85 172.767L295.972 174.889C296.414 174.446 296.987 173.737 296.987 172.82H293.987ZM293.817 172.802C293.769 172.853 293.731 172.887 293.704 172.909C293.677 172.93 293.664 172.937 293.665 172.936C293.667 172.936 293.684 172.927 293.714 172.919C293.746 172.91 293.786 172.904 293.831 172.904V175.904C294.766 175.904 295.494 175.399 296.005 174.854L293.817 172.802ZM293.831 172.904C293.663 172.904 293.542 172.891 293.459 172.876C293.376 172.86 293.346 172.844 293.35 172.846L292.008 175.53C292.581 175.816 293.223 175.904 293.831 175.904V172.904ZM293.35 172.846C293.345 172.844 293.303 172.825 293.236 172.718L290.681 174.29C290.999 174.807 291.437 175.244 292.008 175.53L293.35 172.846ZM293.207 172.672C292.869 172.165 292.279 171.743 291.756 171.411L290.146 173.941C290.379 174.09 290.541 174.207 290.647 174.294C290.766 174.392 290.758 174.406 290.711 174.336L293.207 172.672ZM291.796 171.437C291.151 170.997 290.434 170.641 289.655 170.363L288.646 173.189C289.212 173.391 289.695 173.635 290.106 173.915L291.796 171.437ZM289.699 170.38C288.895 170.064 288.083 169.88 287.279 169.88V172.88C287.626 172.88 288.062 172.96 288.602 173.172L289.699 170.38ZM287.279 169.88C286.094 169.88 284.912 170.169 283.745 170.697L284.981 173.431C285.83 173.047 286.591 172.88 287.279 172.88V169.88ZM283.76 170.691C282.606 171.197 281.62 171.885 280.851 172.777L283.123 174.735C283.554 174.235 284.152 173.795 284.966 173.437L283.76 170.691ZM280.82 172.813C280.152 173.641 279.626 174.773 279.193 176.098L282.045 177.03C282.427 175.859 282.814 175.119 283.154 174.699L280.82 172.813ZM279.196 176.09C278.745 177.441 278.507 178.766 278.507 180.056H281.507C281.507 179.138 281.676 178.135 282.042 177.038L279.196 176.09ZM278.507 180.056C278.507 181.672 278.857 183.191 279.571 184.59L282.243 183.226C281.757 182.273 281.507 181.224 281.507 180.056H278.507ZM279.588 184.622C280.343 186.016 281.421 187.134 282.795 187.964L284.347 185.396C283.417 184.834 282.719 184.104 282.226 183.194L279.588 184.622ZM282.807 187.971C284.256 188.828 285.935 189.224 287.783 189.224V186.224C286.367 186.224 285.238 185.924 284.335 185.389L282.807 187.971ZM287.783 189.224C288.812 189.224 289.779 189.072 290.635 188.709L289.466 185.947C289.075 186.112 288.529 186.224 287.783 186.224V189.224ZM290.617 188.717C291.384 188.404 292.173 187.965 292.98 187.418L291.298 184.934C290.617 185.395 290.014 185.724 289.485 185.939L290.617 188.717ZM292.934 187.448C293.502 187.093 293.914 186.849 294.182 186.705L292.76 184.063C292.404 184.255 291.927 184.539 291.344 184.904L292.934 187.448ZM294.142 186.726C294.252 186.671 294.391 186.632 294.587 186.632V183.632C293.966 183.632 293.362 183.761 292.8 184.042L294.142 186.726ZM294.587 186.632C294.572 186.632 294.556 186.63 294.54 186.627C294.524 186.623 294.514 186.619 294.511 186.617C294.504 186.614 294.538 186.629 294.606 186.697L296.728 184.575C296.181 184.029 295.459 183.632 294.587 183.632V186.632ZM294.643 186.733C294.688 186.775 294.717 186.807 294.734 186.828C294.751 186.849 294.754 186.856 294.75 186.848C294.745 186.84 294.734 186.817 294.724 186.78C294.714 186.742 294.707 186.696 294.707 186.644H297.707C297.707 185.731 297.212 185.026 296.69 184.539L294.643 186.733ZM294.707 186.644C294.707 186.649 294.706 186.66 294.7 186.684C294.692 186.708 294.676 186.75 294.639 186.812C294.563 186.94 294.411 187.129 294.127 187.367L296.055 189.665C296.949 188.915 297.707 187.91 297.707 186.644H294.707ZM294.143 187.354C293.287 188.052 292.541 188.546 291.9 188.866L293.242 191.55C294.137 191.102 295.071 190.468 296.039 189.678L294.143 187.354ZM291.934 188.85C291.295 189.149 290.644 189.346 289.977 189.444L290.413 192.412C291.378 192.27 292.311 191.987 293.208 191.566L291.934 188.85ZM290.014 189.439C289.306 189.525 288.352 189.572 287.135 189.572V192.572C288.414 192.572 289.5 192.523 290.375 192.417L290.014 189.439ZM287.135 189.572C285.725 189.572 284.26 189.236 282.727 188.524L281.463 191.244C283.338 192.116 285.233 192.572 287.135 192.572V189.572ZM282.734 188.527C281.204 187.805 280.109 186.971 279.373 186.061L277.04 187.947C278.129 189.293 279.626 190.379 281.455 191.241L282.734 188.527ZM279.442 186.152C279.069 185.612 278.654 184.756 278.218 183.518L275.388 184.514C275.864 185.868 276.385 187.004 276.972 187.856L279.442 186.152ZM278.228 183.549C277.816 182.29 277.655 181.397 277.655 180.812H274.655C274.655 181.859 274.925 183.102 275.377 184.483L278.228 183.549ZM277.655 180.812C277.655 178.947 277.972 177.154 278.607 175.425L275.791 174.391C275.033 176.454 274.655 178.597 274.655 180.812H277.655ZM278.607 175.425C279.232 173.723 280.101 172.42 281.183 171.457L279.19 169.215C277.681 170.556 276.558 172.301 275.791 174.391L278.607 175.425ZM281.2 171.442C281.871 170.827 282.724 170.356 283.799 170.051L282.982 167.165C281.514 167.58 280.231 168.261 279.173 169.23L281.2 171.442ZM283.817 170.046C284.992 169.698 286.096 169.532 287.135 169.532V166.532C285.774 166.532 284.382 166.75 282.965 167.17L283.817 170.046ZM287.135 169.532C288.511 169.532 289.608 169.758 290.472 170.153L291.718 167.423C290.374 166.81 288.831 166.532 287.135 166.532V169.532ZM290.483 170.158C291.454 170.591 292.474 171.25 293.541 172.161L295.489 169.879C294.252 168.822 292.992 167.993 291.707 167.418L290.483 170.158ZM327.404 188.264L326.655 189.564L326.693 189.586L326.733 189.606L327.404 188.264ZM327.944 188.732L326.672 189.527L326.705 189.581L326.744 189.632L327.944 188.732ZM327.62 190.676L328.546 191.856L328.557 191.847L327.62 190.676ZM324.632 190.676L324.02 192.046L324.051 192.06L324.083 192.072L324.632 190.676ZM320.672 187.364L319.489 188.286L319.496 188.296L319.504 188.305L320.672 187.364ZM316.064 180.344L317.355 179.581L316.492 178.119L315.147 179.157L316.064 180.344ZM311.888 183.296L311.075 182.035L310.388 182.478V183.296H311.888ZM311.924 185.06L310.425 185.114L310.426 185.142L310.428 185.171L311.924 185.06ZM311.996 186.5H310.496V186.526L310.497 186.552L311.996 186.5ZM311.672 190.46L312.881 191.347L312.895 191.329L312.908 191.31L311.672 190.46ZM308.828 190.64L307.901 191.819L307.928 191.841L307.956 191.861L308.828 190.64ZM308.216 189.524L309.699 189.301L309.698 189.294L309.697 189.287L308.216 189.524ZM308.216 180.668L306.721 180.541L306.721 180.546L308.216 180.668ZM308.432 173.72L306.933 173.776L306.933 173.792L306.934 173.808L308.432 173.72ZM308.216 171.92L306.727 172.106L306.736 172.173L306.75 172.239L308.216 171.92ZM308.576 168.644L309.636 169.705L309.636 169.705L308.576 168.644ZM311.42 168.608L310.399 169.707L310.439 169.745L310.483 169.779L311.42 168.608ZM312.032 169.796L313.529 169.708L313.527 169.681L313.525 169.654L312.032 169.796ZM312.212 174.512L313.71 174.572L313.712 174.542V174.512H312.212ZM312.068 177.104L310.571 177.008L310.57 177.024L310.569 177.039L312.068 177.104ZM311.924 179.192L310.444 178.945L309.931 182.024L312.655 180.501L311.924 179.192ZM316.712 175.268L317.721 176.378L317.721 176.377L316.712 175.268ZM321.824 170.12L320.69 169.138L320.673 169.157L320.657 169.177L321.824 170.12ZM322.292 169.58L323.425 170.562L323.456 170.527L323.485 170.489L322.292 169.58ZM323.264 168.536L324.146 169.749L324.146 169.749L323.264 168.536ZM325.568 168.716L324.585 169.85L324.625 169.884L324.668 169.916L325.568 168.716ZM324.92 172.172L323.859 171.111L323.85 171.121L323.84 171.13L324.92 172.172ZM318.944 177.932L317.945 176.812L317.064 177.598L317.621 178.639L318.944 177.932ZM326.733 189.606C326.755 189.617 326.752 189.618 326.736 189.605C326.719 189.59 326.695 189.564 326.672 189.527L329.216 187.937C328.924 187.471 328.515 187.143 328.074 186.922L326.733 189.606ZM326.744 189.632C326.679 189.546 326.658 189.477 326.654 189.462C326.651 189.449 326.66 189.476 326.66 189.56H329.66C329.66 189.03 329.558 188.385 329.144 187.832L326.744 189.632ZM326.66 189.56C326.66 189.575 326.658 189.576 326.66 189.568C326.662 189.558 326.667 189.544 326.674 189.528C326.682 189.511 326.69 189.5 326.695 189.494C326.699 189.489 326.697 189.493 326.683 189.505L328.557 191.847C329.268 191.278 329.66 190.478 329.66 189.56H326.66ZM326.693 189.497C326.64 189.538 326.576 189.572 326.432 189.572V192.572C327.2 192.572 327.928 192.342 328.546 191.855L326.693 189.497ZM326.432 189.572C326.147 189.572 325.737 189.499 325.18 189.28L324.083 192.072C324.87 192.381 325.661 192.572 326.432 192.572V189.572ZM325.243 189.306C324.185 188.834 323.043 187.916 321.84 186.423L319.504 188.305C320.892 190.028 322.39 191.318 324.02 192.046L325.243 189.306ZM321.855 186.442C320.64 184.884 319.142 182.607 317.355 179.581L314.772 181.107C316.585 184.177 318.159 186.58 319.489 188.286L321.855 186.442ZM315.147 179.157C313.812 180.187 312.455 181.147 311.075 182.035L312.7 184.557C314.153 183.621 315.579 182.613 316.98 181.531L315.147 179.157ZM310.388 183.296C310.388 183.823 310.4 184.429 310.425 185.114L313.423 185.006C313.399 184.347 313.388 183.777 313.388 183.296H310.388ZM310.428 185.171C310.475 185.812 310.496 186.246 310.496 186.5H313.496C313.496 186.13 313.468 185.604 313.42 184.949L310.428 185.171ZM310.497 186.552C310.545 187.948 310.568 188.846 310.568 189.272H313.568C313.568 188.786 313.543 187.836 313.495 186.448L310.497 186.552ZM310.568 189.272C310.568 189.335 310.553 189.44 310.436 189.61L312.908 191.31C313.318 190.712 313.568 190.025 313.568 189.272H310.568ZM310.462 189.573C310.467 189.566 310.479 189.551 310.499 189.535C310.519 189.519 310.539 189.507 310.556 189.499C310.59 189.484 310.578 189.5 310.484 189.5V192.5C311.39 192.5 312.281 192.166 312.881 191.347L310.462 189.573ZM310.484 189.5C310.171 189.5 309.954 189.475 309.812 189.444C309.667 189.413 309.653 189.386 309.7 189.419L307.956 191.861C308.686 192.382 309.635 192.5 310.484 192.5V189.5ZM309.754 189.461C309.744 189.453 309.742 189.449 309.738 189.442C309.732 189.431 309.713 189.391 309.699 189.301L306.732 189.747C306.853 190.549 307.223 191.287 307.901 191.819L309.754 189.461ZM309.697 189.287C309.516 188.158 309.428 187.085 309.428 186.068H306.428C306.428 187.259 306.531 188.49 306.734 189.761L309.697 189.287ZM309.428 186.068C309.428 184.882 309.52 183.13 309.711 180.79L306.721 180.546C306.528 182.91 306.428 184.758 306.428 186.068H309.428ZM309.71 180.795C309.903 178.53 310.004 176.786 310.004 175.592H307.004C307.004 176.654 306.912 178.294 306.721 180.541L309.71 180.795ZM310.004 175.592C310.004 175.115 309.978 174.456 309.929 173.632L306.934 173.808C306.982 174.616 307.004 175.205 307.004 175.592H310.004ZM309.931 173.664C309.904 172.941 309.823 172.251 309.681 171.601L306.75 172.239C306.849 172.693 306.911 173.203 306.933 173.776L309.931 173.664ZM309.704 171.734C309.608 170.964 309.572 170.508 309.572 170.3H306.572C306.572 170.716 306.632 171.34 306.727 172.106L309.704 171.734ZM309.572 170.3C309.572 170.018 309.603 169.843 309.633 169.747C309.66 169.656 309.676 169.665 309.636 169.705L307.515 167.583C306.767 168.332 306.572 169.369 306.572 170.3H309.572ZM309.636 169.705C309.583 169.758 309.641 169.64 310.124 169.64V166.64C309.214 166.64 308.24 166.858 307.515 167.583L309.636 169.705ZM310.124 169.64C310.335 169.64 310.382 169.692 310.399 169.707L312.44 167.509C311.785 166.9 310.969 166.64 310.124 166.64V169.64ZM310.483 169.779C310.495 169.789 310.501 169.796 310.503 169.799C310.505 169.801 310.507 169.804 310.509 169.808C310.513 169.815 310.53 169.851 310.538 169.938L313.525 169.654C313.443 168.789 313.067 168.005 312.357 167.437L310.483 169.779ZM310.534 169.884C310.654 171.915 310.712 173.452 310.712 174.512H313.712C313.712 173.364 313.65 171.757 313.529 169.708L310.534 169.884ZM310.713 174.452C310.69 175.034 310.642 175.884 310.571 177.008L313.565 177.2C313.637 176.068 313.686 175.19 313.71 174.572L310.713 174.452ZM310.569 177.039C310.52 178.174 310.474 178.767 310.444 178.945L313.403 179.439C313.47 179.041 313.52 178.242 313.566 177.169L310.569 177.039ZM312.655 180.501C313.651 179.945 315.379 178.506 317.721 176.378L315.703 174.158C313.292 176.35 311.828 177.527 311.192 177.883L312.655 180.501ZM317.721 176.377C320.133 174.183 321.907 172.404 322.991 171.063L320.657 169.177C319.724 170.332 318.09 171.985 315.702 174.159L317.721 176.377ZM322.957 171.102L323.425 170.562L321.158 168.598L320.69 169.138L322.957 171.102ZM323.485 170.489C323.847 170.014 324.064 169.809 324.146 169.749L322.381 167.323C321.935 167.647 321.504 168.138 321.099 168.671L323.485 170.489ZM324.146 169.749C324.109 169.776 324.092 169.776 324.118 169.769C324.148 169.761 324.218 169.748 324.344 169.748V166.748C323.693 166.748 322.986 166.883 322.381 167.323L324.146 169.749ZM324.344 169.748C324.422 169.748 324.485 169.762 324.585 169.85L326.55 167.582C325.931 167.046 325.178 166.748 324.344 166.748V169.748ZM324.668 169.916C324.724 169.959 324.712 169.964 324.686 169.918C324.674 169.895 324.662 169.866 324.654 169.834C324.646 169.803 324.644 169.777 324.644 169.76H327.644C327.644 168.793 327.154 168.031 326.468 167.516L324.668 169.916ZM324.644 169.76C324.644 170.003 324.522 170.448 323.859 171.111L325.98 173.233C326.949 172.264 327.644 171.101 327.644 169.76H324.644ZM323.84 171.13C321.872 173.169 319.907 175.063 317.945 176.812L319.942 179.052C321.964 177.249 323.983 175.303 325.999 173.214L323.84 171.13ZM317.621 178.639C320.467 183.967 323.452 187.718 326.655 189.564L328.153 186.964C325.692 185.546 323.036 182.409 320.267 177.225L317.621 178.639Z" fill="white"/>
<defs>
<filter id="filter0_i_1_8" x="63" y="0" width="157" height="148" filterUnits="userSpaceOnUse" color-interpolation-filters="sRGB">
<feFlood flood-opacity="0" result="BackgroundImageFix"/>
<feBlend mode="normal" in="SourceGraphic" in2="BackgroundImageFix" result="shape"/>
<feColorMatrix in="SourceAlpha" type="matrix" values="0 0 0 0 0 0 0 0 0 0 0 0 0 0 0 0 0 0 127 0" result="hardAlpha"/>
<feOffset dx="-17" dy="8"/>
<feGaussianBlur stdDeviation="12.5"/>
<feComposite in2="hardAlpha" operator="arithmetic" k2="-1" k3="1"/>
<feColorMatrix type="matrix" values="0 0 0 0 1 0 0 0 0 1 0 0 0 0 1 0 0 0 1 0"/>
<feBlend mode="normal" in2="shape" result="effect1_innerShadow_1_8"/>
</filter>
<filter id="filter1_d_1_8" x="124.487" y="29.7376" width="68.8205" height="111.546" filterUnits="userSpaceOnUse" color-interpolation-filters="sRGB">
<feFlood flood-opacity="0" result="BackgroundImageFix"/>
<feColorMatrix in="SourceAlpha" type="matrix" values="0 0 0 0 0 0 0 0 0 0 0 0 0 0 0 0 0 0 127 0" result="hardAlpha"/>
<feOffset dx="-6" dy="1"/>
<feGaussianBlur stdDeviation="4"/>
<feComposite in2="hardAlpha" operator="out"/>
<feColorMatrix type="matrix" values="0 0 0 0 0 0 0 0 0 0 0 0 0 0 0 0 0 0 0.55 0"/>
<feBlend mode="normal" in2="BackgroundImageFix" result="effect1_dropShadow_1_8"/>
<feBlend mode="normal" in="SourceGraphic" in2="effect1_dropShadow_1_8" result="shape"/>
</filter>
<filter id="filter2_d_1_8" x="178.238" y="11.3688" width="27.3771" height="28.847" filterUnits="userSpaceOnUse" color-interpolation-filters="sRGB">
<feFlood flood-opacity="0" result="BackgroundImageFix"/>
<feColorMatrix in="SourceAlpha" type="matrix" values="0 0 0 0 0 0 0 0 0 0 0 0 0 0 0 0 0 0 127 0" result="hardAlpha"/>
<feOffset dx="-6" dy="1"/>
<feGaussianBlur stdDeviation="4"/>
<feComposite in2="hardAlpha" operator="out"/>
<feColorMatrix type="matrix" values="0 0 0 0 0 0 0 0 0 0 0 0 0 0 0 0 0 0 0.55 0"/>
<feBlend mode="normal" in2="BackgroundImageFix" result="effect1_dropShadow_1_8"/>
<feBlend mode="normal" in="SourceGraphic" in2="effect1_dropShadow_1_8" result="shape"/>
</filter>
</defs>
</svg>
